<svg width="58" height="50" viewBox="0 0 58 50" fill="none" xmlns="http://www.w3.org/2000/svg">
<path d="M1 33.0007V38.76C1 42.3443 1 44.1353 1.67817 45.5043C2.27471 46.7085 3.22589 47.6895 4.39666 48.3031C5.72635 49 7.46791 49 10.9458 49H57M1 33.0007V1M1 33.0007L12.9882 22.725L12.9981 22.7168C15.1668 20.8579 16.2532 19.9267 17.4313 19.5484C18.823 19.1016 20.322 19.1723 21.6686 19.7469C22.8102 20.234 23.8112 21.2636 25.8132 23.3228L25.8333 23.3435C27.8664 25.4347 28.8856 26.4831 30.0455 26.9691C31.4181 27.5443 32.9462 27.5938 34.3529 27.1138C35.5456 26.7069 36.6349 25.7282 38.813 23.7679L56.9993 7.4" stroke="#8FC0FF" stroke-width="2" stroke-linecap="round" stroke-linejoin="round"/>
</svg>
