<svg width="58" height="50" viewBox="0 0 58 50" fill="none" xmlns="http://www.w3.org/2000/svg">
<path d="M53.0172 4.81047C58.1498 9.72083 58.3463 17.6222 53.4637 22.7605L48.7806 27.8918C51.4955 30.0691 53.231 33.3958 53.231 37.1237C53.231 43.6828 47.8584 49 41.231 49C37.6779 49 34.4855 47.4717 32.2883 45.0432L28.9984 48.5052L4.53628 22.7604C-0.346346 17.6221 -0.149709 9.72065 4.98286 4.81029C10.7137 -0.672421 20.1519 -0.171423 25.2148 5.88322L29 10.4082L32.782 5.8827C37.8449 -0.171938 47.2864 -0.672246 53.0172 4.81047Z" fill="white"/>
<path d="M41.231 25.2474C34.6036 25.2474 29.231 30.5646 29.231 37.1237C29.231 40.1664 30.3871 42.9418 32.2883 45.0432M41.231 25.2474C47.8584 25.2474 53.231 30.5646 53.231 37.1237M41.231 25.2474C44.0917 25.2474 46.7186 26.2381 48.7806 27.8918M53.231 37.1237C53.231 43.6828 47.8584 49 41.231 49C37.6779 49 34.4855 47.4717 32.2883 45.0432M53.231 37.1237C53.231 33.3958 51.4955 30.0691 48.7806 27.8918M46.5 33.6598L39.8977 39.7629L38.5622 38.4412L37.231 37.1237M48.7806 27.8918L53.4637 22.7605C58.3463 17.6222 58.1498 9.72083 53.0172 4.81047C47.2864 -0.672246 37.8449 -0.171938 32.782 5.8827L29 10.4082L25.2148 5.88322C20.1519 -0.171423 10.7137 -0.672421 4.98286 4.81029C-0.149709 9.72065 -0.346346 17.6221 4.53628 22.7604L28.9984 48.5052L32.2883 45.0432" stroke="#8FC0FF" stroke-width="2" stroke-linecap="round" stroke-linejoin="round"/>
</svg>
