<svg xmlns="http://www.w3.org/2000/svg" width="6" height="176" viewBox="0 0 6 176" fill="none">
  <path d="M3 0.333333C1.52724 0.333333 0.333333 1.52724 0.333333 3C0.333333 4.47276 1.52724 5.66667 3 5.66667C4.47276 5.66667 5.66667 4.47276 5.66667 3C5.66667 1.52724 4.47276 0.333333 3 0.333333ZM2.99999 170.333C1.52723 170.333 0.333326 171.527 0.333326 173C0.333326 174.473 1.52723 175.667 2.99999 175.667C4.47275 175.667 5.66666 174.473 5.66666 173C5.66666 171.527 4.47275 170.333 2.99999 170.333ZM2.5 3L2.49999 173L3.49999 173L3.5 3L2.5 3Z" fill="#C0C0C0"/>
</svg>