<svg width="334" height="6" viewBox="0 0 334 6" fill="none" xmlns="http://www.w3.org/2000/svg">
<path d="M0.333333 3C0.333333 4.47276 1.52724 5.66667 3 5.66667C4.47276 5.66667 5.66667 4.47276 5.66667 3C5.66667 1.52724 4.47276 0.333333 3 0.333333C1.52724 0.333333 0.333333 1.52724 0.333333 3ZM328.333 3C328.333 4.47276 329.527 5.66667 331 5.66667C332.473 5.66667 333.667 4.47276 333.667 3C333.667 1.52724 332.473 0.333333 331 0.333333C329.527 0.333333 328.333 1.52724 328.333 3ZM3 3.5L331 3.5V2.5L3 2.5V3.5Z" fill="#C0C0C0"/>
</svg>
