<svg width="50" height="50" viewBox="0 0 50 50" fill="none" xmlns="http://www.w3.org/2000/svg">
<path d="M13 8.20044V29.8004C13 32.3207 13 33.5801 13.4905 34.5427C13.9219 35.3895 14.6098 36.0786 15.4565 36.51C16.4182 37 17.6777 37 20.193 37H41.807C44.3223 37 45.58 37 46.5416 36.51C47.3884 36.0786 48.0786 35.3895 48.51 34.5427C49 33.5811 49 32.3234 49 29.8081V8.19305C49 5.67774 49 4.4182 48.51 3.45654C48.0786 2.60981 47.3884 1.9219 46.5416 1.49047C45.579 1 44.3207 1 41.8004 1H20.2004C17.6802 1 16.4191 1 15.4565 1.49047C14.6098 1.9219 13.9219 2.60981 13.4905 3.45654C13 4.41915 13 5.6802 13 8.20044Z" stroke="#8FC0FF" stroke-width="2" stroke-linecap="round" stroke-linejoin="round"/>
<path d="M1 20.2004V41.8004C1 44.3207 1 45.5801 1.49047 46.5427C1.9219 47.3895 2.60981 48.0786 3.45654 48.51C4.4182 49 5.67774 49 8.19305 49H29.807C32.3223 49 33.58 49 34.5416 48.51C35.3884 48.0786 36.0786 47.3895 36.51 46.5427C37 45.5811 37 44.3234 37 41.8081V20.193C37 17.6777 37 16.4182 36.51 15.4565C36.0786 14.6098 35.3884 13.9219 34.5416 13.4905C33.579 13 32.3207 13 29.8004 13H8.20044C5.6802 13 4.41915 13 3.45654 13.4905C2.60981 13.9219 1.9219 14.6098 1.49047 15.4565C1 16.4191 1 17.6802 1 20.2004Z" fill="white"/>
<path d="M10 31L16.75 37.75L28 24.25M1 41.8004V20.2004C1 17.6802 1 16.4191 1.49047 15.4565C1.9219 14.6098 2.60981 13.9219 3.45654 13.4905C4.41915 13 5.6802 13 8.20044 13H29.8004C32.3207 13 33.579 13 34.5416 13.4905C35.3884 13.9219 36.0786 14.6098 36.51 15.4565C37 16.4182 37 17.6777 37 20.193V41.8081C37 44.3234 37 45.5811 36.51 46.5427C36.0786 47.3895 35.3884 48.0786 34.5416 48.51C33.58 49 32.3223 49 29.807 49H8.19305C5.67774 49 4.4182 49 3.45654 48.51C2.60981 48.0786 1.9219 47.3895 1.49047 46.5427C1 45.5801 1 44.3207 1 41.8004Z" stroke="#8FC0FF" stroke-width="2" stroke-linecap="round" stroke-linejoin="round"/>
</svg>
