<svg width="26" height="27" viewBox="0 0 26 27" fill="none" xmlns="http://www.w3.org/2000/svg">
<path d="M1 13.5C1 20.1274 6.37258 25.5 13 25.5C19.6274 25.5 25 20.1274 25 13.5C25 6.87258 19.6274 1.5 13 1.5C6.37258 1.5 1 6.87258 1 13.5Z" fill="#8FC0FF"/>
<path d="M17 10.8333L11.6667 16.1667L9 13.5M13 25.5C6.37258 25.5 1 20.1274 1 13.5C1 6.87258 6.37258 1.5 13 1.5C19.6274 1.5 25 6.87258 25 13.5C25 20.1274 19.6274 25.5 13 25.5Z" stroke="#EFF7FF" stroke-width="2" stroke-linecap="round" stroke-linejoin="round"/>
</svg>
