<svg width="168" height="234" viewBox="0 0 168 234" fill="none" xmlns="http://www.w3.org/2000/svg">
<path d="M92.1798 223.622L164.439 80.541L153.006 74.4733L80.7469 217.554L92.1798 223.622Z" fill="#E0E0E0"/>
<path d="M124.249 213.665H55.22C54.2155 213.665 53.4011 214.458 53.4011 215.436V231.808C53.4011 232.786 54.2155 233.579 55.22 233.579H124.249C125.253 233.579 126.068 232.786 126.068 231.808V215.436C126.068 214.458 125.253 213.665 124.249 213.665Z" fill="#30235B"/>
<path d="M91.6748 25.9354L156.122 81.8345L164.438 71.7592L99.9905 15.8601L91.6748 25.9354Z" fill="#E0E0E0"/>
<path d="M69.3412 28.0233L93.0474 20.1873L91.6863 15.8601L67.9801 23.6961L69.3412 28.0233Z" fill="#E0E0E0"/>
<path d="M159.006 85.7399C163.973 85.7399 168 81.6121 168 76.5201C168 71.4281 163.973 67.3003 159.006 67.3003C154.039 67.3003 150.012 71.4281 150.012 76.5201C150.012 81.6121 154.039 85.7399 159.006 85.7399Z" fill="#30235B"/>
<path d="M87.4211 13.5256L100.021 15.923L91.6961 25.9106L87.4211 13.5256Z" fill="#30235B"/>
<path d="M48.375 8.72341C51.17 1.52511 59.3462 -1.89942 66.6362 1.07604C73.9262 4.0515 77.57 12.2988 74.7737 19.4971L66.5562 40.6588L40.1562 29.8851L48.375 8.72341Z" fill="#30235B"/>
<path d="M56.5512 30.3049C27.2524 18.5114 7.76119 44.9291 0.877441 58.9204C21.2199 88.6519 58.4837 91.7065 75.3725 90.2096C81.3062 75.1546 85.8499 42.0972 56.5512 30.3049Z" fill="#30235B"/>
</svg>
