<svg width="588" height="248" viewBox="0 0 588 248" fill="none" xmlns="http://www.w3.org/2000/svg">
<path d="M599 0C578.84 45.3702 565.55 75.6937 504.42 69.9793C448.266 64.7256 452.941 54.9803 387.468 61.5041C303.67 69.8536 323.084 113.226 241.027 126.314C157.482 139.633 145.372 98.0217 104.588 98.0217C51.5724 98.0217 -7 248.395 -7 248.395V276H599V0Z" fill="url(#paint0_linear_147_112004)"/>
<path opacity="0.7" d="M588.502 113C598.82 121.022 577.316 157.488 521.304 166.979C465.292 176.47 453.29 149.514 389.776 153.992C321.485 158.806 306.759 223.926 231.243 229.421C149.558 242.546 144.978 209.601 105.102 209.601C53.2678 209.601 -4 357.795 -4 357.795V385H588.502V113Z" fill="url(#paint1_radial_147_112004)"/>
<path d="M75.584 82.068V76.132H76.466V82.068H75.584ZM72.98 79.52V78.694H79.07V79.52H72.98ZM87.3708 84.084C86.6615 84.084 85.9895 83.972 85.3548 83.748C84.7295 83.5147 84.2255 83.2067 83.8428 82.824L84.3328 82.026C84.6501 82.3527 85.0748 82.6233 85.6068 82.838C86.1481 83.0527 86.7361 83.16 87.3708 83.16C88.1828 83.16 88.8035 82.9827 89.2328 82.628C89.6715 82.2733 89.8908 81.7973 89.8908 81.2C89.8908 80.6027 89.6761 80.1267 89.2468 79.772C88.8268 79.4173 88.1595 79.24 87.2448 79.24H86.5448V78.498L89.5688 74.704L89.7088 75.096H84.2488V74.2H90.5488V74.914L87.5248 78.708L87.0348 78.386H87.4128C88.5888 78.386 89.4661 78.6473 90.0448 79.17C90.6328 79.6927 90.9268 80.3647 90.9268 81.186C90.9268 81.7367 90.7961 82.2313 90.5348 82.67C90.2735 83.1087 89.8768 83.454 89.3448 83.706C88.8221 83.958 88.1641 84.084 87.3708 84.084ZM96.2531 84.084C95.4971 84.084 94.8251 83.888 94.2371 83.496C93.6491 83.0947 93.1871 82.5253 92.8511 81.788C92.5151 81.0413 92.3471 80.1453 92.3471 79.1C92.3471 78.0547 92.5151 77.1633 92.8511 76.426C93.1871 75.6793 93.6491 75.11 94.2371 74.718C94.8251 74.3167 95.4971 74.116 96.2531 74.116C97.0091 74.116 97.6811 74.3167 98.2691 74.718C98.8571 75.11 99.3191 75.6793 99.6551 76.426C100 77.1633 100.173 78.0547 100.173 79.1C100.173 80.1453 100 81.0413 99.6551 81.788C99.3191 82.5253 98.8571 83.0947 98.2691 83.496C97.6811 83.888 97.0091 84.084 96.2531 84.084ZM96.2531 83.16C96.8318 83.16 97.3358 83.006 97.7651 82.698C98.1945 82.3807 98.5305 81.9233 98.7731 81.326C99.0158 80.7193 99.1371 79.9773 99.1371 79.1C99.1371 78.2227 99.0158 77.4853 98.7731 76.888C98.5305 76.2813 98.1945 75.824 97.7651 75.516C97.3358 75.1987 96.8318 75.04 96.2531 75.04C95.6931 75.04 95.1938 75.1987 94.7551 75.516C94.3165 75.824 93.9758 76.2813 93.7331 76.888C93.4905 77.4853 93.3691 78.2227 93.3691 79.1C93.3691 79.9773 93.4905 80.7193 93.7331 81.326C93.9758 81.9233 94.3165 82.3807 94.7551 82.698C95.1938 83.006 95.6931 83.16 96.2531 83.16ZM109.187 84.084C108.431 84.084 107.759 83.888 107.171 83.496C106.583 83.0947 106.121 82.5253 105.785 81.788C105.449 81.0413 105.281 80.1453 105.281 79.1C105.281 78.0547 105.449 77.1633 105.785 76.426C106.121 75.6793 106.583 75.11 107.171 74.718C107.759 74.3167 108.431 74.116 109.187 74.116C109.943 74.116 110.615 74.3167 111.203 74.718C111.791 75.11 112.253 75.6793 112.589 76.426C112.934 77.1633 113.107 78.0547 113.107 79.1C113.107 80.1453 112.934 81.0413 112.589 81.788C112.253 82.5253 111.791 83.0947 111.203 83.496C110.615 83.888 109.943 84.084 109.187 84.084ZM109.187 83.16C109.765 83.16 110.269 83.006 110.699 82.698C111.128 82.3807 111.464 81.9233 111.707 81.326C111.949 80.7193 112.071 79.9773 112.071 79.1C112.071 78.2227 111.949 77.4853 111.707 76.888C111.464 76.2813 111.128 75.824 110.699 75.516C110.269 75.1987 109.765 75.04 109.187 75.04C108.627 75.04 108.127 75.1987 107.689 75.516C107.25 75.824 106.909 76.2813 106.667 76.888C106.424 77.4853 106.303 78.2227 106.303 79.1C106.303 79.9773 106.424 80.7193 106.667 81.326C106.909 81.9233 107.25 82.3807 107.689 82.698C108.127 83.006 108.627 83.16 109.187 83.16ZM118.456 84.084C117.7 84.084 117.028 83.888 116.44 83.496C115.852 83.0947 115.39 82.5253 115.054 81.788C114.718 81.0413 114.55 80.1453 114.55 79.1C114.55 78.0547 114.718 77.1633 115.054 76.426C115.39 75.6793 115.852 75.11 116.44 74.718C117.028 74.3167 117.7 74.116 118.456 74.116C119.212 74.116 119.884 74.3167 120.472 74.718C121.06 75.11 121.522 75.6793 121.858 76.426C122.204 77.1633 122.376 78.0547 122.376 79.1C122.376 80.1453 122.204 81.0413 121.858 81.788C121.522 82.5253 121.06 83.0947 120.472 83.496C119.884 83.888 119.212 84.084 118.456 84.084ZM118.456 83.16C119.035 83.16 119.539 83.006 119.968 82.698C120.398 82.3807 120.734 81.9233 120.976 81.326C121.219 80.7193 121.34 79.9773 121.34 79.1C121.34 78.2227 121.219 77.4853 120.976 76.888C120.734 76.2813 120.398 75.824 119.968 75.516C119.539 75.1987 119.035 75.04 118.456 75.04C117.896 75.04 117.397 75.1987 116.958 75.516C116.52 75.824 116.179 76.2813 115.936 76.888C115.694 77.4853 115.572 78.2227 115.572 79.1C115.572 79.9773 115.694 80.7193 115.936 81.326C116.179 81.9233 116.52 82.3807 116.958 82.698C117.397 83.006 117.896 83.16 118.456 83.16ZM127.726 84.084C126.97 84.084 126.298 83.888 125.71 83.496C125.122 83.0947 124.66 82.5253 124.324 81.788C123.988 81.0413 123.82 80.1453 123.82 79.1C123.82 78.0547 123.988 77.1633 124.324 76.426C124.66 75.6793 125.122 75.11 125.71 74.718C126.298 74.3167 126.97 74.116 127.726 74.116C128.482 74.116 129.154 74.3167 129.742 74.718C130.33 75.11 130.792 75.6793 131.128 76.426C131.473 77.1633 131.646 78.0547 131.646 79.1C131.646 80.1453 131.473 81.0413 131.128 81.788C130.792 82.5253 130.33 83.0947 129.742 83.496C129.154 83.888 128.482 84.084 127.726 84.084ZM127.726 83.16C128.304 83.16 128.808 83.006 129.238 82.698C129.667 82.3807 130.003 81.9233 130.246 81.326C130.488 80.7193 130.61 79.9773 130.61 79.1C130.61 78.2227 130.488 77.4853 130.246 76.888C130.003 76.2813 129.667 75.824 129.238 75.516C128.808 75.1987 128.304 75.04 127.726 75.04C127.166 75.04 126.666 75.1987 126.228 75.516C125.789 75.824 125.448 76.2813 125.206 76.888C124.963 77.4853 124.842 78.2227 124.842 79.1C124.842 79.9773 124.963 80.7193 125.206 81.326C125.448 81.9233 125.789 82.3807 126.228 82.698C126.666 83.006 127.166 83.16 127.726 83.16Z" fill="#0D0A2C"/>
<circle cx="102.5" cy="97" r="7" fill="#EFF7FF"/>
<circle cx="102" cy="97" r="6" fill="#0D0A2C"/>
<path d="M345.084 48.068V42.132H345.966V48.068H345.084ZM342.48 45.52V44.694H348.57V45.52H342.48ZM353.777 47.424V46.696L358.971 40.2H360.091L354.939 46.696L354.393 46.528H362.275V47.424H353.777ZM359.307 50V47.424L359.335 46.528V44.26H360.315V50H359.307ZM367.107 50.084C366.351 50.084 365.679 49.888 365.091 49.496C364.503 49.0947 364.041 48.5253 363.705 47.788C363.369 47.0413 363.201 46.1453 363.201 45.1C363.201 44.0547 363.369 43.1633 363.705 42.426C364.041 41.6793 364.503 41.11 365.091 40.718C365.679 40.3167 366.351 40.116 367.107 40.116C367.863 40.116 368.535 40.3167 369.123 40.718C369.711 41.11 370.173 41.6793 370.509 42.426C370.854 43.1633 371.027 44.0547 371.027 45.1C371.027 46.1453 370.854 47.0413 370.509 47.788C370.173 48.5253 369.711 49.0947 369.123 49.496C368.535 49.888 367.863 50.084 367.107 50.084ZM367.107 49.16C367.685 49.16 368.189 49.006 368.619 48.698C369.048 48.3807 369.384 47.9233 369.627 47.326C369.869 46.7193 369.991 45.9773 369.991 45.1C369.991 44.2227 369.869 43.4853 369.627 42.888C369.384 42.2813 369.048 41.824 368.619 41.516C368.189 41.1987 367.685 41.04 367.107 41.04C366.547 41.04 366.047 41.1987 365.609 41.516C365.17 41.824 364.829 42.2813 364.587 42.888C364.344 43.4853 364.223 44.2227 364.223 45.1C364.223 45.9773 364.344 46.7193 364.587 47.326C364.829 47.9233 365.17 48.3807 365.609 48.698C366.047 49.006 366.547 49.16 367.107 49.16ZM380.04 50.084C379.284 50.084 378.612 49.888 378.024 49.496C377.436 49.0947 376.974 48.5253 376.638 47.788C376.302 47.0413 376.134 46.1453 376.134 45.1C376.134 44.0547 376.302 43.1633 376.638 42.426C376.974 41.6793 377.436 41.11 378.024 40.718C378.612 40.3167 379.284 40.116 380.04 40.116C380.796 40.116 381.468 40.3167 382.056 40.718C382.644 41.11 383.106 41.6793 383.442 42.426C383.788 43.1633 383.96 44.0547 383.96 45.1C383.96 46.1453 383.788 47.0413 383.442 47.788C383.106 48.5253 382.644 49.0947 382.056 49.496C381.468 49.888 380.796 50.084 380.04 50.084ZM380.04 49.16C380.619 49.16 381.123 49.006 381.552 48.698C381.982 48.3807 382.318 47.9233 382.56 47.326C382.803 46.7193 382.924 45.9773 382.924 45.1C382.924 44.2227 382.803 43.4853 382.56 42.888C382.318 42.2813 381.982 41.824 381.552 41.516C381.123 41.1987 380.619 41.04 380.04 41.04C379.48 41.04 378.981 41.1987 378.542 41.516C378.104 41.824 377.763 42.2813 377.52 42.888C377.278 43.4853 377.156 44.2227 377.156 45.1C377.156 45.9773 377.278 46.7193 377.52 47.326C377.763 47.9233 378.104 48.3807 378.542 48.698C378.981 49.006 379.48 49.16 380.04 49.16ZM389.31 50.084C388.554 50.084 387.882 49.888 387.294 49.496C386.706 49.0947 386.244 48.5253 385.908 47.788C385.572 47.0413 385.404 46.1453 385.404 45.1C385.404 44.0547 385.572 43.1633 385.908 42.426C386.244 41.6793 386.706 41.11 387.294 40.718C387.882 40.3167 388.554 40.116 389.31 40.116C390.066 40.116 390.738 40.3167 391.326 40.718C391.914 41.11 392.376 41.6793 392.712 42.426C393.057 43.1633 393.23 44.0547 393.23 45.1C393.23 46.1453 393.057 47.0413 392.712 47.788C392.376 48.5253 391.914 49.0947 391.326 49.496C390.738 49.888 390.066 50.084 389.31 50.084ZM389.31 49.16C389.888 49.16 390.392 49.006 390.822 48.698C391.251 48.3807 391.587 47.9233 391.83 47.326C392.072 46.7193 392.194 45.9773 392.194 45.1C392.194 44.2227 392.072 43.4853 391.83 42.888C391.587 42.2813 391.251 41.824 390.822 41.516C390.392 41.1987 389.888 41.04 389.31 41.04C388.75 41.04 388.25 41.1987 387.812 41.516C387.373 41.824 387.032 42.2813 386.79 42.888C386.547 43.4853 386.426 44.2227 386.426 45.1C386.426 45.9773 386.547 46.7193 386.79 47.326C387.032 47.9233 387.373 48.3807 387.812 48.698C388.25 49.006 388.75 49.16 389.31 49.16ZM398.579 50.084C397.823 50.084 397.151 49.888 396.563 49.496C395.975 49.0947 395.513 48.5253 395.177 47.788C394.841 47.0413 394.673 46.1453 394.673 45.1C394.673 44.0547 394.841 43.1633 395.177 42.426C395.513 41.6793 395.975 41.11 396.563 40.718C397.151 40.3167 397.823 40.116 398.579 40.116C399.335 40.116 400.007 40.3167 400.595 40.718C401.183 41.11 401.645 41.6793 401.981 42.426C402.327 43.1633 402.499 44.0547 402.499 45.1C402.499 46.1453 402.327 47.0413 401.981 47.788C401.645 48.5253 401.183 49.0947 400.595 49.496C400.007 49.888 399.335 50.084 398.579 50.084ZM398.579 49.16C399.158 49.16 399.662 49.006 400.091 48.698C400.521 48.3807 400.857 47.9233 401.099 47.326C401.342 46.7193 401.463 45.9773 401.463 45.1C401.463 44.2227 401.342 43.4853 401.099 42.888C400.857 42.2813 400.521 41.824 400.091 41.516C399.662 41.1987 399.158 41.04 398.579 41.04C398.019 41.04 397.52 41.1987 397.081 41.516C396.643 41.824 396.302 42.2813 396.059 42.888C395.817 43.4853 395.695 44.2227 395.695 45.1C395.695 45.9773 395.817 46.7193 396.059 47.326C396.302 47.9233 396.643 48.3807 397.081 48.698C397.52 49.006 398.019 49.16 398.579 49.16Z" fill="#0D0A2C"/>
<circle cx="372.5" cy="63" r="7" fill="#EFF7FF"/>
<circle cx="372" cy="63" r="6" fill="#0D0A2C"/>
<defs>
<linearGradient id="paint0_linear_147_112004" x1="238.653" y1="188.632" x2="655.061" y2="60.3917" gradientUnits="userSpaceOnUse">
<stop stop-color="#8FC0FF"/>
<stop offset="0.9999" stop-color="#E7F2FF"/>
</linearGradient>
<radialGradient id="paint1_radial_147_112004" cx="0" cy="0" r="1" gradientUnits="userSpaceOnUse" gradientTransform="translate(292.256 260.392) rotate(-11.1703) scale(309.426 829.821)">
<stop stop-color="#E7F2FF"/>
<stop offset="0.9999" stop-color="white"/>
</radialGradient>
</defs>
</svg>
