<svg width="219" height="378" viewBox="0 0 219 378" fill="none" xmlns="http://www.w3.org/2000/svg">
<g clip-path="url(#clip0_279_147121)">
<rect width="219" height="511.48" fill="#F5F5F5"/>
<path d="M19.5094 24.6797L15.1568 18.5751L14.623 17.7333L14.712 18.7256V24.6797H12.7546V14.8794H15.0131L19.3315 20.9909L19.8653 21.8327L19.7695 20.8403V14.8794H21.7336V24.6797H19.5094ZM31.6434 24.5839C31.6023 24.6067 31.5385 24.6363 31.4518 24.6728C31.3696 24.7093 31.2716 24.7436 31.1575 24.7755C31.0434 24.812 30.918 24.8417 30.7811 24.8645C30.6488 24.8873 30.5142 24.8987 30.3773 24.8987C30.1446 24.8987 29.937 24.8736 29.7545 24.8234C29.572 24.7732 29.4169 24.6934 29.2891 24.5839C29.166 24.4744 29.0701 24.3307 29.0017 24.1527C28.9378 23.9702 28.9059 23.7489 28.9059 23.4889C28.9059 23.3748 28.9127 23.2402 28.9264 23.0851C28.9447 22.93 28.9675 22.7498 28.9949 22.5444C28.9036 22.9733 28.7553 23.3383 28.55 23.6394C28.3493 23.936 28.1075 24.1778 27.8246 24.3649C27.5417 24.5519 27.2269 24.6865 26.8801 24.7687C26.538 24.8553 26.1821 24.8987 25.8125 24.8987C25.4065 24.8987 25.0437 24.8508 24.7244 24.755C24.4096 24.6592 24.1426 24.5223 23.9236 24.3443C23.7092 24.1664 23.545 23.9543 23.4309 23.7079C23.3168 23.4569 23.2598 23.1763 23.2598 22.8661C23.2598 22.5604 23.3237 22.2958 23.4514 22.0722C23.5792 21.8441 23.7594 21.6502 23.9921 21.4905C24.2248 21.3263 24.5031 21.1939 24.827 21.0936C25.151 20.9886 25.5091 20.9088 25.9015 20.854C26.2984 20.7947 26.7227 20.7559 27.1744 20.7377C27.6261 20.7149 28.0938 20.7035 28.5774 20.7035V20.2244C28.5774 20.0191 28.5477 19.832 28.4884 19.6632C28.4337 19.4898 28.3424 19.3416 28.2147 19.2184C28.0915 19.0952 27.9295 18.9994 27.7288 18.9309C27.528 18.8625 27.2839 18.8283 26.9965 18.8283C26.8003 18.8283 26.611 18.8511 26.4285 18.8967C26.246 18.9423 26.0794 19.0153 25.9289 19.1157C25.7783 19.2115 25.6506 19.3347 25.5456 19.4853C25.4407 19.6358 25.3677 19.8161 25.3266 20.0259L23.691 19.718C23.7731 19.3758 23.9054 19.0655 24.0879 18.7872C24.2704 18.5043 24.5054 18.2625 24.7928 18.0618C25.0848 17.861 25.4293 17.7059 25.8262 17.5964C26.2277 17.4869 26.6885 17.4322 27.2086 17.4322C28.3858 17.4322 29.2572 17.6899 29.823 18.2055C30.3887 18.7211 30.6716 19.5127 30.6716 20.5803V23.0372C30.6716 23.2516 30.7035 23.4113 30.7674 23.5163C30.8358 23.6166 30.9499 23.6668 31.1096 23.6668C31.2191 23.6668 31.3217 23.6554 31.4176 23.6326C31.5179 23.6052 31.5932 23.5801 31.6434 23.5573V24.5839ZM28.5842 21.6205C28.1234 21.6342 27.6991 21.6593 27.3113 21.6958C26.9235 21.7278 26.5859 21.7848 26.2984 21.8669C26.0156 21.949 25.7943 22.0631 25.6346 22.2091C25.4749 22.3551 25.3951 22.5467 25.3951 22.784C25.3951 22.9026 25.4156 23.0144 25.4566 23.1193C25.4977 23.2197 25.5616 23.3087 25.6483 23.3862C25.7395 23.4638 25.8581 23.5254 26.0041 23.571C26.1501 23.6166 26.3258 23.6394 26.5311 23.6394C26.8094 23.6394 27.0741 23.5847 27.325 23.4752C27.5759 23.3611 27.7926 23.2151 27.9751 23.0372C28.1622 22.8547 28.3105 22.6471 28.42 22.4144C28.5295 22.1772 28.5842 21.9353 28.5842 21.689V21.6205ZM42.7782 24.6797L42.7713 20.7651C42.7713 20.4366 42.7462 20.1605 42.6961 19.937C42.6504 19.7134 42.582 19.5332 42.4907 19.3963C42.3995 19.2549 42.2831 19.1545 42.1417 19.0952C42.0048 19.0313 41.8474 18.9994 41.6695 18.9994C41.4231 18.9994 41.195 19.0633 40.9851 19.191C40.7752 19.3188 40.5905 19.4921 40.4308 19.7111C40.2756 19.9256 40.1525 20.1742 40.0612 20.4571C39.9745 20.74 39.9312 21.0343 39.9312 21.3399V24.6797H37.837V20.8061C37.837 20.4548 37.8096 20.1628 37.7549 19.9301C37.7001 19.6974 37.6226 19.5127 37.5222 19.3758C37.4264 19.2389 37.3077 19.1431 37.1663 19.0883C37.0294 19.029 36.8789 18.9994 36.7146 18.9994C36.4865 18.9994 36.2698 19.061 36.0645 19.1842C35.8591 19.3073 35.6766 19.4762 35.517 19.6906C35.3618 19.9005 35.2364 20.1491 35.1406 20.4366C35.0493 20.7194 35.0037 21.0228 35.0037 21.3468V24.6797H32.9095V17.658H34.3672L34.7162 19.3963C34.7938 19.2001 34.9079 18.988 35.0584 18.7598C35.209 18.5272 35.4006 18.3127 35.6333 18.1165C35.866 17.9203 36.142 17.7584 36.4614 17.6306C36.7853 17.4983 37.1595 17.4322 37.5838 17.4322C37.8849 17.4322 38.1586 17.4846 38.405 17.5896C38.656 17.6899 38.8704 17.8314 39.0483 18.0139C39.2308 18.1918 39.3746 18.4085 39.4795 18.664C39.589 18.915 39.6551 19.191 39.678 19.4921C39.7601 19.2138 39.8924 18.9492 40.0749 18.6983C40.262 18.4473 40.4764 18.2283 40.7182 18.0413C40.96 17.8542 41.2224 17.7059 41.5052 17.5964C41.7927 17.4869 42.0778 17.4322 42.3607 17.4322C42.7303 17.4322 43.0679 17.4892 43.3736 17.6033C43.6838 17.7173 43.9485 17.8998 44.1675 18.1508C44.391 18.4017 44.5644 18.7279 44.6876 19.1294C44.8108 19.5263 44.8724 20.01 44.8724 20.5803V24.6797H42.7782ZM52.202 22.2775L53.6392 22.8524C53.2788 23.5048 52.8202 24.009 52.2636 24.3649C51.707 24.7207 51.0295 24.8987 50.231 24.8987C49.5603 24.8987 48.9695 24.8097 48.4585 24.6318C47.952 24.4493 47.5277 24.1938 47.1855 23.8653C46.8479 23.5368 46.5924 23.1444 46.419 22.6882C46.2502 22.2273 46.1658 21.7163 46.1658 21.1552C46.1658 20.594 46.248 20.0853 46.4122 19.629C46.581 19.1682 46.8297 18.7758 47.1582 18.4519C47.4867 18.1279 47.895 17.877 48.3832 17.6991C48.876 17.5211 49.4485 17.4322 50.101 17.4322C50.6895 17.4322 51.212 17.5188 51.6682 17.6922C52.129 17.8656 52.5168 18.1143 52.8316 18.4382C53.151 18.7576 53.3928 19.1454 53.5571 19.6016C53.7259 20.0533 53.8103 20.5575 53.8103 21.1141V21.5589H48.13C48.1437 21.8646 48.2053 22.1384 48.3148 22.3802C48.4243 22.622 48.5703 22.8273 48.7528 22.9961C48.9398 23.1604 49.1588 23.2881 49.4098 23.3794C49.6653 23.4661 49.9459 23.5094 50.2515 23.5094C50.6804 23.5094 51.0591 23.4113 51.3876 23.2151C51.7161 23.0189 51.967 22.7064 52.1404 22.2775H52.202ZM51.8256 20.4708C51.8165 20.2107 51.7731 19.9735 51.6956 19.759C51.618 19.54 51.504 19.3553 51.3534 19.2047C51.2074 19.0496 51.0249 18.9309 50.8059 18.8488C50.5915 18.7621 50.3405 18.7188 50.0531 18.7188C49.7748 18.7188 49.5215 18.7621 49.2934 18.8488C49.0699 18.9355 48.876 19.0564 48.7117 19.2115C48.5475 19.3667 48.4151 19.5514 48.3148 19.7659C48.219 19.9803 48.1619 20.2153 48.1437 20.4708H51.8256ZM60.832 24.6797L57.8892 17.658H60.1818L61.8654 22.2365L62.146 23.2083L62.4334 22.2365L64.117 17.658H66.1633L63.2273 24.6797H60.832ZM68.5517 17.658L68.8392 19.0952C68.9669 18.8351 69.1289 18.6024 69.3251 18.3971C69.5258 18.1918 69.754 18.0184 70.0095 17.877C70.2695 17.7356 70.5501 17.6283 70.8512 17.5553C71.1569 17.4778 71.4786 17.439 71.8162 17.439C72.3135 17.439 72.7629 17.5303 73.1644 17.7128C73.5659 17.8907 73.9081 18.1439 74.191 18.4724C74.4739 18.7963 74.6906 19.1887 74.8411 19.6495C74.9963 20.1058 75.0738 20.6122 75.0738 21.1688C75.0738 21.7528 74.9963 22.2753 74.8411 22.7361C74.686 23.1969 74.467 23.5893 74.1841 23.9132C73.9013 24.2326 73.5568 24.4789 73.1507 24.6523C72.7492 24.8211 72.3021 24.9055 71.8094 24.9055C71.4717 24.9055 71.1615 24.869 70.8786 24.796C70.6003 24.723 70.3494 24.6249 70.1258 24.5018C69.9068 24.3786 69.7175 24.2371 69.5578 24.0774C69.3981 23.9132 69.2749 23.7421 69.1882 23.5642V27.1503H67.0872V17.658H68.5517ZM69.1814 21.162C69.1814 21.5544 69.2316 21.892 69.3319 22.1749C69.4323 22.4532 69.5669 22.6836 69.7357 22.8661C69.9091 23.0486 70.1098 23.1832 70.338 23.2699C70.5661 23.352 70.8079 23.3931 71.0634 23.3931C71.3371 23.3931 71.5858 23.3497 71.8094 23.263C72.0375 23.1763 72.2337 23.044 72.3979 22.8661C72.5622 22.6836 72.6899 22.4532 72.7812 22.1749C72.8724 21.8966 72.9181 21.5635 72.9181 21.1757C72.9181 20.8061 72.8724 20.4845 72.7812 20.2107C72.6945 19.9324 72.569 19.6997 72.4048 19.5127C72.2451 19.3256 72.0512 19.1864 71.8231 19.0952C71.5949 18.9994 71.3394 18.9515 71.0566 18.9515C70.7737 18.9515 70.5159 18.9994 70.2832 19.0952C70.0551 19.191 69.8589 19.3324 69.6946 19.5195C69.5304 19.7066 69.4026 19.9393 69.3114 20.2176C69.2247 20.4913 69.1814 20.8061 69.1814 21.162ZM81.9586 24.6797V21.0457C81.9586 20.7628 81.9381 20.4982 81.897 20.2518C81.856 20.0008 81.7784 19.7818 81.6644 19.5948C81.5549 19.4077 81.402 19.2617 81.2058 19.1568C81.0142 19.0473 80.7655 18.9925 80.4599 18.9925C80.2226 18.9925 79.9899 19.0473 79.7618 19.1568C79.5382 19.2663 79.3375 19.426 79.1595 19.6358C78.9816 19.8457 78.8379 20.1012 78.7284 20.4023C78.6235 20.6989 78.571 21.0343 78.571 21.4084V24.6797H76.4768V17.658H77.9345L78.2835 19.41C78.4113 19.0815 78.5801 18.7941 78.79 18.5477C78.9999 18.3013 79.2348 18.096 79.4949 17.9318C79.755 17.7675 80.0355 17.6443 80.3367 17.5622C80.6378 17.4755 80.9458 17.4322 81.2606 17.4322C81.7944 17.4322 82.2392 17.5234 82.5951 17.7059C82.9555 17.8838 83.243 18.1279 83.4574 18.4382C83.6764 18.7439 83.8293 19.102 83.916 19.5127C84.0072 19.9233 84.0528 20.359 84.0528 20.8198V24.6797H81.9586Z" fill="black"/>
<g clip-path="url(#clip1_279_147121)">
<path d="M195.494 20.6797H205.13" stroke="black" stroke-width="1.168" stroke-linecap="round" stroke-linejoin="round"/>
<path d="M195.494 17.1758H205.13" stroke="black" stroke-width="1.168" stroke-linecap="round" stroke-linejoin="round"/>
<path d="M195.494 24.1836H205.13" stroke="black" stroke-width="1.168" stroke-linecap="round" stroke-linejoin="round"/>
</g>
<path d="M71.2963 473.125C60.8243 465.082 53.1346 453.96 49.307 441.323C45.4794 428.686 45.7062 415.167 49.9556 402.665C54.205 390.163 62.2636 379.307 72.9995 371.619C83.7354 363.932 96.6095 359.801 109.814 359.805C123.018 359.81 135.889 363.95 146.62 371.645C157.35 379.34 165.401 390.202 169.642 402.707C173.883 415.212 174.1 428.731 170.264 441.365C166.427 454 158.73 465.116 148.252 473.151" stroke="url(#paint0_radial_279_147121)" stroke-opacity="0.3" stroke-width="37.4508"/>
<path d="M106.274 367.244V366.97C106.274 366.748 106.363 366.515 106.54 366.27C106.718 366.037 106.931 365.813 107.181 365.596C107.392 365.419 107.711 365.172 108.138 364.856L108.238 364.781C108.654 364.453 108.937 364.159 109.087 363.899C109.242 363.638 109.32 363.371 109.32 363.1C109.32 362.722 109.223 362.453 109.029 362.292C108.84 362.126 108.563 362.043 108.196 362.043C107.869 362.043 107.608 362.131 107.414 362.309C107.225 362.487 107.131 362.731 107.131 363.041C107.131 363.169 107.148 363.302 107.181 363.441L106.565 363.557C106.51 363.358 106.482 363.163 106.482 362.975C106.482 362.514 106.64 362.145 106.956 361.868C107.273 361.585 107.705 361.443 108.255 361.443C108.848 361.443 109.298 361.582 109.603 361.86C109.914 362.137 110.069 362.536 110.069 363.058C110.069 363.796 109.65 364.481 108.812 365.114C108.307 365.502 107.936 365.804 107.697 366.021C107.458 366.237 107.303 366.437 107.231 366.62H110.111V367.244H106.274ZM110.989 364.431C110.989 362.456 111.708 361.468 113.145 361.468C114.576 361.468 115.292 362.459 115.292 364.439C115.292 366.415 114.573 367.402 113.136 367.402C111.705 367.402 110.989 366.412 110.989 364.431ZM114.51 364.431C114.51 363.654 114.401 363.072 114.185 362.683C113.969 362.295 113.619 362.101 113.136 362.101C112.654 362.101 112.304 362.298 112.088 362.692C111.877 363.08 111.771 363.663 111.771 364.439C111.771 365.216 111.877 365.799 112.088 366.187C112.304 366.57 112.654 366.761 113.136 366.761C113.619 366.761 113.969 366.567 114.185 366.179C114.401 365.785 114.51 365.202 114.51 364.431Z" fill="black"/>
<path d="M70.1463 378.688V373.536C70.3571 373.442 70.4625 373.272 70.4625 373.028H70.9119V378.688H70.1463ZM72.0436 377.289L72.7343 377.14C72.812 377.872 73.2115 378.238 73.9328 378.238C74.7095 378.238 75.0979 377.775 75.0979 376.848C75.0979 375.972 74.7206 375.533 73.966 375.533C73.4168 375.533 73.0256 375.761 72.7926 376.216L72.1268 376.182L72.3598 373.028H75.5639V373.636H72.9507L72.8092 375.583C73.1199 375.173 73.5721 374.967 74.1658 374.967C74.7151 374.967 75.1312 375.131 75.4141 375.458C75.7026 375.78 75.8469 376.249 75.8469 376.865C75.8469 377.497 75.6832 377.98 75.3559 378.313C75.0341 378.646 74.5597 378.812 73.9328 378.812C72.7843 378.812 72.1545 378.305 72.0436 377.289Z" fill="black"/>
<path d="M140.674 377.115L141.356 376.973C141.373 377.384 141.492 377.694 141.714 377.905C141.936 378.116 142.239 378.221 142.621 378.221C143.026 378.221 143.326 378.113 143.52 377.897C143.714 377.675 143.811 377.398 143.811 377.065C143.811 376.71 143.706 376.446 143.495 376.274C143.29 376.102 143.01 376.016 142.655 376.016H142.122V375.483H142.646C142.979 375.483 143.237 375.395 143.42 375.217C143.609 375.04 143.703 374.79 143.703 374.468C143.703 374.141 143.609 373.894 143.42 373.727C143.232 373.555 142.96 373.469 142.605 373.469C141.883 373.469 141.473 373.866 141.373 374.659L140.707 374.518C140.752 373.985 140.937 373.578 141.265 373.295C141.598 373.012 142.05 372.87 142.621 372.87C143.204 372.87 143.653 373.003 143.97 373.27C144.291 373.536 144.452 373.91 144.452 374.393C144.452 374.732 144.364 375.015 144.186 375.242C144.014 375.47 143.767 375.628 143.445 375.716C143.811 375.777 144.092 375.927 144.286 376.166C144.48 376.404 144.577 376.712 144.577 377.09C144.577 377.628 144.405 378.049 144.061 378.355C143.723 378.66 143.24 378.812 142.613 378.812C142.003 378.812 141.531 378.665 141.198 378.371C140.871 378.077 140.696 377.658 140.674 377.115ZM145.413 375.875C145.413 373.899 146.132 372.912 147.569 372.912C149 372.912 149.716 373.902 149.716 375.883C149.716 377.858 148.997 378.846 147.56 378.846C146.129 378.846 145.413 377.855 145.413 375.875ZM148.934 375.875C148.934 375.098 148.825 374.515 148.609 374.127C148.393 373.738 148.043 373.544 147.56 373.544C147.078 373.544 146.728 373.741 146.512 374.135C146.301 374.524 146.195 375.106 146.195 375.883C146.195 376.66 146.301 377.242 146.512 377.631C146.728 378.013 147.078 378.205 147.56 378.205C148.043 378.205 148.393 378.011 148.609 377.622C148.825 377.228 148.934 376.646 148.934 375.875Z" fill="black"/>
<g filter="url(#filter0_d_279_147121)">
<path d="M64.1676 482.406C51.7558 472.873 42.6418 459.692 38.1056 444.714C33.5693 429.735 33.8388 413.712 38.8761 398.895C43.9134 384.078 53.4655 371.21 66.1909 362.1C78.9162 352.99 94.1755 348.095 109.826 348.102C125.476 348.109 140.731 353.018 153.448 362.14C166.165 371.262 175.705 384.138 180.729 398.959C185.753 413.781 186.008 429.805 181.458 444.779C176.908 459.753 167.782 472.926 155.362 482.448" stroke="url(#paint1_radial_279_147121)" stroke-width="14.044"/>
</g>
<path d="M60.176 76.415C60.1135 75.54 59.9494 74.8018 59.6838 74.2002C59.4181 73.5908 59.0861 73.0986 58.6877 72.7236C58.2892 72.3486 57.8361 72.0791 57.3283 71.915C56.8205 71.7432 56.2971 71.6572 55.758 71.6572C55.0392 71.6572 54.3947 71.7822 53.8244 72.0322C53.2619 72.2744 52.7814 72.6377 52.383 73.1221C51.9846 73.6064 51.6799 74.208 51.4689 74.9268C51.258 75.6455 51.1525 76.4814 51.1525 77.4346C51.1525 78.3486 51.2619 79.1533 51.4806 79.8486C51.7072 80.5361 52.0314 81.1143 52.4533 81.583C52.8752 82.0518 53.3869 82.4072 53.9885 82.6494C54.59 82.8838 55.2697 83.001 56.0275 83.001C56.5431 83.001 57.0353 82.9346 57.5041 82.8018C57.9728 82.6689 58.3986 82.4658 58.7814 82.1924C59.1721 81.9189 59.508 81.5752 59.7892 81.1611C60.0783 80.7471 60.3049 80.2588 60.4689 79.6963L63.8556 80.6807C63.6369 81.4775 63.301 82.2119 62.8478 82.8838C62.3947 83.5557 61.8283 84.1377 61.1486 84.6299C60.4767 85.1143 59.6955 85.4932 58.8049 85.7666C57.9221 86.04 56.9416 86.1768 55.8635 86.1768C54.5041 86.1768 53.2853 85.9775 52.2072 85.5791C51.1369 85.1729 50.2306 84.5908 49.4885 83.833C48.7463 83.0752 48.1799 82.1533 47.7892 81.0674C47.3986 79.9736 47.2033 78.7354 47.2033 77.3525C47.2033 75.9619 47.3947 74.7197 47.7775 73.626C48.1681 72.5244 48.7306 71.5947 49.465 70.8369C50.1994 70.0713 51.0939 69.4893 52.1486 69.0908C53.2111 68.6846 54.4181 68.4814 55.7697 68.4814C56.8713 68.4814 57.8986 68.6416 58.8517 68.9619C59.8049 69.2822 60.6369 69.751 61.3478 70.3682C62.0666 70.9854 62.6369 71.751 63.0588 72.665C63.4885 73.5713 63.7267 74.6143 63.7736 75.7939L60.2814 76.4854L60.176 76.415ZM66.1877 73.6963H69.7736V78.3252H72.3049V78.3135L72.926 77.1533L74.7072 73.6963H78.2346L75.8556 78.3018L75.0939 79.708L75.8674 81.1143L78.2463 85.7197H74.7541L72.926 82.251L72.3049 81.0791H69.7736V85.7197H66.1877V73.6963ZM86.4025 86.0947C85.4025 86.0947 84.4767 85.9541 83.6252 85.6729C82.7814 85.3838 82.051 84.9697 81.4338 84.4307C80.8166 83.8838 80.3361 83.2158 79.9924 82.4268C79.6486 81.6299 79.4767 80.7236 79.4767 79.708C79.4767 78.6924 79.6486 77.79 79.9924 77.001C80.3439 76.2041 80.8283 75.5322 81.4455 74.9854C82.0627 74.4385 82.7931 74.0244 83.6369 73.7432C84.4806 73.4541 85.4025 73.3096 86.4025 73.3096C87.3947 73.3096 88.3127 73.4541 89.1564 73.7432C90.008 74.0244 90.7385 74.4385 91.3478 74.9854C91.965 75.5322 92.4455 76.2002 92.7892 76.9893C93.1408 77.7783 93.3166 78.6768 93.3166 79.6846C93.3166 80.708 93.1447 81.6182 92.801 82.415C92.4572 83.2041 91.9767 83.8721 91.3596 84.4189C90.7502 84.9658 90.0197 85.3838 89.1681 85.6729C88.3244 85.9541 87.4025 86.0947 86.4025 86.0947ZM86.4025 83.5049C86.8791 83.5049 87.3127 83.4307 87.7033 83.2822C88.1017 83.126 88.4416 82.8916 88.7228 82.5791C89.0119 82.2666 89.2346 81.8721 89.3908 81.3955C89.5471 80.9189 89.6252 80.3525 89.6252 79.6963C89.6252 79.0479 89.5471 78.4854 89.3908 78.0088C89.2346 77.5322 89.0119 77.1377 88.7228 76.8252C88.4416 76.5127 88.1017 76.2822 87.7033 76.1338C87.3127 75.9775 86.8791 75.8994 86.4025 75.8994C85.9181 75.8994 85.4767 75.9775 85.0783 76.1338C84.6877 76.2822 84.3517 76.5127 84.0705 76.8252C83.7892 77.1377 83.5705 77.5361 83.4142 78.0205C83.258 78.4971 83.1799 79.0596 83.1799 79.708C83.1799 80.3564 83.258 80.9189 83.4142 81.3955C83.5705 81.8721 83.7892 82.2666 84.0705 82.5791C84.3517 82.8916 84.6877 83.126 85.0783 83.2822C85.4767 83.4307 85.9181 83.5049 86.4025 83.5049ZM98.133 73.6963L98.6252 76.1572C98.8439 75.7119 99.1213 75.3135 99.4572 74.9619C99.801 74.6104 100.192 74.3135 100.629 74.0713C101.074 73.8291 101.555 73.6455 102.07 73.5205C102.594 73.3877 103.145 73.3213 103.723 73.3213C104.574 73.3213 105.344 73.4775 106.031 73.79C106.719 74.0947 107.305 74.5283 107.789 75.0908C108.274 75.6455 108.645 76.3174 108.903 77.1064C109.168 77.8877 109.301 78.7549 109.301 79.708C109.301 80.708 109.168 81.6025 108.903 82.3916C108.637 83.1807 108.262 83.8525 107.778 84.4072C107.293 84.9541 106.703 85.376 106.008 85.6729C105.32 85.9619 104.555 86.1064 103.711 86.1064C103.133 86.1064 102.602 86.0439 102.117 85.9189C101.641 85.7939 101.211 85.626 100.828 85.415C100.453 85.2041 100.129 84.9619 99.8556 84.6885C99.5822 84.4072 99.3713 84.1143 99.2228 83.8096V89.9502H95.6252V73.6963H98.133ZM99.2111 79.6963C99.2111 80.3682 99.2971 80.9463 99.4689 81.4307C99.6408 81.9072 99.8713 82.3018 100.16 82.6143C100.457 82.9268 100.801 83.1572 101.192 83.3057C101.582 83.4463 101.996 83.5166 102.434 83.5166C102.903 83.5166 103.328 83.4424 103.711 83.2939C104.102 83.1455 104.438 82.9189 104.719 82.6143C105 82.3018 105.219 81.9072 105.375 81.4307C105.531 80.9541 105.61 80.3838 105.61 79.7197C105.61 79.0869 105.531 78.5361 105.375 78.0674C105.227 77.5908 105.012 77.1924 104.731 76.8721C104.457 76.5518 104.125 76.3135 103.735 76.1572C103.344 75.9932 102.906 75.9111 102.422 75.9111C101.938 75.9111 101.496 75.9932 101.098 76.1572C100.707 76.3213 100.371 76.5635 100.09 76.8838C99.8088 77.2041 99.59 77.6025 99.4338 78.0791C99.2853 78.5479 99.2111 79.0869 99.2111 79.6963ZM117.504 86.0947C116.504 86.0947 115.578 85.9541 114.727 85.6729C113.883 85.3838 113.153 84.9697 112.535 84.4307C111.918 83.8838 111.438 83.2158 111.094 82.4268C110.75 81.6299 110.578 80.7236 110.578 79.708C110.578 78.6924 110.75 77.79 111.094 77.001C111.445 76.2041 111.93 75.5322 112.547 74.9854C113.164 74.4385 113.895 74.0244 114.738 73.7432C115.582 73.4541 116.504 73.3096 117.504 73.3096C118.496 73.3096 119.414 73.4541 120.258 73.7432C121.11 74.0244 121.84 74.4385 122.449 74.9854C123.067 75.5322 123.547 76.2002 123.891 76.9893C124.242 77.7783 124.418 78.6768 124.418 79.6846C124.418 80.708 124.246 81.6182 123.903 82.415C123.559 83.2041 123.078 83.8721 122.461 84.4189C121.852 84.9658 121.121 85.3838 120.27 85.6729C119.426 85.9541 118.504 86.0947 117.504 86.0947ZM117.504 83.5049C117.981 83.5049 118.414 83.4307 118.805 83.2822C119.203 83.126 119.543 82.8916 119.824 82.5791C120.113 82.2666 120.336 81.8721 120.492 81.3955C120.649 80.9189 120.727 80.3525 120.727 79.6963C120.727 79.0479 120.649 78.4854 120.492 78.0088C120.336 77.5322 120.113 77.1377 119.824 76.8252C119.543 76.5127 119.203 76.2822 118.805 76.1338C118.414 75.9775 117.981 75.8994 117.504 75.8994C117.02 75.8994 116.578 75.9775 116.18 76.1338C115.789 76.2822 115.453 76.5127 115.172 76.8252C114.891 77.1377 114.672 77.5361 114.516 78.0205C114.36 78.4971 114.281 79.0596 114.281 79.708C114.281 80.3564 114.36 80.9189 114.516 81.3955C114.672 81.8721 114.891 82.2666 115.172 82.5791C115.453 82.8916 115.789 83.126 116.18 83.2822C116.578 83.4307 117.02 83.5049 117.504 83.5049ZM135.692 81.501L138.281 82.5908C138.094 83.0752 137.828 83.5322 137.485 83.9619C137.141 84.3838 136.723 84.7549 136.231 85.0752C135.738 85.3877 135.172 85.6338 134.531 85.8135C133.891 86.001 133.18 86.0947 132.399 86.0947C131.391 86.0947 130.469 85.9541 129.633 85.6729C128.797 85.3838 128.078 84.9658 127.477 84.4189C126.883 83.8721 126.422 83.2041 126.094 82.415C125.766 81.626 125.602 80.7275 125.602 79.7197C125.602 78.7041 125.758 77.7979 126.07 77.001C126.391 76.2041 126.84 75.5322 127.418 74.9854C127.996 74.4385 128.692 74.0244 129.504 73.7432C130.324 73.4541 131.235 73.3096 132.235 73.3096C133.039 73.3096 133.793 73.4268 134.496 73.6611C135.199 73.8877 135.817 74.2158 136.348 74.6455C136.887 75.0674 137.32 75.5869 137.649 76.2041C137.985 76.8213 138.184 77.5166 138.246 78.29L135.387 78.8994L135.258 78.8525C135.164 77.915 134.871 77.1885 134.379 76.6729C133.895 76.1572 133.215 75.8994 132.34 75.8994C131.871 75.8994 131.449 75.9854 131.074 76.1572C130.699 76.3291 130.379 76.5791 130.113 76.9072C129.856 77.2275 129.656 77.6221 129.516 78.0908C129.375 78.5596 129.305 79.0908 129.305 79.6846C129.305 80.3408 129.379 80.9111 129.528 81.3955C129.684 81.8721 129.903 82.2666 130.184 82.5791C130.465 82.8916 130.809 83.126 131.215 83.2822C131.621 83.4307 132.078 83.5049 132.586 83.5049C133.313 83.5049 133.938 83.3291 134.461 82.9775C134.985 82.6182 135.367 82.1299 135.61 81.5127L135.692 81.501ZM143.59 85.7197V76.3447H139.113V73.6963H151.641V76.3447H147.164V85.7197H143.59ZM157.113 73.6963V77.4346H160.242C161.016 77.4346 161.731 77.5127 162.387 77.6689C163.043 77.8252 163.61 78.0713 164.086 78.4072C164.563 78.7432 164.934 79.1768 165.199 79.708C165.473 80.2314 165.61 80.8643 165.61 81.6064C165.61 82.4346 165.442 83.1143 165.106 83.6455C164.778 84.1768 164.336 84.5986 163.781 84.9111C163.235 85.2158 162.598 85.4268 161.871 85.5439C161.153 85.6611 160.403 85.7197 159.621 85.7197H153.61V73.6963H157.113ZM157.113 79.8955V83.2471H159.949C160.184 83.2471 160.418 83.2275 160.653 83.1885C160.887 83.1416 161.098 83.0596 161.285 82.9424C161.473 82.8252 161.625 82.6572 161.742 82.4385C161.86 82.2197 161.918 81.9346 161.918 81.583C161.918 80.9814 161.754 80.5518 161.426 80.2939C161.098 80.0283 160.617 79.8955 159.985 79.8955H157.113ZM43.1135 114.72V102.696H46.5939V109.259L46.465 110.688L47.2267 109.517L52.3713 102.696H56.0158V114.72H52.5236V108.146L52.6642 106.751L51.8908 107.899L46.6877 114.72H43.1135ZM74.9416 110.501L77.5314 111.591C77.3439 112.075 77.0783 112.532 76.7346 112.962C76.3908 113.384 75.9728 113.755 75.4806 114.075C74.9885 114.388 74.4221 114.634 73.7814 114.813C73.1408 115.001 72.4299 115.095 71.6486 115.095C70.6408 115.095 69.7189 114.954 68.883 114.673C68.0471 114.384 67.3283 113.966 66.7267 113.419C66.133 112.872 65.6721 112.204 65.3439 111.415C65.0158 110.626 64.8517 109.728 64.8517 108.72C64.8517 107.704 65.008 106.798 65.3205 106.001C65.6408 105.204 66.09 104.532 66.6681 103.985C67.2463 103.438 67.9416 103.024 68.7541 102.743C69.5744 102.454 70.4846 102.31 71.4846 102.31C72.2892 102.31 73.0431 102.427 73.7463 102.661C74.4494 102.888 75.0666 103.216 75.5978 103.646C76.1369 104.067 76.5705 104.587 76.8986 105.204C77.2346 105.821 77.4338 106.517 77.4963 107.29L74.6369 107.899L74.508 107.853C74.4142 106.915 74.1213 106.188 73.6291 105.673C73.1447 105.157 72.465 104.899 71.59 104.899C71.1213 104.899 70.6994 104.985 70.3244 105.157C69.9494 105.329 69.6291 105.579 69.3635 105.907C69.1056 106.228 68.9064 106.622 68.7658 107.091C68.6252 107.56 68.5549 108.091 68.5549 108.685C68.5549 109.341 68.6291 109.911 68.7775 110.396C68.9338 110.872 69.1525 111.267 69.4338 111.579C69.715 111.892 70.0588 112.126 70.465 112.282C70.8713 112.431 71.3283 112.505 71.8361 112.505C72.5627 112.505 73.1877 112.329 73.7111 111.978C74.2346 111.618 74.6174 111.13 74.8596 110.513L74.9416 110.501ZM79.8049 114.72V102.696H86.9181C87.6525 102.696 88.3127 102.755 88.8986 102.872C89.4846 102.989 89.9806 103.173 90.3869 103.423C90.801 103.665 91.1174 103.978 91.3361 104.36C91.5627 104.743 91.676 105.204 91.676 105.743C91.676 106.181 91.5939 106.556 91.4299 106.868C91.2658 107.181 91.0392 107.442 90.7502 107.653C90.4689 107.864 90.133 108.028 89.7424 108.146C89.3596 108.263 88.9455 108.345 88.5002 108.392C88.9767 108.431 89.4299 108.513 89.8596 108.638C90.2971 108.763 90.676 108.938 90.9963 109.165C91.3166 109.392 91.5705 109.673 91.758 110.009C91.9533 110.345 92.051 110.739 92.051 111.192C92.051 111.708 91.9494 112.185 91.7463 112.622C91.551 113.052 91.2463 113.423 90.8322 113.735C90.4181 114.048 89.8908 114.29 89.2502 114.462C88.6096 114.634 87.8478 114.72 86.965 114.72H79.8049ZM86.3088 112.364C86.6369 112.364 86.9299 112.345 87.1877 112.306C87.4533 112.267 87.676 112.196 87.8556 112.095C88.0431 111.993 88.1838 111.853 88.2775 111.673C88.3791 111.493 88.4299 111.259 88.4299 110.97C88.4299 110.423 88.2502 110.044 87.8908 109.833C87.5392 109.622 87.0588 109.517 86.4494 109.517H83.2736V112.364H86.3088ZM86.3439 107.642C86.5939 107.642 86.8244 107.618 87.0353 107.571C87.2463 107.524 87.426 107.45 87.5744 107.349C87.7306 107.239 87.8517 107.103 87.9377 106.938C88.0236 106.767 88.0666 106.556 88.0666 106.306C88.0666 106.063 88.0197 105.864 87.926 105.708C87.84 105.544 87.7189 105.415 87.5627 105.321C87.4064 105.22 87.2189 105.149 87.0002 105.11C86.7892 105.071 86.5549 105.052 86.2971 105.052H83.2736V107.642H86.3439ZM100.137 115.095C99.1369 115.095 98.2111 114.954 97.3596 114.673C96.5158 114.384 95.7853 113.97 95.1681 113.431C94.551 112.884 94.0705 112.216 93.7267 111.427C93.383 110.63 93.2111 109.724 93.2111 108.708C93.2111 107.692 93.383 106.79 93.7267 106.001C94.0783 105.204 94.5627 104.532 95.1799 103.985C95.7971 103.438 96.5275 103.024 97.3713 102.743C98.215 102.454 99.1369 102.31 100.137 102.31C101.129 102.31 102.047 102.454 102.891 102.743C103.742 103.024 104.473 103.438 105.082 103.985C105.699 104.532 106.18 105.2 106.524 105.989C106.875 106.778 107.051 107.677 107.051 108.685C107.051 109.708 106.879 110.618 106.535 111.415C106.192 112.204 105.711 112.872 105.094 113.419C104.485 113.966 103.754 114.384 102.903 114.673C102.059 114.954 101.137 115.095 100.137 115.095ZM100.137 112.505C100.613 112.505 101.047 112.431 101.438 112.282C101.836 112.126 102.176 111.892 102.457 111.579C102.746 111.267 102.969 110.872 103.125 110.396C103.281 109.919 103.36 109.353 103.36 108.696C103.36 108.048 103.281 107.485 103.125 107.009C102.969 106.532 102.746 106.138 102.457 105.825C102.176 105.513 101.836 105.282 101.438 105.134C101.047 104.978 100.613 104.899 100.137 104.899C99.6525 104.899 99.2111 104.978 98.8127 105.134C98.4221 105.282 98.0861 105.513 97.8049 105.825C97.5236 106.138 97.3049 106.536 97.1486 107.021C96.9924 107.497 96.9142 108.06 96.9142 108.708C96.9142 109.356 96.9924 109.919 97.1486 110.396C97.3049 110.872 97.5236 111.267 97.8049 111.579C98.0861 111.892 98.4221 112.126 98.8127 112.282C99.2111 112.431 99.6525 112.505 100.137 112.505ZM120.281 99.7197L118.008 99.708C116.977 99.708 116.082 99.8252 115.324 100.06C114.574 100.286 113.942 100.618 113.426 101.056C112.91 101.493 112.5 102.024 112.195 102.649C111.899 103.274 111.684 103.978 111.551 104.759C111.746 104.329 112 103.958 112.313 103.646C112.625 103.333 112.969 103.079 113.344 102.884C113.719 102.681 114.117 102.532 114.539 102.438C114.961 102.345 115.383 102.298 115.805 102.298C116.789 102.298 117.672 102.458 118.453 102.778C119.235 103.091 119.895 103.528 120.434 104.091C120.973 104.653 121.383 105.325 121.664 106.106C121.953 106.88 122.098 107.728 122.098 108.649C122.098 109.649 121.942 110.548 121.629 111.345C121.324 112.134 120.875 112.81 120.281 113.372C119.688 113.927 118.961 114.353 118.102 114.649C117.25 114.946 116.281 115.095 115.195 115.095C114.078 115.095 113.086 114.946 112.219 114.649C111.36 114.353 110.633 113.911 110.039 113.325C109.453 112.731 109.008 111.997 108.703 111.122C108.399 110.247 108.246 109.235 108.246 108.087C108.246 107.063 108.301 106.083 108.41 105.146C108.52 104.208 108.707 103.337 108.973 102.532C109.246 101.72 109.613 100.985 110.074 100.329C110.535 99.665 111.113 99.1025 111.809 98.6416C112.512 98.1729 113.348 97.8135 114.317 97.5635C115.293 97.3057 116.426 97.1768 117.715 97.1768H120.281V99.7197ZM115.219 112.622C116.203 112.622 116.977 112.294 117.539 111.638C118.11 110.974 118.395 109.978 118.395 108.649C118.395 108.048 118.324 107.509 118.184 107.032C118.051 106.556 117.848 106.153 117.574 105.825C117.309 105.489 116.973 105.235 116.567 105.063C116.16 104.884 115.688 104.794 115.149 104.794C114.61 104.794 114.137 104.888 113.731 105.075C113.332 105.255 113 105.517 112.735 105.86C112.477 106.196 112.281 106.61 112.149 107.103C112.024 107.587 111.961 108.138 111.961 108.755C111.961 109.317 112.024 109.837 112.149 110.313C112.281 110.79 112.481 111.2 112.746 111.544C113.012 111.88 113.348 112.146 113.754 112.341C114.168 112.528 114.656 112.622 115.219 112.622ZM130.184 115.095C129.184 115.095 128.258 114.954 127.406 114.673C126.563 114.384 125.832 113.97 125.215 113.431C124.598 112.884 124.117 112.216 123.774 111.427C123.43 110.63 123.258 109.724 123.258 108.708C123.258 107.692 123.43 106.79 123.774 106.001C124.125 105.204 124.61 104.532 125.227 103.985C125.844 103.438 126.574 103.024 127.418 102.743C128.262 102.454 129.184 102.31 130.184 102.31C131.176 102.31 132.094 102.454 132.938 102.743C133.789 103.024 134.52 103.438 135.129 103.985C135.746 104.532 136.227 105.2 136.57 105.989C136.922 106.778 137.098 107.677 137.098 108.685C137.098 109.708 136.926 110.618 136.582 111.415C136.238 112.204 135.758 112.872 135.141 113.419C134.531 113.966 133.801 114.384 132.949 114.673C132.106 114.954 131.184 115.095 130.184 115.095ZM130.184 112.505C130.66 112.505 131.094 112.431 131.485 112.282C131.883 112.126 132.223 111.892 132.504 111.579C132.793 111.267 133.016 110.872 133.172 110.396C133.328 109.919 133.406 109.353 133.406 108.696C133.406 108.048 133.328 107.485 133.172 107.009C133.016 106.532 132.793 106.138 132.504 105.825C132.223 105.513 131.883 105.282 131.485 105.134C131.094 104.978 130.66 104.899 130.184 104.899C129.699 104.899 129.258 104.978 128.86 105.134C128.469 105.282 128.133 105.513 127.852 105.825C127.57 106.138 127.352 106.536 127.195 107.021C127.039 107.497 126.961 108.06 126.961 108.708C126.961 109.356 127.039 109.919 127.195 110.396C127.352 110.872 127.57 111.267 127.852 111.579C128.133 111.892 128.469 112.126 128.86 112.282C129.258 112.431 129.699 112.505 130.184 112.505ZM151.899 116.853V114.72H141.399V116.853H138.153V112.06H139.313C139.617 112.06 139.887 112.032 140.121 111.978C140.356 111.915 140.559 111.81 140.731 111.661C140.903 111.513 141.047 111.31 141.164 111.052C141.289 110.786 141.387 110.45 141.457 110.044C141.528 109.638 141.578 109.149 141.61 108.579C141.641 108.001 141.656 107.325 141.656 106.552V102.696H153.059V112.06H155.145V116.853H151.899ZM145.242 105.345V106.599C145.242 107.966 145.125 109.087 144.891 109.962C144.664 110.837 144.348 111.536 143.942 112.06H149.461V105.345H145.242ZM170.59 114.556C170.52 114.595 170.41 114.646 170.262 114.708C170.121 114.771 169.953 114.829 169.758 114.884C169.563 114.946 169.348 114.997 169.113 115.036C168.887 115.075 168.656 115.095 168.422 115.095C168.024 115.095 167.668 115.052 167.356 114.966C167.043 114.88 166.778 114.743 166.559 114.556C166.348 114.368 166.184 114.122 166.067 113.817C165.957 113.505 165.903 113.126 165.903 112.681C165.903 112.485 165.914 112.255 165.938 111.989C165.969 111.724 166.008 111.415 166.055 111.063C165.899 111.798 165.645 112.423 165.293 112.938C164.949 113.446 164.535 113.86 164.051 114.181C163.567 114.501 163.028 114.731 162.434 114.872C161.848 115.021 161.238 115.095 160.606 115.095C159.91 115.095 159.289 115.013 158.742 114.849C158.203 114.685 157.746 114.45 157.371 114.146C157.004 113.841 156.723 113.478 156.528 113.056C156.332 112.626 156.235 112.146 156.235 111.614C156.235 111.091 156.344 110.638 156.563 110.255C156.781 109.864 157.09 109.532 157.488 109.259C157.887 108.978 158.363 108.751 158.918 108.579C159.473 108.399 160.086 108.263 160.758 108.169C161.438 108.067 162.164 108.001 162.938 107.97C163.711 107.931 164.512 107.911 165.34 107.911V107.091C165.34 106.739 165.289 106.419 165.188 106.13C165.094 105.833 164.938 105.579 164.719 105.368C164.508 105.157 164.231 104.993 163.887 104.876C163.543 104.759 163.125 104.7 162.633 104.7C162.297 104.7 161.973 104.739 161.66 104.817C161.348 104.896 161.063 105.021 160.805 105.192C160.547 105.356 160.328 105.567 160.149 105.825C159.969 106.083 159.844 106.392 159.774 106.751L156.973 106.224C157.113 105.638 157.34 105.106 157.653 104.63C157.965 104.146 158.367 103.731 158.86 103.388C159.36 103.044 159.949 102.778 160.629 102.591C161.317 102.403 162.106 102.31 162.996 102.31C165.012 102.31 166.504 102.751 167.473 103.634C168.442 104.517 168.926 105.872 168.926 107.7V111.907C168.926 112.274 168.981 112.548 169.09 112.728C169.207 112.899 169.403 112.985 169.676 112.985C169.863 112.985 170.039 112.966 170.203 112.927C170.375 112.88 170.504 112.837 170.59 112.798V114.556ZM165.352 109.481C164.563 109.505 163.836 109.548 163.172 109.61C162.508 109.665 161.93 109.763 161.438 109.903C160.953 110.044 160.574 110.239 160.301 110.489C160.028 110.739 159.891 111.067 159.891 111.474C159.891 111.677 159.926 111.868 159.996 112.048C160.067 112.22 160.176 112.372 160.324 112.505C160.481 112.638 160.684 112.743 160.934 112.821C161.184 112.899 161.485 112.938 161.836 112.938C162.313 112.938 162.766 112.845 163.195 112.657C163.625 112.462 163.996 112.212 164.309 111.907C164.629 111.595 164.883 111.239 165.07 110.841C165.258 110.435 165.352 110.021 165.352 109.599V109.481ZM29.0158 143.72V131.696H36.1291C36.8635 131.696 37.5236 131.755 38.1096 131.872C38.6955 131.989 39.1916 132.173 39.5978 132.423C40.0119 132.665 40.3283 132.978 40.5471 133.36C40.7736 133.743 40.8869 134.204 40.8869 134.743C40.8869 135.181 40.8049 135.556 40.6408 135.868C40.4767 136.181 40.2502 136.442 39.9611 136.653C39.6799 136.864 39.3439 137.028 38.9533 137.146C38.5705 137.263 38.1564 137.345 37.7111 137.392C38.1877 137.431 38.6408 137.513 39.0705 137.638C39.508 137.763 39.8869 137.938 40.2072 138.165C40.5275 138.392 40.7814 138.673 40.9689 139.009C41.1642 139.345 41.2619 139.739 41.2619 140.192C41.2619 140.708 41.1603 141.185 40.9572 141.622C40.7619 142.052 40.4572 142.423 40.0431 142.735C39.6291 143.048 39.1017 143.29 38.4611 143.462C37.8205 143.634 37.0588 143.72 36.176 143.72H29.0158ZM35.5197 141.364C35.8478 141.364 36.1408 141.345 36.3986 141.306C36.6642 141.267 36.8869 141.196 37.0666 141.095C37.2541 140.993 37.3947 140.853 37.4885 140.673C37.59 140.493 37.6408 140.259 37.6408 139.97C37.6408 139.423 37.4611 139.044 37.1017 138.833C36.7502 138.622 36.2697 138.517 35.6603 138.517H32.4846V141.364H35.5197ZM35.5549 136.642C35.8049 136.642 36.0353 136.618 36.2463 136.571C36.4572 136.524 36.6369 136.45 36.7853 136.349C36.9416 136.239 37.0627 136.103 37.1486 135.938C37.2346 135.767 37.2775 135.556 37.2775 135.306C37.2775 135.063 37.2306 134.864 37.1369 134.708C37.051 134.544 36.9299 134.415 36.7736 134.321C36.6174 134.22 36.4299 134.149 36.2111 134.11C36.0002 134.071 35.7658 134.052 35.508 134.052H32.4846V136.642H35.5549ZM55.8869 144.095C54.8869 144.095 53.9611 143.954 53.1096 143.673C52.2658 143.384 51.5353 142.97 50.9181 142.431C50.301 141.884 49.8205 141.216 49.4767 140.427C49.133 139.63 48.9611 138.724 48.9611 137.708C48.9611 136.692 49.133 135.79 49.4767 135.001C49.8283 134.204 50.3127 133.532 50.9299 132.985C51.5471 132.438 52.2775 132.024 53.1213 131.743C53.965 131.454 54.8869 131.31 55.8869 131.31C56.8791 131.31 57.7971 131.454 58.6408 131.743C59.4924 132.024 60.2228 132.438 60.8322 132.985C61.4494 133.532 61.9299 134.2 62.2736 134.989C62.6252 135.778 62.801 136.677 62.801 137.685C62.801 138.708 62.6291 139.618 62.2853 140.415C61.9416 141.204 61.4611 141.872 60.8439 142.419C60.2346 142.966 59.5041 143.384 58.6525 143.673C57.8088 143.954 56.8869 144.095 55.8869 144.095ZM55.8869 141.505C56.3635 141.505 56.7971 141.431 57.1877 141.282C57.5861 141.126 57.926 140.892 58.2072 140.579C58.4963 140.267 58.7189 139.872 58.8752 139.396C59.0314 138.919 59.1096 138.353 59.1096 137.696C59.1096 137.048 59.0314 136.485 58.8752 136.009C58.7189 135.532 58.4963 135.138 58.2072 134.825C57.926 134.513 57.5861 134.282 57.1877 134.134C56.7971 133.978 56.3635 133.899 55.8869 133.899C55.4025 133.899 54.9611 133.978 54.5627 134.134C54.1721 134.282 53.8361 134.513 53.5549 134.825C53.2736 135.138 53.0549 135.536 52.8986 136.021C52.7424 136.497 52.6642 137.06 52.6642 137.708C52.6642 138.356 52.7424 138.919 52.8986 139.396C53.0549 139.872 53.2736 140.267 53.5549 140.579C53.8361 140.892 54.1721 141.126 54.5627 141.282C54.9611 141.431 55.4025 141.505 55.8869 141.505ZM77.6017 145.853V143.72H67.1017V145.853H63.8556V141.06H65.0158C65.3205 141.06 65.59 141.032 65.8244 140.978C66.0588 140.915 66.2619 140.81 66.4338 140.661C66.6056 140.513 66.7502 140.31 66.8674 140.052C66.9924 139.786 67.09 139.45 67.1603 139.044C67.2306 138.638 67.2814 138.149 67.3127 137.579C67.3439 137.001 67.3596 136.325 67.3596 135.552V131.696H78.7619V141.06H80.8478V145.853H77.6017ZM70.9455 134.345V135.599C70.9455 136.966 70.8283 138.087 70.5939 138.962C70.3674 139.837 70.051 140.536 69.6447 141.06H75.1642V134.345H70.9455ZM92.1564 143.72V138.962H86.4611V143.72H82.8635V131.696H86.4611V136.208H92.1564V131.696H95.7541V143.72H92.1564ZM104.965 144.095C103.965 144.095 103.039 143.954 102.188 143.673C101.344 143.384 100.613 142.97 99.9963 142.431C99.3791 141.884 98.8986 141.216 98.5549 140.427C98.2111 139.63 98.0392 138.724 98.0392 137.708C98.0392 136.692 98.2111 135.79 98.5549 135.001C98.9064 134.204 99.3908 133.532 100.008 132.985C100.625 132.438 101.356 132.024 102.199 131.743C103.043 131.454 103.965 131.31 104.965 131.31C105.957 131.31 106.875 131.454 107.719 131.743C108.57 132.024 109.301 132.438 109.91 132.985C110.528 133.532 111.008 134.2 111.352 134.989C111.703 135.778 111.879 136.677 111.879 137.685C111.879 138.708 111.707 139.618 111.363 140.415C111.02 141.204 110.539 141.872 109.922 142.419C109.313 142.966 108.582 143.384 107.731 143.673C106.887 143.954 105.965 144.095 104.965 144.095ZM104.965 141.505C105.442 141.505 105.875 141.431 106.266 141.282C106.664 141.126 107.004 140.892 107.285 140.579C107.574 140.267 107.797 139.872 107.953 139.396C108.11 138.919 108.188 138.353 108.188 137.696C108.188 137.048 108.11 136.485 107.953 136.009C107.797 135.532 107.574 135.138 107.285 134.825C107.004 134.513 106.664 134.282 106.266 134.134C105.875 133.978 105.442 133.899 104.965 133.899C104.481 133.899 104.039 133.978 103.641 134.134C103.25 134.282 102.914 134.513 102.633 134.825C102.352 135.138 102.133 135.536 101.977 136.021C101.82 136.497 101.742 137.06 101.742 137.708C101.742 138.356 101.82 138.919 101.977 139.396C102.133 139.872 102.352 140.267 102.633 140.579C102.914 140.892 103.25 141.126 103.641 141.282C104.039 141.431 104.481 141.505 104.965 141.505ZM126.727 143.72V137.087L126.785 135.481L126.199 137.063L123.516 143.72H120.656L117.938 137.087L117.34 135.493L117.422 137.075V143.72H114.188V131.696H118.606L121.547 138.376L122.192 140.286L122.836 138.376L125.801 131.696H130.207V143.72H126.727ZM144.926 143.72L138.574 126.938H142.84L147.34 140.38L151.852 126.938H155.86L149.496 143.72H144.926ZM157.817 143.72V126.938H165.07C166.055 126.938 166.973 127.028 167.824 127.208C168.684 127.388 169.426 127.688 170.051 128.11C170.676 128.524 171.168 129.075 171.528 129.763C171.887 130.45 172.067 131.302 172.067 132.317C172.067 133.286 171.914 134.134 171.61 134.86C171.313 135.579 170.883 136.177 170.32 136.653C169.766 137.13 169.094 137.489 168.305 137.731C167.516 137.966 166.633 138.083 165.656 138.083H161.508V143.72H157.817ZM165.258 135.224C166.188 135.224 166.903 134.985 167.403 134.509C167.903 134.024 168.153 133.306 168.153 132.353C168.153 131.868 168.082 131.466 167.942 131.146C167.801 130.817 167.602 130.556 167.344 130.36C167.086 130.157 166.778 130.013 166.418 129.927C166.059 129.841 165.664 129.798 165.235 129.798H161.508V135.224H165.258ZM186.047 143.72L178.594 133.267L177.68 131.825L177.832 133.524V143.72H174.481V126.938H178.348L185.742 137.403L186.656 138.845L186.492 137.146V126.938H189.856V143.72H186.047Z" fill="black"/>
<path d="M27.6817 181.43C27.128 180.757 26.8512 179.804 26.8512 178.571C26.8512 177.337 27.128 176.384 27.6817 175.711C28.2353 175.039 29.0237 174.702 30.0469 174.702C31.07 174.702 31.8584 175.039 32.4121 175.711C32.9657 176.384 33.2425 177.337 33.2425 178.571C33.2425 179.797 32.9657 180.75 32.4121 181.43C31.8584 182.103 31.07 182.439 30.0469 182.439C29.0237 182.439 28.2353 182.103 27.6817 181.43ZM31.6762 180.81C32.0547 180.291 32.2439 179.545 32.2439 178.571C32.2439 177.596 32.0547 176.854 31.6762 176.342C31.3048 175.823 30.7617 175.564 30.0469 175.564C29.3321 175.564 28.7854 175.823 28.407 176.342C28.0356 176.854 27.8499 177.596 27.8499 178.571C27.8499 179.545 28.0356 180.291 28.407 180.81C28.7854 181.321 29.3321 181.577 30.0469 181.577C30.7617 181.577 31.3048 181.321 31.6762 180.81ZM38.8609 181.535H39.6914V183.185H38.8399V182.239H34.3092V176.994H35.2238V181.535H37.9569V176.994H38.8609V181.535ZM40.8661 181.63C40.4456 181.118 40.2354 180.438 40.2354 179.59C40.2354 178.742 40.4386 178.073 40.8451 177.582C41.2585 177.085 41.8542 176.836 42.6321 176.836C43.3399 176.836 43.8936 177.067 44.293 177.53C44.6925 177.985 44.8922 178.602 44.8922 179.38L44.9027 179.895H41.1079C41.1219 180.442 41.2691 180.883 41.5494 181.22C41.8367 181.556 42.2221 181.724 42.7057 181.724C43.4275 181.724 43.8971 181.349 44.1143 180.599H44.1458L44.7976 180.831C44.4332 181.875 43.7289 182.397 42.6847 182.397C41.8998 182.397 41.2936 182.141 40.8661 181.63ZM41.1184 179.222H44.0302C44.0232 178.669 43.8971 178.241 43.6518 177.94C43.4135 177.631 43.0666 177.477 42.6111 177.477C42.1766 177.477 41.8227 177.642 41.5494 177.971C41.2831 178.294 41.1394 178.711 41.1184 179.222ZM45.9742 182.239V176.994H46.8887V179.18H49.6113V176.994H50.5259V182.239H49.6113V179.916H46.8887V182.239H45.9742ZM52.0822 182.239V176.994H52.9652V180.61L52.9232 181.135L53.186 180.673L55.6984 176.994H56.6444V182.239H55.7509V178.634L55.8035 178.119L55.5302 178.571L53.0178 182.239H52.0822ZM59.3566 182.239V177.709H57.538V176.994H62.0792V177.709H60.2712V182.239H59.3566ZM63.1425 181.63C62.722 181.118 62.5118 180.438 62.5118 179.59C62.5118 178.742 62.715 178.073 63.1215 177.582C63.5349 177.085 64.1306 176.836 64.9085 176.836C65.6163 176.836 66.17 177.067 66.5694 177.53C66.9689 177.985 67.1686 178.602 67.1686 179.38L67.1791 179.895H63.3843C63.3983 180.442 63.5455 180.883 63.8258 181.22C64.1131 181.556 64.4985 181.724 64.9821 181.724C65.7039 181.724 66.1735 181.349 66.3907 180.599H66.4222L67.074 180.831C66.7096 181.875 66.0053 182.397 64.9611 182.397C64.1762 182.397 63.57 182.141 63.1425 181.63ZM63.3948 179.222H66.3066C66.2996 178.669 66.1735 178.241 65.9282 177.94C65.6899 177.631 65.343 177.477 64.8875 177.477C64.453 177.477 64.0991 177.642 63.8258 177.971C63.5595 178.294 63.4158 178.711 63.3948 179.222ZM70.7759 182.239V176.994H71.6905V179.18H74.4131V176.994H75.3276V182.239H74.4131V179.916H71.6905V182.239H70.7759ZM76.495 180.957C76.495 179.829 77.6864 179.264 80.0691 179.264V178.823C80.0691 177.947 79.6486 177.509 78.8077 177.509C78.4573 177.509 78.1629 177.603 77.9247 177.793C77.6934 177.975 77.5603 178.238 77.5252 178.581L76.7789 178.497C76.8349 177.985 77.0452 177.582 77.4096 177.288C77.781 176.987 78.2716 176.836 78.8813 176.836C79.5961 176.836 80.1252 177.015 80.4686 177.372C80.812 177.723 80.9837 178.266 80.9837 179.002V181.241C80.9837 181.437 81.0082 181.577 81.0572 181.661C81.1133 181.745 81.2044 181.787 81.3306 181.787C81.4497 181.787 81.5723 181.759 81.6985 181.703V182.239C81.4252 182.344 81.2149 182.397 81.0678 182.397C80.7734 182.397 80.5562 182.323 80.416 182.176C80.2759 182.022 80.2058 181.77 80.2058 181.419C80.2058 181.265 80.2233 181.02 80.2583 180.683C80.1602 181.237 79.9149 181.661 79.5225 181.955C79.1371 182.25 78.6815 182.397 78.1559 182.397C77.6373 182.397 77.2309 182.267 76.9365 182.008C76.6422 181.742 76.495 181.391 76.495 180.957ZM80.0691 179.927V179.853C79.1511 179.881 78.4853 179.965 78.0718 180.105C77.6584 180.245 77.4411 180.519 77.4201 180.925C77.4201 181.178 77.5042 181.381 77.6724 181.535C77.8476 181.682 78.0964 181.756 78.4187 181.756C78.8532 181.777 79.2387 181.577 79.5751 181.157C79.9184 180.729 80.0831 180.319 80.0691 179.927ZM89.0756 176.994H89.9902V182.239H82.5371V176.994H83.4517V181.535H85.8064V176.994H86.7104V181.535H89.0756V176.994ZM90.7053 183.658L90.9786 183.164C91.2589 183.361 91.5287 183.459 91.788 183.459C91.9983 183.459 92.1735 183.385 92.3136 183.238C92.4608 183.098 92.5869 182.87 92.6921 182.555L92.8077 182.239L90.6632 176.994H91.6619L93.2282 181.367L94.6893 176.994H95.6354L93.5856 182.471C93.3613 183.073 93.1266 183.504 92.8813 183.763C92.636 184.03 92.3171 184.163 91.9247 184.163C91.4902 184.163 91.0837 183.995 90.7053 183.658ZM99.0064 182.239V176.994H100.173L101.666 180.62L101.866 181.262L102.065 180.62L103.558 176.994H104.714V182.239H103.842V178.623L103.852 178.013L103.642 178.623L102.213 182.239H101.466L100.037 178.623L99.8158 178.003L99.8369 178.623V182.239H99.0064ZM105.822 179.611C105.822 178.791 106.043 178.126 106.484 177.614C106.926 177.095 107.529 176.836 108.293 176.836C109.056 176.836 109.656 177.095 110.09 177.614C110.532 178.126 110.752 178.791 110.752 179.611C110.752 180.438 110.535 181.111 110.101 181.63C109.666 182.141 109.063 182.397 108.293 182.397C107.515 182.397 106.908 182.141 106.474 181.63C106.039 181.118 105.822 180.445 105.822 179.611ZM109.806 179.611C109.806 178.945 109.673 178.434 109.407 178.077C109.147 177.719 108.776 177.54 108.293 177.54C107.809 177.54 107.434 177.719 107.168 178.077C106.901 178.434 106.768 178.945 106.768 179.611C106.768 180.284 106.901 180.803 107.168 181.167C107.434 181.524 107.809 181.703 108.293 181.703C108.776 181.703 109.147 181.524 109.407 181.167C109.673 180.803 109.806 180.284 109.806 179.611ZM119.165 181.535H119.985V183.185H119.144V182.239H111.712V176.994H112.627V181.535H114.981V176.994H115.885V181.535H118.251V176.994H119.165V181.535ZM120.965 182.239V176.994H121.858V178.949H123.183C123.813 178.949 124.304 179.089 124.654 179.369C125.005 179.643 125.18 180.053 125.18 180.599C125.18 181.693 124.479 182.239 123.077 182.239H120.965ZM121.858 181.566H123.109C123.866 181.566 124.244 181.255 124.244 180.631C124.244 180.281 124.153 180.025 123.971 179.864C123.796 179.702 123.515 179.622 123.13 179.622H121.858V181.566ZM128.212 179.622C128.212 178.732 128.422 178.045 128.842 177.561C129.263 177.078 129.855 176.836 130.619 176.836C131.257 176.836 131.761 177.036 132.133 177.435C132.511 177.828 132.711 178.339 132.732 178.97L131.996 179.117L131.943 179.096C131.887 178.059 131.446 177.54 130.619 177.54C130.149 177.54 129.788 177.726 129.536 178.098C129.284 178.469 129.158 178.974 129.158 179.611C129.158 180.305 129.287 180.827 129.547 181.178C129.813 181.528 130.195 181.703 130.692 181.703C131.4 181.703 131.856 181.335 132.059 180.599L132.09 180.589L132.774 180.852C132.465 181.882 131.761 182.397 130.661 182.397C129.89 182.397 129.287 182.152 128.853 181.661C128.425 181.171 128.212 180.491 128.212 179.622ZM135.942 179.496C135.942 178.9 135.973 178.371 136.036 177.908C136.099 177.439 136.208 177.001 136.362 176.594C136.523 176.181 136.734 175.841 136.993 175.575C137.252 175.301 137.585 175.088 137.992 174.933C138.405 174.772 138.885 174.688 139.432 174.681H140.231V175.364H139.484C138.685 175.364 138.076 175.585 137.655 176.027C137.235 176.461 136.954 177.102 136.814 177.95C136.961 177.6 137.186 177.327 137.487 177.13C137.795 176.934 138.149 176.836 138.549 176.836C139.264 176.836 139.828 177.078 140.241 177.561C140.662 178.045 140.872 178.718 140.872 179.58C140.872 180.463 140.658 181.153 140.231 181.651C139.803 182.148 139.197 182.397 138.412 182.397C137.613 182.397 137 182.148 136.573 181.651C136.152 181.153 135.942 180.435 135.942 179.496ZM139.526 181.167C139.793 180.803 139.926 180.277 139.926 179.59C139.926 178.903 139.793 178.388 139.526 178.045C139.26 177.695 138.882 177.519 138.391 177.519C137.908 177.519 137.536 177.698 137.277 178.055C137.018 178.406 136.888 178.924 136.888 179.611C136.888 180.284 137.018 180.803 137.277 181.167C137.536 181.531 137.915 181.714 138.412 181.714C138.896 181.714 139.267 181.531 139.526 181.167ZM142.136 181.63C141.716 181.118 141.506 180.438 141.506 179.59C141.506 178.742 141.709 178.073 142.115 177.582C142.529 177.085 143.125 176.836 143.902 176.836C144.61 176.836 145.164 177.067 145.563 177.53C145.963 177.985 146.163 178.602 146.163 179.38L146.173 179.895H142.378C142.392 180.442 142.539 180.883 142.82 181.22C143.107 181.556 143.493 181.724 143.976 181.724C144.698 181.724 145.167 181.349 145.385 180.599H145.416L146.068 180.831C145.704 181.875 144.999 182.397 143.955 182.397C143.17 182.397 142.564 182.141 142.136 181.63ZM142.389 179.222H145.301C145.294 178.669 145.167 178.241 144.922 177.94C144.684 177.631 144.337 177.477 143.881 177.477C143.447 177.477 143.093 177.642 142.82 177.971C142.553 178.294 142.41 178.711 142.389 179.222ZM146.782 179.622C146.782 178.732 146.992 178.045 147.413 177.561C147.833 177.078 148.425 176.836 149.189 176.836C149.827 176.836 150.332 177.036 150.703 177.435C151.081 177.828 151.281 178.339 151.302 178.97L150.566 179.117L150.514 179.096C150.458 178.059 150.016 177.54 149.189 177.54C148.72 177.54 148.359 177.726 148.107 178.098C147.854 178.469 147.728 178.974 147.728 179.611C147.728 180.305 147.858 180.827 148.117 181.178C148.383 181.528 148.765 181.703 149.263 181.703C149.971 181.703 150.426 181.335 150.629 180.599L150.661 180.589L151.344 180.852C151.036 181.882 150.332 182.397 149.231 182.397C148.46 182.397 147.858 182.152 147.423 181.661C146.996 181.171 146.782 180.491 146.782 179.622ZM152.302 182.239V176.994H156.854V182.239H155.95V177.709H153.217V182.239H152.302ZM163.309 176.994V182.239H162.394V177.74H159.661V178.213C159.661 179.369 159.63 180.228 159.567 180.789C159.511 181.349 159.384 181.749 159.188 181.987C158.999 182.225 158.698 182.344 158.284 182.344H157.958L157.969 181.619H158.063C158.225 181.598 158.34 181.563 158.41 181.514C158.487 181.465 158.554 181.325 158.61 181.093C158.666 180.855 158.701 180.543 158.715 180.158C158.736 179.772 158.75 179.184 158.757 178.392V176.994H163.309ZM164.615 180.957C164.615 179.829 165.807 179.264 168.189 179.264V178.823C168.189 177.947 167.769 177.509 166.928 177.509C166.577 177.509 166.283 177.603 166.045 177.793C165.814 177.975 165.68 178.238 165.645 178.581L164.899 178.497C164.955 177.985 165.165 177.582 165.53 177.288C165.901 176.987 166.392 176.836 167.001 176.836C167.716 176.836 168.245 177.015 168.589 177.372C168.932 177.723 169.104 178.266 169.104 179.002V181.241C169.104 181.437 169.128 181.577 169.177 181.661C169.233 181.745 169.325 181.787 169.451 181.787C169.57 181.787 169.692 181.759 169.819 181.703V182.239C169.545 182.344 169.335 182.397 169.188 182.397C168.894 182.397 168.676 182.323 168.536 182.176C168.396 182.022 168.326 181.77 168.326 181.419C168.326 181.265 168.343 181.02 168.378 180.683C168.28 181.237 168.035 181.661 167.643 181.955C167.257 182.25 166.802 182.397 166.276 182.397C165.757 182.397 165.351 182.267 165.057 182.008C164.762 181.742 164.615 181.391 164.615 180.957ZM168.189 179.927V179.853C167.271 179.881 166.605 179.965 166.192 180.105C165.778 180.245 165.561 180.519 165.54 180.925C165.54 181.178 165.624 181.381 165.793 181.535C165.968 181.682 166.216 181.756 166.539 181.756C166.973 181.777 167.359 181.577 167.695 181.157C168.039 180.729 168.203 180.319 168.189 179.927ZM171.94 182.239V177.709H170.121V176.994H174.662V177.709H172.854V182.239H171.94ZM175.547 182.239V176.994H176.461V179.18H179.184V176.994H180.099V182.239H179.184V179.916H176.461V182.239H175.547ZM181.192 179.611C181.192 178.791 181.413 178.126 181.855 177.614C182.296 177.095 182.899 176.836 183.663 176.836C184.427 176.836 185.026 177.095 185.46 177.614C185.902 178.126 186.123 178.791 186.123 179.611C186.123 180.438 185.905 181.111 185.471 181.63C185.036 182.141 184.434 182.397 183.663 182.397C182.885 182.397 182.279 182.141 181.844 181.63C181.41 181.118 181.192 180.445 181.192 179.611ZM185.176 179.611C185.176 178.945 185.043 178.434 184.777 178.077C184.518 177.719 184.146 177.54 183.663 177.54C183.179 177.54 182.804 177.719 182.538 178.077C182.272 178.434 182.138 178.945 182.138 179.611C182.138 180.284 182.272 180.803 182.538 181.167C182.804 181.524 183.179 181.703 183.663 181.703C184.146 181.703 184.518 181.524 184.777 181.167C185.043 180.803 185.176 180.284 185.176 179.611ZM188.06 174.86L188.701 174.734C188.715 175.301 188.988 175.585 189.521 175.585C190.061 175.585 190.337 175.301 190.352 174.734L190.982 174.86C190.926 175.736 190.439 176.174 189.521 176.174C189.059 176.174 188.701 176.062 188.449 175.837C188.204 175.606 188.074 175.28 188.06 174.86ZM187.219 182.239V176.994H188.102V180.61L188.06 181.135L188.323 180.673L190.835 176.994H191.781V182.239H190.888V178.634L190.94 178.119L190.667 178.571L188.154 182.239H187.219ZM60.7227 199.239V193.994H65.2744V199.239H64.3704V194.709H61.6372V199.239H60.7227ZM66.9674 201.11V193.994H67.6191L67.7663 195.077C67.9065 194.712 68.1447 194.418 68.4811 194.193C68.8245 193.962 69.2135 193.847 69.648 193.847C70.3137 193.847 70.8428 194.099 71.2353 194.603C71.6277 195.101 71.8239 195.77 71.8239 196.611C71.8239 197.494 71.6277 198.181 71.2353 198.672C70.8498 199.155 70.3172 199.397 69.6374 199.397C69.217 199.397 68.8455 199.295 68.5232 199.092C68.2008 198.882 67.9871 198.623 67.8819 198.314V201.11H66.9674ZM70.8779 196.622C70.8779 195.963 70.7447 195.451 70.4784 195.087C70.2191 194.723 69.8547 194.54 69.3852 194.54C68.9226 194.54 68.5547 194.726 68.2814 195.098C68.0151 195.462 67.8819 195.967 67.8819 196.611C67.8819 197.298 68.0186 197.82 68.2919 198.178C68.5722 198.528 68.9401 198.703 69.3957 198.703C69.8652 198.703 70.2296 198.528 70.4889 198.178C70.7482 197.82 70.8779 197.302 70.8779 196.622ZM72.4897 196.611C72.4897 195.791 72.7105 195.126 73.152 194.614C73.5935 194.095 74.1962 193.836 74.96 193.836C75.7239 193.836 76.3231 194.095 76.7576 194.614C77.1991 195.126 77.4199 195.791 77.4199 196.611C77.4199 197.438 77.2026 198.111 76.7681 198.63C76.3336 199.141 75.7309 199.397 74.96 199.397C74.1822 199.397 73.576 199.141 73.1415 198.63C72.707 198.118 72.4897 197.445 72.4897 196.611ZM76.4738 196.611C76.4738 195.945 76.3406 195.434 76.0743 195.077C75.815 194.719 75.4436 194.54 74.96 194.54C74.4765 194.54 74.1016 194.719 73.8353 195.077C73.569 195.434 73.4358 195.945 73.4358 196.611C73.4358 197.284 73.569 197.803 73.8353 198.167C74.1016 198.524 74.4765 198.703 74.96 198.703C75.4436 198.703 75.815 198.524 76.0743 198.167C76.3406 197.803 76.4738 197.284 76.4738 196.611ZM78.0642 196.496C78.0642 195.9 78.0957 195.371 78.1588 194.908C78.2219 194.439 78.3305 194.001 78.4847 193.594C78.6459 193.181 78.8561 192.841 79.1154 192.575C79.3747 192.301 79.7076 192.088 80.114 191.933C80.5275 191.772 81.0076 191.688 81.5542 191.681H82.3531V192.364H81.6068C80.8078 192.364 80.1981 192.585 79.7777 193.027C79.3572 193.461 79.0769 194.102 78.9367 194.95C79.0839 194.6 79.3081 194.327 79.6095 194.13C79.9178 193.934 80.2717 193.836 80.6712 193.836C81.386 193.836 81.9501 194.078 82.3636 194.561C82.7841 195.045 82.9943 195.718 82.9943 196.58C82.9943 197.463 82.7806 198.153 82.3531 198.651C81.9256 199.148 81.3194 199.397 80.5345 199.397C79.7356 199.397 79.1224 199.148 78.6949 198.651C78.2744 198.153 78.0642 197.435 78.0642 196.496ZM81.6488 198.167C81.9151 197.803 82.0483 197.277 82.0483 196.59C82.0483 195.903 81.9151 195.388 81.6488 195.045C81.3825 194.695 81.0041 194.519 80.5135 194.519C80.03 194.519 79.6585 194.698 79.3992 195.055C79.1399 195.406 79.0103 195.924 79.0103 196.611C79.0103 197.284 79.1399 197.803 79.3992 198.167C79.6585 198.531 80.037 198.714 80.5345 198.714C81.0181 198.714 81.3895 198.531 81.6488 198.167ZM84.0802 199.239V193.994H84.9947V196.18H87.7173V193.994H88.6319V199.239H87.7173V196.916H84.9947V199.239H84.0802ZM89.7257 196.611C89.7257 195.791 89.9465 195.126 90.388 194.614C90.8295 194.095 91.4322 193.836 92.196 193.836C92.9599 193.836 93.5591 194.095 93.9936 194.614C94.4351 195.126 94.6558 195.791 94.6558 196.611C94.6558 197.438 94.4386 198.111 94.0041 198.63C93.5696 199.141 92.9669 199.397 92.196 199.397C91.4181 199.397 90.8119 199.141 90.3775 198.63C89.943 198.118 89.7257 197.445 89.7257 196.611ZM93.7098 196.611C93.7098 195.945 93.5766 195.434 93.3103 195.077C93.051 194.719 92.6796 194.54 92.196 194.54C91.7125 194.54 91.3375 194.719 91.0712 195.077C90.8049 195.434 90.6718 195.945 90.6718 196.611C90.6718 197.284 90.8049 197.803 91.0712 198.167C91.3375 198.524 91.7125 198.703 92.196 198.703C92.6796 198.703 93.051 198.524 93.3103 198.167C93.5766 197.803 93.7098 197.284 93.7098 196.611ZM96.5932 191.86L97.2344 191.734C97.2484 192.301 97.5217 192.585 98.0543 192.585C98.5939 192.585 98.8708 192.301 98.8848 191.734L99.5155 191.86C99.4594 192.736 98.9724 193.174 98.0543 193.174C97.5918 193.174 97.2344 193.062 96.9821 192.837C96.7368 192.606 96.6072 192.28 96.5932 191.86ZM95.7522 199.239V193.994H96.6352V197.61L96.5932 198.135L96.856 197.673L99.3683 193.994H100.314V199.239H99.4209V195.634L99.4734 195.119L99.2001 195.571L96.6878 199.239H95.7522ZM104.269 199.239V193.994H108.821V199.239H107.917V194.709H105.184V199.239H104.269ZM110.052 196.611C110.052 195.791 110.272 195.126 110.714 194.614C111.155 194.095 111.758 193.836 112.522 193.836C113.286 193.836 113.885 194.095 114.32 194.614C114.761 195.126 114.982 195.791 114.982 196.611C114.982 197.438 114.765 198.111 114.33 198.63C113.896 199.141 113.293 199.397 112.522 199.397C111.744 199.397 111.138 199.141 110.703 198.63C110.269 198.118 110.052 197.445 110.052 196.611ZM114.036 196.611C114.036 195.945 113.903 195.434 113.636 195.077C113.377 194.719 113.006 194.54 112.522 194.54C112.038 194.54 111.663 194.719 111.397 195.077C111.131 195.434 110.998 195.945 110.998 196.611C110.998 197.284 111.131 197.803 111.397 198.167C111.663 198.524 112.038 198.703 112.522 198.703C113.006 198.703 113.377 198.524 113.636 198.167C113.903 197.803 114.036 197.284 114.036 196.611ZM121.04 198.535H121.87V200.185H121.019V199.239H116.267V200.185H115.426V198.535H115.794C116.096 198.521 116.323 198.433 116.478 198.272C116.632 198.104 116.74 197.82 116.803 197.421C116.874 197.021 116.912 196.426 116.919 195.634V193.994H121.04V198.535ZM117.14 198.535H120.125V194.709H117.834V195.644C117.834 197.109 117.602 198.072 117.14 198.535ZM122.624 199.239V193.994H127.176V199.239H126.272V194.709H123.539V199.239H122.624ZM128.869 199.239V193.994H129.752V197.61L129.71 198.135L129.973 197.673L132.485 193.994H133.431V199.239H132.538V195.634L132.59 195.119L132.317 195.571L129.805 199.239H128.869ZM134.535 196.622C134.535 195.732 134.745 195.045 135.166 194.561C135.586 194.078 136.179 193.836 136.942 193.836C137.58 193.836 138.085 194.036 138.456 194.435C138.835 194.828 139.034 195.339 139.055 195.97L138.319 196.117L138.267 196.096C138.211 195.059 137.769 194.54 136.942 194.54C136.473 194.54 136.112 194.726 135.86 195.098C135.607 195.469 135.481 195.974 135.481 196.611C135.481 197.305 135.611 197.827 135.87 198.178C136.136 198.528 136.518 198.703 137.016 198.703C137.724 198.703 138.179 198.335 138.383 197.599L138.414 197.589L139.097 197.852C138.789 198.882 138.085 199.397 136.984 199.397C136.214 199.397 135.611 199.152 135.176 198.661C134.749 198.171 134.535 197.491 134.535 196.622ZM143.272 197.274L144.344 199.239H143.43L142.505 197.568L142.179 196.99H141.107V199.239H140.192V193.994H141.107V196.254H142.179L142.505 195.665L143.409 193.994H144.344L143.272 195.97L142.894 196.622L143.272 197.274ZM144.903 196.611C144.903 195.791 145.124 195.126 145.566 194.614C146.007 194.095 146.61 193.836 147.374 193.836C148.138 193.836 148.737 194.095 149.171 194.614C149.613 195.126 149.834 195.791 149.834 196.611C149.834 197.438 149.616 198.111 149.182 198.63C148.747 199.141 148.145 199.397 147.374 199.397C146.596 199.397 145.99 199.141 145.555 198.63C145.121 198.118 144.903 197.445 144.903 196.611ZM148.887 196.611C148.887 195.945 148.754 195.434 148.488 195.077C148.229 194.719 147.857 194.54 147.374 194.54C146.89 194.54 146.515 194.719 146.249 195.077C145.983 195.434 145.85 195.945 145.85 196.611C145.85 197.284 145.983 197.803 146.249 198.167C146.515 198.524 146.89 198.703 147.374 198.703C147.857 198.703 148.229 198.524 148.488 198.167C148.754 197.803 148.887 197.284 148.887 196.611ZM151.771 191.86L152.412 191.734C152.426 192.301 152.699 192.585 153.232 192.585C153.772 192.585 154.049 192.301 154.063 191.734L154.693 191.86C154.637 192.736 154.15 193.174 153.232 193.174C152.77 193.174 152.412 193.062 152.16 192.837C151.915 192.606 151.785 192.28 151.771 191.86ZM150.93 199.239V193.994H151.813V197.61L151.771 198.135L152.034 197.673L154.546 193.994H155.492V199.239H154.599V195.634L154.651 195.119L154.378 195.571L151.866 199.239H150.93ZM157.353 197.053L157.122 194.603V191.881H158.089V194.614L157.857 197.053H157.353ZM157.101 199.239V197.967H158.089V199.239H157.101Z" fill="black"/>
<g filter="url(#filter1_d_279_147121)">
<rect x="63.3643" y="231.424" width="92.272" height="37.376" rx="9.344" fill="black"/>
<path d="M81.2674 253.935L81.5103 252.982C81.7906 253.107 82.0398 253.169 82.2578 253.169C82.4447 253.169 82.5942 253.129 82.7064 253.048C82.8247 252.967 82.9275 252.83 83.0147 252.637L83.1455 252.291L80.8656 247.572H82.5382L83.8463 251.029L85.0424 247.572H86.6495L84.4163 252.683C84.1796 253.269 83.9211 253.677 83.6408 253.907C83.3604 254.138 82.9991 254.253 82.5569 254.253C82.1083 254.253 81.6785 254.147 81.2674 253.935ZM86.8664 251.768C86.8664 250.989 87.1 250.378 87.5672 249.936C88.0344 249.494 88.6636 249.273 89.4547 249.273C90.0963 249.273 90.6352 249.45 91.0712 249.805C91.5073 250.154 91.7471 250.621 91.7907 251.207L90.6788 251.45L90.632 251.431C90.5947 251.057 90.4794 250.774 90.2863 250.581C90.0932 250.381 89.8285 250.282 89.4921 250.282C89.1245 250.282 88.8349 250.413 88.6231 250.674C88.4175 250.93 88.3147 251.291 88.3147 251.758C88.3147 252.749 88.7383 253.244 89.5855 253.244C89.8658 253.244 90.1088 253.175 90.3143 253.038C90.5199 252.901 90.6694 252.711 90.7629 252.468L90.8002 252.459L91.8094 252.889C91.6537 253.294 91.3764 253.624 90.9778 253.879C90.5791 254.128 90.0932 254.253 89.5201 254.253C88.7227 254.253 88.0811 254.032 87.5952 253.59C87.1094 253.147 86.8664 252.54 86.8664 251.768ZM93.876 254.104V250.45H92.1287V249.422H97.0063V250.45H95.2683V254.104H93.876ZM97.3984 252.898C97.3984 252.325 97.7161 251.926 98.3515 251.702C98.9931 251.472 99.859 251.359 100.949 251.366V251.132C100.949 250.515 100.613 250.207 99.94 250.207C99.6721 250.207 99.4479 250.279 99.2672 250.422C99.0866 250.565 98.9682 250.774 98.9121 251.048L97.6881 250.796C97.9372 249.78 98.719 249.273 100.033 249.273C100.818 249.273 101.398 249.444 101.771 249.787C102.151 250.129 102.341 250.659 102.341 251.375V253.01C102.341 253.291 102.438 253.431 102.631 253.431C102.768 253.431 102.886 253.406 102.986 253.356V254.038C102.731 254.181 102.45 254.253 102.145 254.253C101.815 254.253 101.569 254.178 101.407 254.029C101.251 253.879 101.17 253.639 101.164 253.309C101.164 253.178 101.183 252.97 101.22 252.683C101.114 253.206 100.874 253.599 100.501 253.861C100.127 254.122 99.6597 254.253 99.099 254.253C98.5695 254.253 98.1522 254.132 97.8469 253.889C97.5479 253.646 97.3984 253.316 97.3984 252.898ZM100.949 252.113V252.067C100.195 252.085 99.6565 252.148 99.3326 252.253C99.0149 252.353 98.8467 252.549 98.828 252.842C98.828 253.01 98.8841 253.147 98.9962 253.253C99.1084 253.359 99.2672 253.412 99.4728 253.412C99.778 253.425 100.102 253.272 100.445 252.954C100.793 252.637 100.962 252.356 100.949 252.113ZM103.831 254.104V249.422H105.233V251.179H107.447V249.422H108.849V254.104H107.447V252.253H105.233V254.104H103.831ZM109.734 251.768C109.734 250.995 109.983 250.388 110.481 249.945C110.986 249.497 111.637 249.273 112.434 249.273C113.231 249.273 113.879 249.497 114.378 249.945C114.876 250.394 115.125 250.998 115.125 251.758C115.125 252.524 114.876 253.132 114.378 253.58C113.879 254.029 113.231 254.253 112.434 254.253C111.637 254.253 110.986 254.029 110.481 253.58C109.983 253.132 109.734 252.527 109.734 251.768ZM113.686 251.758C113.686 251.279 113.574 250.914 113.35 250.665C113.132 250.41 112.827 250.282 112.434 250.282C112.035 250.282 111.727 250.41 111.509 250.665C111.291 250.914 111.182 251.282 111.182 251.768C111.182 252.247 111.291 252.615 111.509 252.87C111.733 253.119 112.042 253.244 112.434 253.244C112.827 253.244 113.132 253.119 113.35 252.87C113.574 252.615 113.686 252.244 113.686 251.758ZM116.013 254.104V249.422H118.788C120.021 249.422 120.638 249.818 120.638 250.609C120.638 251.213 120.227 251.556 119.405 251.637C119.828 251.674 120.165 251.786 120.414 251.973C120.663 252.154 120.788 252.406 120.788 252.73C120.788 253.166 120.619 253.505 120.283 253.748C119.947 253.985 119.455 254.104 118.807 254.104H116.013ZM117.368 251.347H118.564C119.012 251.347 119.237 251.173 119.237 250.824C119.237 250.5 119.006 250.338 118.545 250.338H117.368V251.347ZM117.368 253.188H118.545C118.838 253.188 119.05 253.147 119.18 253.066C119.311 252.985 119.377 252.845 119.377 252.646C119.377 252.266 119.118 252.076 118.601 252.076H117.368V253.188ZM121.67 254.104V249.422H123.025V251.973L122.969 252.534L123.268 252.076L125.277 249.422H126.688V254.104H125.333V251.543L125.389 251.001L125.09 251.45L123.063 254.104H121.67ZM129.208 254.104V250.45H127.461V249.422H132.338V250.45H130.6V254.104H129.208ZM133.095 254.104V249.422H134.459V250.88H135.683C136.337 250.88 136.848 251.017 137.216 251.291C137.583 251.559 137.767 251.964 137.767 252.506C137.767 253.097 137.552 253.512 137.122 253.748C136.698 253.985 136.138 254.104 135.44 254.104H133.095ZM134.459 253.141H135.562C136.072 253.141 136.328 252.926 136.328 252.496C136.328 252.054 136.079 251.833 135.58 251.833H134.459V253.141Z" fill="white"/>
</g>
<rect x="59.2764" y="283.107" width="100.448" height="36.792" rx="9.052" stroke="black" stroke-width="0.584"/>
<path d="M77.2052 305.495V298.964H83.0919V305.495H81.6156V300.104H78.6722V305.495H77.2052ZM84.0378 303.159C84.0378 302.387 84.2869 301.779 84.7853 301.337C85.2899 300.889 85.9408 300.664 86.7382 300.664C87.5355 300.664 88.1834 300.889 88.6817 301.337C89.1801 301.786 89.4293 302.39 89.4293 303.15C89.4293 303.916 89.1801 304.523 88.6817 304.972C88.1834 305.42 87.5355 305.645 86.7382 305.645C85.9408 305.645 85.2899 305.42 84.7853 304.972C84.2869 304.523 84.0378 303.919 84.0378 303.159ZM87.9903 303.15C87.9903 302.67 87.8782 302.306 87.6539 302.057C87.4359 301.801 87.1306 301.673 86.7382 301.673C86.3395 301.673 86.0312 301.801 85.8131 302.057C85.5951 302.306 85.4861 302.673 85.4861 303.159C85.4861 303.639 85.5951 304.006 85.8131 304.262C86.0374 304.511 86.3457 304.635 86.7382 304.635C87.1306 304.635 87.4359 304.511 87.6539 304.262C87.8782 304.006 87.9903 303.636 87.9903 303.15ZM90.1955 305.495V300.814H95.2039V305.495H93.8116V301.842H91.5877V305.495H90.1955ZM96.6588 307.14V300.814H97.6399L97.8268 301.776C97.995 301.427 98.2535 301.156 98.6024 300.963C98.9574 300.764 99.3623 300.664 99.8171 300.664C100.471 300.664 100.994 300.895 101.387 301.356C101.786 301.81 101.985 302.412 101.985 303.159C101.985 303.925 101.786 304.533 101.387 304.981C100.994 305.423 100.468 305.645 99.8077 305.645C99.3966 305.645 99.0322 305.561 98.7145 305.392C98.403 305.224 98.185 305.009 98.0604 304.748V307.14H96.6588ZM100.546 303.159C100.546 302.679 100.437 302.312 100.219 302.057C100.001 301.801 99.6956 301.673 99.3032 301.673C98.9232 301.673 98.6211 301.804 98.3968 302.066C98.1725 302.328 98.0604 302.689 98.0604 303.15C98.0604 303.636 98.1757 304.006 98.4061 304.262C98.6366 304.511 98.9388 304.635 99.3125 304.635C99.6987 304.635 100.001 304.511 100.219 304.262C100.437 304.013 100.546 303.645 100.546 303.159ZM102.47 303.159C102.47 302.387 102.719 301.779 103.218 301.337C103.722 300.889 104.373 300.664 105.171 300.664C105.968 300.664 106.616 300.889 107.114 301.337C107.613 301.786 107.862 302.39 107.862 303.15C107.862 303.916 107.613 304.523 107.114 304.972C106.616 305.42 105.968 305.645 105.171 305.645C104.373 305.645 103.722 305.42 103.218 304.972C102.719 304.523 102.47 303.919 102.47 303.159ZM106.423 303.15C106.423 302.67 106.311 302.306 106.086 302.057C105.868 301.801 105.563 301.673 105.171 301.673C104.772 301.673 104.464 301.801 104.246 302.057C104.028 302.306 103.919 302.673 103.919 303.159C103.919 303.639 104.028 304.006 104.246 304.262C104.47 304.511 104.778 304.635 105.171 304.635C105.563 304.635 105.868 304.511 106.086 304.262C106.311 304.006 106.423 303.636 106.423 303.15ZM108.32 302.916C108.32 302.237 108.376 301.652 108.488 301.16C108.6 300.667 108.79 300.228 109.058 299.842C109.332 299.456 109.712 299.166 110.198 298.973C110.684 298.774 111.285 298.671 112.001 298.665H113.001V299.655H112.123C111.369 299.649 110.79 299.811 110.385 300.141C109.98 300.471 109.721 300.963 109.609 301.617C109.752 301.306 109.97 301.069 110.263 300.907C110.562 300.739 110.895 300.655 111.263 300.655C112.01 300.655 112.605 300.885 113.048 301.346C113.49 301.807 113.711 302.402 113.711 303.131C113.711 303.91 113.471 304.523 112.992 304.972C112.518 305.42 111.861 305.645 111.02 305.645C110.142 305.645 109.472 305.414 109.011 304.953C108.55 304.486 108.32 303.807 108.32 302.916ZM112.272 303.131C112.272 302.645 112.163 302.275 111.945 302.019C111.727 301.758 111.412 301.627 111.001 301.627C110.596 301.627 110.288 301.761 110.076 302.028C109.871 302.296 109.768 302.676 109.768 303.168C109.768 303.642 109.874 304.013 110.086 304.28C110.304 304.548 110.618 304.682 111.029 304.682C111.428 304.682 111.733 304.551 111.945 304.29C112.163 304.022 112.272 303.636 112.272 303.131ZM114.15 303.159C114.15 302.387 114.399 301.779 114.898 301.337C115.402 300.889 116.053 300.664 116.851 300.664C117.648 300.664 118.296 300.889 118.794 301.337C119.293 301.786 119.542 302.39 119.542 303.15C119.542 303.916 119.293 304.523 118.794 304.972C118.296 305.42 117.648 305.645 116.851 305.645C116.053 305.645 115.402 305.42 114.898 304.972C114.399 304.523 114.15 303.919 114.15 303.159ZM118.103 303.15C118.103 302.67 117.991 302.306 117.766 302.057C117.548 301.801 117.243 301.673 116.851 301.673C116.452 301.673 116.144 301.801 115.926 302.057C115.708 302.306 115.599 302.673 115.599 303.159C115.599 303.639 115.708 304.006 115.926 304.262C116.15 304.511 116.458 304.635 116.851 304.635C117.243 304.635 117.548 304.511 117.766 304.262C117.991 304.006 118.103 303.636 118.103 303.15ZM120.429 305.495V300.814H123.205C124.438 300.814 125.055 301.209 125.055 302C125.055 302.605 124.644 302.947 123.821 303.028C124.245 303.066 124.581 303.178 124.83 303.365C125.08 303.545 125.204 303.798 125.204 304.122C125.204 304.558 125.036 304.897 124.7 305.14C124.363 305.377 123.871 305.495 123.223 305.495H120.429ZM121.784 302.739H122.98C123.429 302.739 123.653 302.564 123.653 302.215C123.653 301.891 123.423 301.729 122.962 301.729H121.784V302.739ZM121.784 304.579H122.962C123.254 304.579 123.466 304.539 123.597 304.458C123.728 304.377 123.793 304.237 123.793 304.037C123.793 303.657 123.535 303.467 123.018 303.467H121.784V304.579ZM125.723 304.29C125.723 303.717 126.04 303.318 126.676 303.094C127.317 302.863 128.183 302.751 129.273 302.757V302.524C129.273 301.907 128.937 301.599 128.264 301.599C127.996 301.599 127.772 301.67 127.591 301.814C127.411 301.957 127.292 302.166 127.236 302.44L126.012 302.187C126.261 301.172 127.043 300.664 128.358 300.664C129.142 300.664 129.722 300.836 130.096 301.178C130.476 301.521 130.666 302.05 130.666 302.767V304.402C130.666 304.682 130.762 304.822 130.955 304.822C131.092 304.822 131.211 304.797 131.31 304.748V305.43C131.055 305.573 130.775 305.645 130.469 305.645C130.139 305.645 129.893 305.57 129.731 305.42C129.575 305.271 129.494 305.031 129.488 304.701C129.488 304.57 129.507 304.361 129.544 304.075C129.438 304.598 129.198 304.991 128.825 305.252C128.451 305.514 127.984 305.645 127.423 305.645C126.894 305.645 126.476 305.523 126.171 305.28C125.872 305.037 125.723 304.707 125.723 304.29ZM129.273 303.505V303.458C128.519 303.477 127.981 303.539 127.657 303.645C127.339 303.745 127.171 303.941 127.152 304.234C127.152 304.402 127.208 304.539 127.32 304.645C127.432 304.751 127.591 304.804 127.797 304.804C128.102 304.816 128.426 304.664 128.769 304.346C129.118 304.028 129.286 303.748 129.273 303.505ZM133.342 305.495V301.842H131.594V300.814H136.472V301.842H134.734V305.495H133.342ZM137.229 305.495V300.814H138.593V302.271H139.817C140.471 302.271 140.982 302.408 141.349 302.683C141.717 302.95 141.901 303.355 141.901 303.897C141.901 304.489 141.686 304.903 141.256 305.14C140.832 305.377 140.272 305.495 139.574 305.495H137.229ZM138.593 304.533H139.695C140.206 304.533 140.462 304.318 140.462 303.888C140.462 303.446 140.212 303.225 139.714 303.225H138.593V304.533Z" fill="black"/>
</g>
<defs>
<filter id="filter0_d_279_147121" x="11.1332" y="326.426" width="197.317" height="180.41" filterUnits="userSpaceOnUse" color-interpolation-filters="sRGB">
<feFlood flood-opacity="0" result="BackgroundImageFix"/>
<feColorMatrix in="SourceAlpha" type="matrix" values="0 0 0 0 0 0 0 0 0 0 0 0 0 0 0 0 0 0 127 0" result="hardAlpha"/>
<feOffset dy="2.0806"/>
<feGaussianBlur stdDeviation="8.36748"/>
<feComposite in2="hardAlpha" operator="out"/>
<feColorMatrix type="matrix" values="0 0 0 0 0.508889 0 0 0 0 0.738949 0 0 0 0 0.954167 0 0 0 0.27 0"/>
<feBlend mode="normal" in2="BackgroundImageFix" result="effect1_dropShadow_279_147121"/>
<feBlend mode="normal" in="SourceGraphic" in2="effect1_dropShadow_279_147121" result="shape"/>
</filter>
<filter id="filter1_d_279_147121" x="54.6043" y="225.584" width="109.792" height="54.896" filterUnits="userSpaceOnUse" color-interpolation-filters="sRGB">
<feFlood flood-opacity="0" result="BackgroundImageFix"/>
<feColorMatrix in="SourceAlpha" type="matrix" values="0 0 0 0 0 0 0 0 0 0 0 0 0 0 0 0 0 0 127 0" result="hardAlpha"/>
<feOffset dy="2.92"/>
<feGaussianBlur stdDeviation="4.38"/>
<feColorMatrix type="matrix" values="0 0 0 0 1 0 0 0 0 1 0 0 0 0 1 0 0 0 0.2 0"/>
<feBlend mode="normal" in2="BackgroundImageFix" result="effect1_dropShadow_279_147121"/>
<feBlend mode="normal" in="SourceGraphic" in2="effect1_dropShadow_279_147121" result="shape"/>
</filter>
<radialGradient id="paint0_radial_279_147121" cx="0" cy="0" r="1" gradientUnits="userSpaceOnUse" gradientTransform="translate(5.76182 394.916) rotate(12.712) scale(264.743)">
<stop stop-color="#3D9FFB"/>
<stop offset="1" stop-color="#41F471"/>
</radialGradient>
<radialGradient id="paint1_radial_279_147121" cx="0" cy="0" r="1" gradientUnits="userSpaceOnUse" gradientTransform="translate(5.76182 394.916) rotate(12.712) scale(264.743)">
<stop stop-color="#3D9FFB"/>
<stop offset="1" stop-color="#41F471"/>
</radialGradient>
<clipPath id="clip0_279_147121">
<rect width="219" height="511.48" fill="white"/>
</clipPath>
<clipPath id="clip1_279_147121">
<rect width="14.016" height="14.016" fill="white" transform="translate(193.304 13.6719)"/>
</clipPath>
</defs>
</svg>
