<svg width="219" height="378" viewBox="0 0 219 378" fill="none" xmlns="http://www.w3.org/2000/svg">
<g clip-path="url(#clip0_279_147647)">
<rect width="219" height="502" fill="black"/>
<path d="M12.8435 25.6797V15.8685H14.7216L20.5103 22.9326H19.5992V15.8685H21.8418V25.6797H19.9776L14.175 18.6156H15.0861V25.6797H12.8435ZM28.6342 25.6797V24.208L28.494 23.8856V21.2506C28.494 20.7834 28.3492 20.419 28.0595 20.1574C27.7792 19.8958 27.3447 19.7649 26.756 19.7649C26.3542 19.7649 25.9571 19.8303 25.5647 19.9612C25.1816 20.0826 24.8545 20.2508 24.5835 20.4657L23.7986 18.938C24.2098 18.6483 24.705 18.4241 25.2843 18.2652C25.8637 18.1064 26.4523 18.027 27.0504 18.027C28.1997 18.027 29.092 18.2979 29.7274 18.8399C30.3628 19.3818 30.6805 20.2275 30.6805 21.3768V25.6797H28.6342ZM26.3355 25.7918C25.7469 25.7918 25.2423 25.6937 24.8218 25.4975C24.4013 25.2919 24.079 25.0163 23.8547 24.6705C23.6305 24.3248 23.5183 23.937 23.5183 23.5072C23.5183 23.0587 23.6258 22.6662 23.8407 22.3299C24.065 21.9935 24.4154 21.7318 24.8919 21.545C25.3684 21.3487 25.9898 21.2506 26.756 21.2506H28.7603V22.5261H26.9943C26.4804 22.5261 26.1253 22.6102 25.9291 22.7784C25.7422 22.9466 25.6488 23.1568 25.6488 23.4091C25.6488 23.6894 25.7562 23.9137 25.9711 24.0819C26.1954 24.2407 26.4991 24.3201 26.8822 24.3201C27.2466 24.3201 27.5736 24.236 27.8633 24.0678C28.153 23.8903 28.3632 23.6334 28.494 23.297L28.8304 24.3061C28.6715 24.792 28.3819 25.1611 27.9614 25.4134C27.5409 25.6657 26.999 25.7918 26.3355 25.7918ZM42.3164 18.027C42.9144 18.027 43.4424 18.1484 43.9002 18.3914C44.3674 18.625 44.7318 18.9894 44.9935 19.4846C45.2644 19.9705 45.3999 20.5966 45.3999 21.3628V25.6797H43.2134V21.6991C43.2134 21.0918 43.0873 20.6433 42.835 20.3536C42.5827 20.0639 42.2276 19.9191 41.7698 19.9191C41.4521 19.9191 41.1671 19.9939 40.9148 20.1434C40.6625 20.2835 40.4663 20.4984 40.3261 20.7881C40.186 21.0778 40.1159 21.4469 40.1159 21.8954V25.6797H37.9294V21.6991C37.9294 21.0918 37.8033 20.6433 37.551 20.3536C37.308 20.0639 36.9576 19.9191 36.4998 19.9191C36.1821 19.9191 35.8971 19.9939 35.6448 20.1434C35.3925 20.2835 35.1963 20.4984 35.0561 20.7881C34.916 21.0778 34.8459 21.4469 34.8459 21.8954V25.6797H32.6594V18.1391H34.7478V20.1994L34.3553 19.5967C34.617 19.0828 34.986 18.695 35.4626 18.4334C35.9485 18.1624 36.4998 18.027 37.1165 18.027C37.8079 18.027 38.4106 18.2045 38.9245 18.5596C39.4478 18.9053 39.7935 19.4379 39.9617 20.1574L39.1908 19.9471C39.4431 19.3585 39.8449 18.8913 40.3962 18.5455C40.9569 18.1998 41.5969 18.027 42.3164 18.027ZM51.1568 25.7918C50.2971 25.7918 49.5403 25.6236 48.8862 25.2872C48.2415 24.9509 47.7416 24.493 47.3865 23.9137C47.0314 23.325 46.8539 22.6569 46.8539 21.9094C46.8539 21.1525 47.0267 20.4844 47.3725 19.9051C47.7275 19.3164 48.2088 18.8586 48.8161 18.5315C49.4235 18.1951 50.1103 18.027 50.8765 18.027C51.6146 18.027 52.2781 18.1858 52.8667 18.5035C53.4648 18.8118 53.9366 19.2604 54.2824 19.849C54.6281 20.4284 54.8009 21.1245 54.8009 21.9374C54.8009 22.0215 54.7963 22.1196 54.7869 22.2318C54.7776 22.3345 54.7682 22.4326 54.7589 22.5261H48.6339V21.2506H53.6096L52.7686 21.6291C52.7686 21.2366 52.6892 20.8956 52.5304 20.6059C52.3715 20.3162 52.1519 20.092 51.8716 19.9331C51.5913 19.7649 51.2642 19.6808 50.8905 19.6808C50.5167 19.6808 50.185 19.7649 49.8953 19.9331C49.615 20.092 49.3954 20.3209 49.2366 20.6199C49.0777 20.9096 48.9983 21.2553 48.9983 21.6571V21.9935C48.9983 22.4046 49.0871 22.769 49.2646 23.0867C49.4515 23.3951 49.7085 23.6334 50.0355 23.8015C50.3719 23.9604 50.7643 24.0398 51.2129 24.0398C51.6146 24.0398 51.965 23.9791 52.2641 23.8576C52.5724 23.7361 52.8527 23.5539 53.105 23.311L54.2683 24.5724C53.9226 24.9649 53.4881 25.2686 52.9649 25.4835C52.4416 25.689 51.8389 25.7918 51.1568 25.7918ZM63.3235 25.6797L59.0907 15.8685H61.5435L65.2437 24.5584H63.8001L67.5564 15.8685H69.813L65.5661 25.6797H63.3235ZM70.6321 25.6797V15.8685H74.879C75.7573 15.8685 76.5142 16.0133 77.1496 16.303C77.785 16.5833 78.2755 16.9898 78.6212 17.5224C78.967 18.055 79.1398 18.6904 79.1398 19.4286C79.1398 20.1574 78.967 20.7881 78.6212 21.3207C78.2755 21.8533 77.785 22.2645 77.1496 22.5541C76.5142 22.8344 75.7573 22.9746 74.879 22.9746H71.8936L72.9027 21.9514V25.6797H70.6321ZM72.9027 22.2037L71.8936 21.1245H74.7528C75.4536 21.1245 75.9769 20.975 76.3226 20.676C76.6684 20.377 76.8412 19.9612 76.8412 19.4286C76.8412 18.8866 76.6684 18.4661 76.3226 18.1671C75.9769 17.8681 75.4536 17.7186 74.7528 17.7186H71.8936L72.9027 16.6394V22.2037ZM80.7609 25.6797V15.8685H82.639L88.4276 22.9326H87.5166V15.8685H89.7591V25.6797H87.895L82.0924 18.6156H83.0034V25.6797H80.7609Z" fill="white"/>
<g clip-path="url(#clip1_279_147647)">
<path d="M195.494 20.1797H205.13" stroke="white" stroke-width="1.168" stroke-linecap="round" stroke-linejoin="round"/>
<path d="M195.494 16.6758H205.13" stroke="white" stroke-width="1.168" stroke-linecap="round" stroke-linejoin="round"/>
<path d="M195.494 23.6836H205.13" stroke="white" stroke-width="1.168" stroke-linecap="round" stroke-linejoin="round"/>
</g>
<rect x="11.6802" y="52.04" width="195.64" height="432.136" rx="17.52" fill="#131313"/>
<path d="M55.6988 86C54.0325 86 52.5919 85.7042 51.3772 85.1124C50.1781 84.505 49.2514 83.6718 48.5974 82.6128C47.9433 81.5383 47.6162 80.3002 47.6162 78.8986C47.6162 77.5126 47.8576 76.22 48.3404 75.0208C48.8387 73.8217 49.5318 72.7861 50.4194 71.914C51.3227 71.0263 52.3895 70.3333 53.6198 69.8349C54.8656 69.3366 56.2517 69.0874 57.7778 69.0874C59.2417 69.0874 60.5343 69.3366 61.6556 69.8349C62.7769 70.3333 63.6256 71.0496 64.2018 71.984L61.4687 74.2266C61.0482 73.6037 60.511 73.1287 59.8569 72.8016C59.2028 72.4746 58.4241 72.3111 57.5209 72.3111C56.6021 72.3111 55.7689 72.4746 55.0214 72.8016C54.2738 73.1131 53.6275 73.5647 53.0825 74.1565C52.553 74.7327 52.1481 75.4102 51.8678 76.1888C51.5874 76.9675 51.4473 77.7929 51.4473 78.665C51.4473 79.4904 51.6264 80.2146 51.9846 80.8375C52.3427 81.4448 52.8645 81.9198 53.5497 82.2624C54.2349 82.6051 55.0603 82.7764 56.0258 82.7764C56.8668 82.7764 57.6533 82.6284 58.3852 82.3325C59.1172 82.0211 59.779 81.5383 60.3708 80.8842L62.6134 83.1735C61.7568 84.1702 60.7368 84.8943 59.5532 85.346C58.3852 85.782 57.1004 86 55.6988 86ZM73.1069 85.7197L70.257 79.7396L73.2704 78.3613L77.3117 85.7197H73.1069ZM64.1834 85.7197L66.7063 73.152H70.3504L67.8276 85.7197H64.1834ZM67.7341 80.9543L68.2714 78.0343H72.6864L72.1258 80.9543H67.7341ZM73.4106 79.8797L69.9767 79.4592L75.6765 73.152H79.6477L73.4106 79.8797ZM85.3019 85.9066C84.0249 85.9066 82.9114 85.673 81.9615 85.2058C81.0115 84.7386 80.2718 84.0845 79.7423 83.2436C79.2283 82.4026 78.9714 81.4137 78.9714 80.2768C78.9714 78.8752 79.2984 77.6294 79.9525 76.5392C80.6066 75.4335 81.5021 74.5614 82.6389 73.9229C83.7913 73.2844 85.0995 72.9652 86.5634 72.9652C87.856 72.9652 88.9695 73.1988 89.9039 73.666C90.8538 74.1332 91.5858 74.7872 92.0997 75.6282C92.6292 76.4536 92.8939 77.4425 92.8939 78.5949C92.8939 79.981 92.5669 81.2268 91.9128 82.3325C91.2587 83.4382 90.3633 84.3103 89.2264 84.9488C88.0896 85.5874 86.7814 85.9066 85.3019 85.9066ZM85.5355 82.9165C86.2519 82.9165 86.8826 82.7452 87.4277 82.4026C87.9883 82.0444 88.4244 81.5539 88.7359 80.9309C89.0473 80.308 89.2031 79.5838 89.2031 78.7584C89.2031 77.9175 88.9539 77.24 88.4555 76.7261C87.9572 76.2122 87.2564 75.9552 86.3531 75.9552C85.6368 75.9552 84.9983 76.1343 84.4376 76.4925C83.8926 76.8351 83.4565 77.3179 83.1295 77.9408C82.818 78.5638 82.6623 79.2879 82.6623 80.1133C82.6623 80.9699 82.9114 81.6551 83.4098 82.169C83.9081 82.6674 84.6167 82.9165 85.5355 82.9165ZM102.195 85.9066C101.183 85.9066 100.295 85.7119 99.5324 85.3226C98.7849 84.9333 98.2242 84.3337 97.8505 83.5239C97.4767 82.6985 97.3443 81.6395 97.4533 80.3469C97.5468 78.8519 97.8505 77.5515 98.3644 76.4458C98.8939 75.3401 99.6102 74.4836 100.514 73.8762C101.417 73.2688 102.484 72.9652 103.714 72.9652C104.695 72.9652 105.598 73.191 106.424 73.6426C107.249 74.0787 107.911 74.7172 108.409 75.5581C108.908 76.3835 109.157 77.3958 109.157 78.5949C109.157 79.6383 108.978 80.6117 108.619 81.5149C108.261 82.4026 107.763 83.1735 107.124 83.8276C106.501 84.4816 105.77 84.9956 104.929 85.3693C104.088 85.7275 103.177 85.9066 102.195 85.9066ZM93.2485 90.2516L96.6591 73.152H100.116L99.6025 75.6516L98.8082 79.3892L98.3177 83.1268L96.8927 90.2516H93.2485ZM101.775 82.8932C102.507 82.8932 103.145 82.7219 103.69 82.3792C104.236 82.0211 104.664 81.5383 104.975 80.9309C105.302 80.308 105.466 79.5838 105.466 78.7584C105.466 77.9019 105.217 77.2245 104.718 76.7261C104.22 76.2278 103.511 75.9786 102.593 75.9786C101.892 75.9786 101.261 76.1577 100.7 76.5159C100.14 76.8585 99.7037 77.3413 99.3922 77.9642C99.0808 78.5716 98.925 79.2879 98.925 80.1133C98.925 80.9699 99.1742 81.6473 99.6725 82.1456C100.171 82.644 100.872 82.8932 101.775 82.8932ZM116.989 85.9066C115.711 85.9066 114.598 85.673 113.648 85.2058C112.698 84.7386 111.958 84.0845 111.429 83.2436C110.915 82.4026 110.658 81.4137 110.658 80.2768C110.658 78.8752 110.985 77.6294 111.639 76.5392C112.293 75.4335 113.189 74.5614 114.325 73.9229C115.478 73.2844 116.786 72.9652 118.25 72.9652C119.543 72.9652 120.656 73.1988 121.59 73.666C122.54 74.1332 123.272 74.7872 123.786 75.6282C124.316 76.4536 124.581 77.4425 124.581 78.5949C124.581 79.981 124.253 81.2268 123.599 82.3325C122.945 83.4382 122.05 84.3103 120.913 84.9488C119.776 85.5874 118.468 85.9066 116.989 85.9066ZM117.222 82.9165C117.938 82.9165 118.569 82.7452 119.114 82.4026C119.675 82.0444 120.111 81.5539 120.422 80.9309C120.734 80.308 120.89 79.5838 120.89 78.7584C120.89 77.9175 120.64 77.24 120.142 76.7261C119.644 76.2122 118.943 75.9552 118.04 75.9552C117.323 75.9552 116.685 76.1343 116.124 76.4925C115.579 76.8351 115.143 77.3179 114.816 77.9408C114.505 78.5638 114.349 79.2879 114.349 80.1133C114.349 80.9699 114.598 81.6551 115.096 82.169C115.595 82.6674 116.303 82.9165 117.222 82.9165ZM132.457 85.9066C131.164 85.9066 130.035 85.673 129.07 85.2058C128.12 84.7386 127.38 84.0845 126.851 83.2436C126.321 82.4026 126.056 81.4137 126.056 80.2768C126.056 78.8752 126.383 77.6294 127.038 76.5392C127.692 75.4335 128.595 74.5614 129.747 73.9229C130.9 73.2844 132.223 72.9652 133.718 72.9652C135.058 72.9652 136.218 73.2455 137.199 73.8061C138.18 74.3512 138.904 75.1299 139.372 76.1421L136.288 77.6839C136.023 77.0921 135.65 76.6638 135.167 76.3991C134.7 76.1188 134.139 75.9786 133.485 75.9786C132.768 75.9786 132.13 76.1577 131.569 76.5159C131.009 76.8585 130.565 77.3413 130.238 77.9642C129.911 78.5716 129.747 79.2802 129.747 80.09C129.747 80.9465 129.996 81.6317 130.495 82.1456C131.009 82.644 131.733 82.8932 132.667 82.8932C133.306 82.8932 133.89 82.7608 134.419 82.496C134.949 82.2157 135.393 81.7875 135.751 81.2112L138.437 82.8932C137.845 83.8431 137.02 84.5829 135.961 85.1124C134.918 85.6419 133.75 85.9066 132.457 85.9066ZM142.584 85.7197L144.617 75.3012L145.271 76.1421H140.248L140.856 73.152H152.98L152.372 76.1421H147.256L148.261 75.3012L146.229 85.7197H142.584ZM160.716 77.17C162.179 77.17 163.285 77.4736 164.033 78.081C164.796 78.6728 165.177 79.5605 165.177 80.744C165.177 81.7407 164.913 82.6128 164.383 83.3604C163.869 84.1079 163.145 84.6919 162.211 85.1124C161.276 85.5173 160.17 85.7197 158.893 85.7197H152.399L154.922 73.152H158.543L157.749 77.17H160.716ZM158.893 83.1501C159.423 83.1501 159.882 83.0645 160.272 82.8932C160.661 82.7063 160.965 82.4493 161.183 82.1223C161.401 81.7952 161.51 81.4059 161.51 80.9543C161.51 80.0043 160.887 79.5293 159.641 79.5293H157.282L156.557 83.1501H158.893ZM41.2226 113.72L43.7455 101.152H47.3897L45.8246 108.791L53.4166 101.152H56.8505L54.351 113.72H50.6834L52.2719 106.058L44.6799 113.72H41.2226ZM71.08 113.907C69.7874 113.907 68.6583 113.673 67.6928 113.206C66.7428 112.739 66.0031 112.085 65.4736 111.244C64.9441 110.403 64.6794 109.414 64.6794 108.277C64.6794 106.875 65.0064 105.629 65.6605 104.539C66.3146 103.434 67.2178 102.561 68.3702 101.923C69.5227 101.284 70.8464 100.965 72.3414 100.965C73.6807 100.965 74.841 101.245 75.8221 101.806C76.8032 102.351 77.5274 103.13 77.9946 104.142L74.911 105.684C74.6463 105.092 74.2725 104.664 73.7898 104.399C73.3226 104.119 72.7619 103.979 72.1078 103.979C71.3915 103.979 70.753 104.158 70.1923 104.516C69.6317 104.858 69.1878 105.341 68.8608 105.964C68.5338 106.572 68.3702 107.28 68.3702 108.09C68.3702 108.946 68.6194 109.632 69.1178 110.146C69.6317 110.644 70.3558 110.893 71.2902 110.893C71.9287 110.893 72.5127 110.761 73.0422 110.496C73.5717 110.216 74.0156 109.787 74.3738 109.211L77.0602 110.893C76.4684 111.843 75.643 112.583 74.584 113.112C73.5406 113.642 72.3726 113.907 71.08 113.907ZM78.5439 113.72L81.0668 101.152H87.374C88.8067 101.152 89.9124 101.409 90.6911 101.923C91.4697 102.437 91.8591 103.177 91.8591 104.142C91.8591 105.201 91.3919 106.058 90.4575 106.712C89.5387 107.35 88.3084 107.669 86.7666 107.669L87.0703 106.852C88.4096 106.852 89.4219 107.093 90.1071 107.576C90.7923 108.059 91.1349 108.799 91.1349 109.795C91.1349 111.01 90.6288 111.968 89.6165 112.669C88.6198 113.369 87.2182 113.72 85.4117 113.72H78.5439ZM82.3983 111.244H85.4818C86.1982 111.244 86.7588 111.096 87.1637 110.8C87.5842 110.504 87.7944 110.107 87.7944 109.608C87.7944 109.219 87.6543 108.931 87.374 108.744C87.1092 108.557 86.6965 108.464 86.1359 108.464H82.9589L82.3983 111.244ZM83.3794 106.315H86.1359C86.79 106.315 87.3195 106.174 87.7244 105.894C88.1293 105.598 88.3317 105.217 88.3317 104.749C88.3317 104.36 88.1916 104.072 87.9112 103.885C87.6309 103.698 87.2182 103.605 86.6732 103.605H83.9167L83.3794 106.315ZM99.6396 113.907C98.3626 113.907 97.2491 113.673 96.2991 113.206C95.3492 112.739 94.6094 112.085 94.0799 111.244C93.566 110.403 93.309 109.414 93.309 108.277C93.309 106.875 93.6361 105.629 94.2902 104.539C94.9442 103.434 95.8397 102.561 96.9766 101.923C98.129 101.284 99.4372 100.965 100.901 100.965C102.194 100.965 103.307 101.199 104.242 101.666C105.191 102.133 105.923 102.787 106.437 103.628C106.967 104.454 107.232 105.442 107.232 106.595C107.232 107.981 106.905 109.227 106.25 110.333C105.596 111.438 104.701 112.31 103.564 112.949C102.427 113.587 101.119 113.907 99.6396 113.907ZM99.8732 110.917C100.59 110.917 101.22 110.745 101.765 110.403C102.326 110.044 102.762 109.554 103.074 108.931C103.385 108.308 103.541 107.584 103.541 106.758C103.541 105.917 103.292 105.24 102.793 104.726C102.295 104.212 101.594 103.955 100.691 103.955C99.9744 103.955 99.3359 104.134 98.7753 104.493C98.2302 104.835 97.7942 105.318 97.4671 105.941C97.1557 106.564 96.9999 107.288 96.9999 108.113C96.9999 108.97 97.2491 109.655 97.7474 110.169C98.2458 110.667 98.9544 110.917 99.8732 110.917ZM115.295 114C113.364 114 111.853 113.478 110.763 112.435C109.689 111.392 109.151 109.811 109.151 107.693C109.151 106.369 109.346 105.123 109.735 103.955C110.14 102.772 110.716 101.705 111.464 100.755C112.211 99.805 113.107 99.0107 114.15 98.3722C115.209 97.7337 116.393 97.2976 117.701 97.064L123.962 95.9194L123.915 98.9796L118.542 99.9373C117.358 100.14 116.362 100.514 115.552 101.059C114.742 101.604 114.111 102.328 113.66 103.231C113.208 104.134 112.904 105.24 112.749 106.548L111.861 105.544C112.64 104.5 113.527 103.722 114.524 103.208C115.521 102.678 116.634 102.413 117.865 102.413C119.453 102.413 120.707 102.842 121.626 103.698C122.544 104.539 123.004 105.723 123.004 107.249C123.004 108.542 122.677 109.702 122.023 110.73C121.384 111.742 120.489 112.544 119.336 113.136C118.184 113.712 116.837 114 115.295 114ZM115.482 111.244C116.183 111.244 116.798 111.088 117.327 110.776C117.872 110.465 118.293 110.044 118.589 109.515C118.9 108.97 119.056 108.37 119.056 107.716C119.056 106.906 118.822 106.291 118.355 105.871C117.904 105.435 117.273 105.217 116.463 105.217C115.949 105.217 115.466 105.302 115.015 105.474C114.563 105.645 114.166 105.886 113.823 106.198C113.481 106.509 113.216 106.875 113.029 107.296C112.842 107.716 112.749 108.168 112.749 108.651C112.749 109.445 112.99 110.076 113.473 110.543C113.971 111.01 114.641 111.244 115.482 111.244ZM130.847 113.907C129.57 113.907 128.457 113.673 127.507 113.206C126.557 112.739 125.817 112.085 125.287 111.244C124.774 110.403 124.517 109.414 124.517 108.277C124.517 106.875 124.844 105.629 125.498 104.539C126.152 103.434 127.047 102.561 128.184 101.923C129.336 101.284 130.645 100.965 132.109 100.965C133.401 100.965 134.515 101.199 135.449 101.666C136.399 102.133 137.131 102.787 137.645 103.628C138.174 104.454 138.439 105.442 138.439 106.595C138.439 107.981 138.112 109.227 137.458 110.333C136.804 111.438 135.908 112.31 134.772 112.949C133.635 113.587 132.327 113.907 130.847 113.907ZM131.081 110.917C131.797 110.917 132.428 110.745 132.973 110.403C133.534 110.044 133.97 109.554 134.281 108.931C134.592 108.308 134.748 107.584 134.748 106.758C134.748 105.917 134.499 105.24 134.001 104.726C133.502 104.212 132.802 103.955 131.898 103.955C131.182 103.955 130.543 104.134 129.983 104.493C129.438 104.835 129.002 105.318 128.675 105.941C128.363 106.564 128.207 107.288 128.207 108.113C128.207 108.97 128.457 109.655 128.955 110.169C129.453 110.667 130.162 110.917 131.081 110.917ZM148.469 112.085L150.058 104.142H145.946L145.526 105.894C145.37 106.564 145.207 107.194 145.035 107.786C144.879 108.378 144.693 108.923 144.475 109.421C144.257 109.904 144 110.309 143.704 110.636C143.408 110.948 143.034 111.166 142.582 111.29L138.868 110.73C139.32 110.73 139.717 110.589 140.06 110.309C140.418 110.013 140.729 109.616 140.994 109.118C141.274 108.604 141.523 108.028 141.741 107.389C141.959 106.735 142.154 106.058 142.325 105.357L143.33 101.152H154.286L152.113 112.085H148.469ZM137.443 116.429L138.588 110.73H154.192L153.048 116.429H149.66L150.198 113.72H141.368L140.83 116.429H137.443ZM161.579 113.907C160.613 113.907 159.718 113.689 158.892 113.253C158.067 112.801 157.405 112.155 156.907 111.314C156.408 110.473 156.159 109.46 156.159 108.277C156.159 107.218 156.33 106.245 156.673 105.357C157.031 104.469 157.53 103.698 158.168 103.044C158.807 102.39 159.546 101.884 160.387 101.526C161.228 101.152 162.131 100.965 163.097 100.965C164.14 100.965 165.036 101.16 165.783 101.549C166.531 101.938 167.084 102.546 167.442 103.371C167.816 104.181 167.948 105.232 167.839 106.525C167.761 108.004 167.458 109.305 166.928 110.426C166.399 111.532 165.682 112.388 164.779 112.996C163.891 113.603 162.825 113.907 161.579 113.907ZM162.7 110.893C163.416 110.893 164.047 110.722 164.592 110.379C165.153 110.021 165.589 109.538 165.9 108.931C166.227 108.308 166.391 107.584 166.391 106.758C166.391 105.902 166.134 105.224 165.62 104.726C165.122 104.228 164.421 103.979 163.518 103.979C162.817 103.979 162.186 104.158 161.625 104.516C161.065 104.858 160.621 105.341 160.294 105.964C159.982 106.572 159.827 107.288 159.827 108.113C159.827 108.97 160.076 109.647 160.574 110.146C161.088 110.644 161.797 110.893 162.7 110.893ZM165.199 113.72L165.69 111.22L166.508 107.483L166.998 103.745L167.512 101.152H171.156L168.657 113.72H165.199ZM28.5731 141.72L31.096 129.152H37.4032C38.8359 129.152 39.9416 129.409 40.7203 129.923C41.499 130.437 41.8883 131.177 41.8883 132.142C41.8883 133.201 41.4211 134.058 40.4867 134.712C39.5679 135.35 38.3376 135.669 36.7958 135.669L37.0995 134.852C38.4388 134.852 39.4511 135.093 40.1363 135.576C40.8215 136.059 41.1641 136.799 41.1641 137.795C41.1641 139.01 40.658 139.968 39.6457 140.669C38.649 141.369 37.2474 141.72 35.4409 141.72H28.5731ZM32.4275 139.244H35.511C36.2274 139.244 36.788 139.096 37.1929 138.8C37.6134 138.504 37.8237 138.107 37.8237 137.608C37.8237 137.219 37.6835 136.931 37.4032 136.744C37.1384 136.557 36.7257 136.464 36.1651 136.464H32.9881L32.4275 139.244ZM33.4086 134.315H36.1651C36.8192 134.315 37.3487 134.174 37.7536 133.894C38.1585 133.598 38.3609 133.217 38.3609 132.749C38.3609 132.36 38.2208 132.072 37.9405 131.885C37.6601 131.698 37.2474 131.605 36.7024 131.605H33.9459L33.4086 134.315ZM56.2844 141.907C55.0074 141.907 53.8939 141.673 52.944 141.206C51.994 140.739 51.2543 140.085 50.7248 139.244C50.2108 138.403 49.9539 137.414 49.9539 136.277C49.9539 134.875 50.2809 133.629 50.935 132.539C51.5891 131.434 52.4845 130.561 53.6214 129.923C54.7738 129.284 56.082 128.965 57.5459 128.965C58.8385 128.965 59.952 129.199 60.8864 129.666C61.8363 130.133 62.5683 130.787 63.0822 131.628C63.6117 132.454 63.8764 133.442 63.8764 134.595C63.8764 135.981 63.5494 137.227 62.8953 138.333C62.2412 139.438 61.3458 140.31 60.2089 140.949C59.0721 141.587 57.7639 141.907 56.2844 141.907ZM56.518 138.917C57.2344 138.917 57.8651 138.745 58.4102 138.403C58.9708 138.044 59.4069 137.554 59.7184 136.931C60.0298 136.308 60.1856 135.584 60.1856 134.758C60.1856 133.917 59.9364 133.24 59.438 132.726C58.9397 132.212 58.2389 131.955 57.3356 131.955C56.6193 131.955 55.9808 132.134 55.4201 132.493C54.8751 132.835 54.439 133.318 54.112 133.941C53.8005 134.564 53.6448 135.288 53.6448 136.113C53.6448 136.97 53.8939 137.655 54.3923 138.169C54.8906 138.667 55.5992 138.917 56.518 138.917ZM73.9065 140.085L75.4949 132.142H71.3836L70.9631 133.894C70.8074 134.564 70.6438 135.194 70.4725 135.786C70.3168 136.378 70.1299 136.923 69.9119 137.421C69.6939 137.904 69.4369 138.309 69.141 138.636C68.8451 138.948 68.4714 139.166 68.0197 139.29L64.3055 138.73C64.7571 138.73 65.1542 138.589 65.4969 138.309C65.855 138.013 66.1665 137.616 66.4313 137.118C66.7116 136.604 66.9608 136.028 67.1788 135.389C67.3968 134.735 67.5915 134.058 67.7628 133.357L68.7673 129.152H79.7231L77.5506 140.085H73.9065ZM62.8805 144.429L64.0252 138.73H79.6297L78.485 144.429H75.0978L75.6351 141.72H66.805L66.2677 144.429H62.8805ZM81.2928 141.72L83.8157 129.152H87.4365L86.4553 134.058H91.9216L92.9027 129.152H96.5235L94.024 141.72H90.3798L91.3142 137.024H85.8713L84.9369 141.72H81.2928ZM104.077 141.907C102.8 141.907 101.686 141.673 100.736 141.206C99.7862 140.739 99.0464 140.085 98.517 139.244C98.003 138.403 97.7461 137.414 97.7461 136.277C97.7461 134.875 98.0731 133.629 98.7272 132.539C99.3813 131.434 100.277 130.561 101.414 129.923C102.566 129.284 103.874 128.965 105.338 128.965C106.631 128.965 107.744 129.199 108.679 129.666C109.629 130.133 110.36 130.787 110.874 131.628C111.404 132.454 111.669 133.442 111.669 134.595C111.669 135.981 111.342 137.227 110.688 138.333C110.033 139.438 109.138 140.31 108.001 140.949C106.864 141.587 105.556 141.907 104.077 141.907ZM104.31 138.917C105.027 138.917 105.657 138.745 106.202 138.403C106.763 138.044 107.199 137.554 107.511 136.931C107.822 136.308 107.978 135.584 107.978 134.758C107.978 133.917 107.729 133.24 107.23 132.726C106.732 132.212 106.031 131.955 105.128 131.955C104.411 131.955 103.773 132.134 103.212 132.493C102.667 132.835 102.231 133.318 101.904 133.941C101.593 134.564 101.437 135.288 101.437 136.113C101.437 136.97 101.686 137.655 102.184 138.169C102.683 138.667 103.391 138.917 104.31 138.917ZM112.911 141.72L115.434 129.152H119.195L122.232 137.749H120.713L127.488 129.152H130.945L128.469 141.72H125.175L126.904 132.89L127.441 133.263L121.718 140.505H120.176L117.326 133.006L117.957 132.843L116.205 141.72H112.911ZM143.667 141.72L139.883 125.368H143.784L147.078 139.874H144.625L153.829 125.368H157.754L147.405 141.72H143.667ZM155.848 141.72L159.119 125.368H165.73C167.77 125.368 169.343 125.819 170.448 126.723C171.57 127.61 172.13 128.856 172.13 130.46C172.13 131.831 171.811 133.03 171.173 134.058C170.534 135.07 169.615 135.849 168.416 136.394C167.233 136.939 165.823 137.211 164.188 137.211H158.885L160.894 135.483L159.656 141.72H155.848ZM160.801 135.926L159.469 134.128H164.351C165.597 134.128 166.563 133.847 167.248 133.287C167.949 132.711 168.299 131.877 168.299 130.787C168.299 129.993 168.035 129.409 167.505 129.035C166.976 128.646 166.228 128.451 165.262 128.451H160.661L162.67 126.606L160.801 135.926ZM172.73 141.72L176 125.368H179.13L186.162 137.211L184.924 137.141L187.26 125.368H190.997L187.727 141.72H184.62L177.565 129.876L178.827 129.946L176.467 141.72H172.73Z" fill="white"/>
<path d="M56.0082 170.127C55.4546 170.127 54.9395 170.035 54.463 169.853C53.9934 169.664 53.5835 169.401 53.2331 169.065C52.8897 168.721 52.6199 168.325 52.4236 167.877C52.2344 167.421 52.1398 166.924 52.1398 166.384C52.1398 165.845 52.2344 165.351 52.4236 164.902C52.6199 164.447 52.8897 164.051 53.2331 163.714C53.5835 163.371 53.9934 163.108 54.463 162.926C54.9325 162.737 55.4476 162.642 56.0082 162.642C56.5619 162.642 57.0734 162.737 57.543 162.926C58.0125 163.108 58.419 163.367 58.7624 163.704C59.1128 164.04 59.3826 164.436 59.5718 164.892C59.768 165.347 59.8661 165.845 59.8661 166.384C59.8661 166.924 59.768 167.421 59.5718 167.877C59.3826 168.333 59.1128 168.728 58.7624 169.065C58.419 169.401 58.0125 169.664 57.543 169.853C57.0734 170.035 56.5619 170.127 56.0082 170.127ZM56.0082 169.433C56.4497 169.433 56.8562 169.359 57.2276 169.212C57.6061 169.058 57.9319 168.844 58.2052 168.571C58.4856 168.29 58.7028 167.968 58.857 167.604C59.0112 167.232 59.0882 166.826 59.0882 166.384C59.0882 165.943 59.0112 165.54 58.857 165.175C58.7028 164.804 58.4856 164.482 58.2052 164.208C57.9319 163.928 57.6061 163.714 57.2276 163.567C56.8562 163.413 56.4497 163.336 56.0082 163.336C55.5667 163.336 55.1568 163.413 54.7783 163.567C54.3999 163.714 54.0705 163.928 53.7902 164.208C53.5169 164.482 53.2996 164.804 53.1385 165.175C52.9843 165.54 52.9072 165.943 52.9072 166.384C52.9072 166.819 52.9843 167.222 53.1385 167.593C53.2996 167.965 53.5169 168.29 53.7902 168.571C54.0705 168.844 54.3999 169.058 54.7783 169.212C55.1568 169.359 55.5667 169.433 56.0082 169.433ZM61.5437 170.063V164.545H62.2901V169.412H65.6644V164.545H66.4108V170.063H61.5437ZM66.6 171.399V170L66.7892 170.063H65.6644V169.412H67.3043V171.399H66.6ZM71.0948 170.116C70.5202 170.116 70.0156 169.997 69.5811 169.759C69.1466 169.513 68.8067 169.18 68.5614 168.76C68.3162 168.333 68.1935 167.845 68.1935 167.299C68.1935 166.752 68.3092 166.269 68.5404 165.848C68.7787 165.428 69.1011 165.098 69.5075 164.86C69.921 164.615 70.3835 164.492 70.8951 164.492C71.4137 164.492 71.8727 164.611 72.2722 164.85C72.6786 165.081 72.9975 165.41 73.2288 165.838C73.46 166.258 73.5757 166.745 73.5757 167.299C73.5757 167.334 73.5722 167.372 73.5652 167.414C73.5652 167.449 73.5652 167.488 73.5652 167.53H68.7612V166.973H73.1657L72.8714 167.194C72.8714 166.794 72.7838 166.44 72.6086 166.132C72.4404 165.817 72.2091 165.571 71.9148 165.396C71.6204 165.221 71.2806 165.133 70.8951 165.133C70.5167 165.133 70.1768 165.221 69.8754 165.396C69.5741 165.571 69.3393 165.817 69.1711 166.132C69.003 166.447 68.9189 166.808 68.9189 167.215V167.33C68.9189 167.751 69.01 168.122 69.1922 168.445C69.3814 168.76 69.6407 169.009 69.9701 169.191C70.3064 169.366 70.6884 169.454 71.1159 169.454C71.4522 169.454 71.7641 169.394 72.0514 169.275C72.3458 169.156 72.5981 168.974 72.8083 168.728L73.2288 169.212C72.9835 169.506 72.6751 169.731 72.3037 169.885C71.9393 170.039 71.5363 170.116 71.0948 170.116ZM75.2278 170.063V164.545H75.9741V166.983H79.4536V164.545H80.2V170.063H79.4536V167.625H75.9741V170.063H75.2278ZM82.3213 170.063V164.545H83.0677V168.928L86.7574 164.545H87.4196V170.063H86.6733V165.669L82.9941 170.063H82.3213ZM90.6098 170.063V164.997L90.799 165.196H88.5179V164.545H93.448V165.196H91.1669L91.3561 164.997V170.063H90.6098ZM96.6357 170.116C96.0611 170.116 95.5565 169.997 95.122 169.759C94.6875 169.513 94.3476 169.18 94.1023 168.76C93.857 168.333 93.7344 167.845 93.7344 167.299C93.7344 166.752 93.85 166.269 94.0813 165.848C94.3196 165.428 94.6419 165.098 95.0484 164.86C95.4619 164.615 95.9244 164.492 96.436 164.492C96.9546 164.492 97.4136 164.611 97.8131 164.85C98.2195 165.081 98.5384 165.41 98.7696 165.838C99.0009 166.258 99.1165 166.745 99.1165 167.299C99.1165 167.334 99.113 167.372 99.106 167.414C99.106 167.449 99.106 167.488 99.106 167.53H94.302V166.973H98.7066L98.4122 167.194C98.4122 166.794 98.3246 166.44 98.1494 166.132C97.9812 165.817 97.75 165.571 97.4556 165.396C97.1613 165.221 96.8214 165.133 96.436 165.133C96.0576 165.133 95.7177 165.221 95.4163 165.396C95.115 165.571 94.8802 165.817 94.712 166.132C94.5438 166.447 94.4597 166.808 94.4597 167.215V167.33C94.4597 167.751 94.5508 168.122 94.733 168.445C94.9223 168.76 95.1816 169.009 95.5109 169.191C95.8473 169.366 96.2292 169.454 96.6567 169.454C96.9931 169.454 97.305 169.394 97.5923 169.275C97.8866 169.156 98.1389 168.974 98.3492 168.728L98.7696 169.212C98.5244 169.506 98.216 169.731 97.8446 169.885C97.4802 170.039 97.0772 170.116 96.6357 170.116ZM103.52 170.063V164.545H104.266V166.983H107.746V164.545H108.492V170.063H107.746V167.625H104.266V170.063H103.52ZM114.04 170.063V168.844L114.009 168.644V166.605C114.009 166.135 113.876 165.775 113.609 165.522C113.35 165.27 112.961 165.144 112.442 165.144C112.085 165.144 111.745 165.203 111.423 165.323C111.1 165.442 110.827 165.599 110.603 165.796L110.266 165.238C110.547 165 110.883 164.818 111.276 164.692C111.668 164.559 112.082 164.492 112.516 164.492C113.231 164.492 113.781 164.671 114.166 165.028C114.559 165.379 114.755 165.915 114.755 166.637V170.063H114.04ZM112.138 170.116C111.724 170.116 111.363 170.049 111.055 169.916C110.754 169.776 110.522 169.587 110.361 169.349C110.2 169.103 110.119 168.823 110.119 168.508C110.119 168.22 110.186 167.961 110.319 167.73C110.459 167.492 110.683 167.302 110.992 167.162C111.307 167.015 111.728 166.941 112.253 166.941H114.156V167.499H112.274C111.742 167.499 111.37 167.593 111.16 167.782C110.957 167.972 110.855 168.206 110.855 168.487C110.855 168.802 110.978 169.054 111.223 169.244C111.468 169.433 111.812 169.527 112.253 169.527C112.674 169.527 113.035 169.433 113.336 169.244C113.644 169.047 113.869 168.767 114.009 168.403L114.177 168.918C114.037 169.282 113.792 169.573 113.441 169.79C113.098 170.007 112.663 170.116 112.138 170.116ZM120.369 169.412L120.2 169.611V164.545H120.947V169.611L120.747 169.412H123.827L123.627 169.611V164.545H124.374V170.063H116.742V164.545H117.488V169.611L117.299 169.412H120.369ZM126.589 172.155C126.33 172.155 126.081 172.113 125.843 172.029C125.611 171.945 125.412 171.819 125.243 171.651L125.59 171.094C125.73 171.227 125.881 171.328 126.042 171.399C126.21 171.476 126.396 171.514 126.599 171.514C126.845 171.514 127.055 171.444 127.23 171.304C127.412 171.171 127.584 170.932 127.745 170.589L128.103 169.78L128.187 169.664L130.457 164.545H131.193L128.429 170.726C128.274 171.083 128.103 171.367 127.913 171.577C127.731 171.787 127.531 171.935 127.314 172.019C127.097 172.11 126.855 172.155 126.589 172.155ZM128.061 170.221L125.517 164.545H126.295L128.544 169.611L128.061 170.221ZM135.107 170.063V164.545H135.864L138.366 168.781H138.051L140.594 164.545H141.288V170.063H140.605V165.396L140.742 165.459L138.366 169.391H138.03L135.633 165.417L135.79 165.386V170.063H135.107ZM145.683 170.116C145.15 170.116 144.67 169.997 144.243 169.759C143.822 169.513 143.489 169.18 143.244 168.76C142.999 168.333 142.876 167.845 142.876 167.299C142.876 166.745 142.999 166.258 143.244 165.838C143.489 165.417 143.822 165.088 144.243 164.85C144.663 164.611 145.143 164.492 145.683 164.492C146.229 164.492 146.713 164.611 147.133 164.85C147.561 165.088 147.894 165.417 148.132 165.838C148.377 166.258 148.5 166.745 148.5 167.299C148.5 167.845 148.377 168.333 148.132 168.76C147.894 169.18 147.561 169.513 147.133 169.759C146.706 169.997 146.222 170.116 145.683 170.116ZM145.683 169.454C146.082 169.454 146.436 169.366 146.744 169.191C147.053 169.009 147.295 168.756 147.47 168.434C147.652 168.105 147.743 167.726 147.743 167.299C147.743 166.864 147.652 166.486 147.47 166.164C147.295 165.841 147.053 165.592 146.744 165.417C146.436 165.235 146.086 165.144 145.693 165.144C145.301 165.144 144.95 165.235 144.642 165.417C144.334 165.592 144.088 165.841 143.906 166.164C143.724 166.486 143.633 166.864 143.633 167.299C143.633 167.726 143.724 168.105 143.906 168.434C144.088 168.756 144.334 169.009 144.642 169.191C144.95 169.366 145.297 169.454 145.683 169.454ZM153.722 169.412L153.553 169.611V164.545H154.3V169.611L154.1 169.412H157.18L156.98 169.611V164.545H157.727V170.063H150.095V164.545H150.841V169.611L150.652 169.412H153.722ZM157.874 171.272V169.864L158.063 170.063H156.938V169.412H158.578V171.272H157.874ZM162.223 166.489C162.917 166.496 163.442 166.651 163.8 166.952C164.164 167.253 164.346 167.688 164.346 168.255C164.346 168.844 164.15 169.296 163.758 169.611C163.372 169.927 162.812 170.081 162.076 170.074L159.847 170.063V164.545H160.594V166.468L162.223 166.489ZM162.034 169.506C162.545 169.513 162.931 169.412 163.19 169.201C163.456 168.984 163.59 168.669 163.59 168.255C163.59 167.842 163.46 167.541 163.201 167.351C162.941 167.155 162.552 167.054 162.034 167.047L160.594 167.026V169.485L162.034 169.506ZM50.1107 187.116C49.564 187.116 49.0735 186.997 48.639 186.759C48.2115 186.513 47.8751 186.18 47.6298 185.76C47.3846 185.333 47.2619 184.845 47.2619 184.299C47.2619 183.745 47.3846 183.258 47.6298 182.838C47.8751 182.417 48.2115 182.088 48.639 181.85C49.0735 181.611 49.564 181.492 50.1107 181.492C50.5802 181.492 51.0042 181.583 51.3826 181.765C51.7611 181.948 52.0589 182.221 52.2761 182.585L51.719 182.964C51.5298 182.683 51.295 182.477 51.0147 182.344C50.7344 182.21 50.4295 182.144 50.1002 182.144C49.7077 182.144 49.3538 182.235 49.0384 182.417C48.7231 182.592 48.4743 182.841 48.2921 183.164C48.1099 183.486 48.0188 183.864 48.0188 184.299C48.0188 184.733 48.1099 185.112 48.2921 185.434C48.4743 185.756 48.7231 186.009 49.0384 186.191C49.3538 186.366 49.7077 186.454 50.1002 186.454C50.4295 186.454 50.7344 186.387 51.0147 186.254C51.295 186.121 51.5298 185.918 51.719 185.644L52.2761 186.023C52.0589 186.38 51.7611 186.654 51.3826 186.843C51.0042 187.025 50.5802 187.116 50.1107 187.116ZM58.9533 187.127C58.5048 187.127 58.1054 187.053 57.755 186.906C57.4116 186.759 57.1172 186.534 56.8719 186.233C56.6267 185.932 56.441 185.56 56.3148 185.119C56.1887 184.67 56.1256 184.152 56.1256 183.563C56.1256 183.037 56.1746 182.578 56.2728 182.186C56.3709 181.786 56.5075 181.443 56.6827 181.156C56.8579 180.868 57.0612 180.627 57.2924 180.43C57.5307 180.227 57.7865 180.066 58.0598 179.947C58.3401 179.821 58.6274 179.726 58.9218 179.663L61.4026 179.085L61.5288 179.779L59.1951 180.304C59.0479 180.339 58.8692 180.388 58.659 180.451C58.4558 180.515 58.2455 180.609 58.0283 180.735C57.818 180.861 57.6218 181.037 57.4396 181.261C57.2574 181.485 57.1102 181.776 56.9981 182.133C56.893 182.484 56.8404 182.922 56.8404 183.447C56.8404 183.559 56.8439 183.651 56.8509 183.721C56.8579 183.784 56.8649 183.854 56.8719 183.931C56.886 184.001 56.8965 184.106 56.9035 184.246L56.5776 183.973C56.6547 183.545 56.8124 183.174 57.0506 182.859C57.2889 182.536 57.5868 182.288 57.9442 182.112C58.3086 181.93 58.7115 181.839 59.153 181.839C59.6646 181.839 60.1202 181.951 60.5196 182.175C60.9191 182.393 61.2309 182.697 61.4552 183.09C61.6864 183.482 61.8021 183.938 61.8021 184.457C61.8021 184.968 61.6829 185.427 61.4447 185.834C61.2134 186.24 60.884 186.559 60.4565 186.79C60.029 187.014 59.528 187.127 58.9533 187.127ZM59.0374 186.506C59.4299 186.506 59.7768 186.419 60.0781 186.244C60.3794 186.061 60.6142 185.816 60.7824 185.508C60.9576 185.199 61.0452 184.852 61.0452 184.467C61.0452 184.089 60.9576 183.752 60.7824 183.458C60.6142 183.164 60.3794 182.932 60.0781 182.764C59.7768 182.589 59.4264 182.501 59.0269 182.501C58.6345 182.501 58.2876 182.585 57.9862 182.754C57.6849 182.915 57.4466 183.143 57.2714 183.437C57.1032 183.731 57.0191 184.071 57.0191 184.457C57.0191 184.842 57.1032 185.189 57.2714 185.497C57.4466 185.806 57.6849 186.051 57.9862 186.233C58.2946 186.415 58.645 186.506 59.0374 186.506ZM65.767 187.116C65.1923 187.116 64.6878 186.997 64.2533 186.759C63.8188 186.513 63.4789 186.18 63.2336 185.76C62.9883 185.333 62.8657 184.845 62.8657 184.299C62.8657 183.752 62.9813 183.269 63.2126 182.848C63.4508 182.428 63.7732 182.098 64.1797 181.86C64.5931 181.615 65.0557 181.492 65.5673 181.492C66.0858 181.492 66.5449 181.611 66.9443 181.85C67.3508 182.081 67.6697 182.41 67.9009 182.838C68.1322 183.258 68.2478 183.745 68.2478 184.299C68.2478 184.334 68.2443 184.372 68.2373 184.414C68.2373 184.449 68.2373 184.488 68.2373 184.53H63.4333V183.973H67.8378L67.5435 184.194C67.5435 183.794 67.4559 183.44 67.2807 183.132C67.1125 182.817 66.8813 182.571 66.5869 182.396C66.2926 182.221 65.9527 182.133 65.5673 182.133C65.1888 182.133 64.8489 182.221 64.5476 182.396C64.2462 182.571 64.0115 182.817 63.8433 183.132C63.6751 183.447 63.591 183.808 63.591 184.215V184.33C63.591 184.751 63.6821 185.122 63.8643 185.445C64.0535 185.76 64.3128 186.009 64.6422 186.191C64.9786 186.366 65.3605 186.454 65.788 186.454C66.1244 186.454 66.4362 186.394 66.7236 186.275C67.0179 186.156 67.2702 185.974 67.4804 185.728L67.9009 186.212C67.6556 186.506 67.3473 186.731 66.9759 186.885C66.6114 187.039 66.2085 187.116 65.767 187.116ZM72.2126 187.116C71.6659 187.116 71.1754 186.997 70.7409 186.759C70.3134 186.513 69.977 186.18 69.7317 185.76C69.4865 185.333 69.3638 184.845 69.3638 184.299C69.3638 183.745 69.4865 183.258 69.7317 182.838C69.977 182.417 70.3134 182.088 70.7409 181.85C71.1754 181.611 71.6659 181.492 72.2126 181.492C72.6821 181.492 73.1061 181.583 73.4845 181.765C73.8629 181.948 74.1608 182.221 74.378 182.585L73.8209 182.964C73.6317 182.683 73.3969 182.477 73.1166 182.344C72.8363 182.21 72.5314 182.144 72.2021 182.144C71.8096 182.144 71.4557 182.235 71.1403 182.417C70.825 182.592 70.5762 182.841 70.394 183.164C70.2118 183.486 70.1207 183.864 70.1207 184.299C70.1207 184.733 70.2118 185.112 70.394 185.434C70.5762 185.756 70.825 186.009 71.1403 186.191C71.4557 186.366 71.8096 186.454 72.2021 186.454C72.5314 186.454 72.8363 186.387 73.1166 186.254C73.3969 186.121 73.6317 185.918 73.8209 185.644L74.378 186.023C74.1608 186.38 73.8629 186.654 73.4845 186.843C73.1061 187.025 72.6821 187.116 72.2126 187.116ZM75.8232 187.063V181.545H80.7849V187.063H80.0385V181.997L80.2277 182.196H76.3803L76.5695 181.997V187.063H75.8232ZM81.8973 187.053L81.9499 186.412C81.9989 186.419 82.0445 186.429 82.0865 186.443C82.1356 186.45 82.1776 186.454 82.2127 186.454C82.4369 186.454 82.6156 186.37 82.7488 186.201C82.8889 186.033 82.9941 185.809 83.0641 185.529C83.1342 185.248 83.1833 184.933 83.2113 184.583C83.2393 184.225 83.2639 183.868 83.2849 183.51L83.3795 181.545H87.4266V187.063H86.6803V181.976L86.8695 182.196H83.8631L84.0418 181.965L83.9577 183.563C83.9366 184.04 83.8981 184.495 83.842 184.93C83.793 185.364 83.7124 185.746 83.6003 186.075C83.4951 186.405 83.348 186.664 83.1588 186.853C82.9695 187.035 82.7278 187.127 82.4334 187.127C82.3493 187.127 82.2617 187.12 82.1706 187.106C82.0865 187.092 81.9954 187.074 81.8973 187.053ZM92.9752 187.063V185.844L92.9437 185.644V183.605C92.9437 183.135 92.8106 182.775 92.5443 182.522C92.285 182.27 91.896 182.144 91.3774 182.144C91.02 182.144 90.6801 182.203 90.3578 182.323C90.0354 182.442 89.7621 182.599 89.5378 182.796L89.2014 182.238C89.4818 182 89.8181 181.818 90.2106 181.692C90.603 181.559 91.0165 181.492 91.451 181.492C92.1658 181.492 92.7159 181.671 93.1014 182.028C93.4938 182.379 93.6901 182.915 93.6901 183.637V187.063H92.9752ZM91.0726 187.116C90.6591 187.116 90.2982 187.049 89.9898 186.916C89.6885 186.776 89.4572 186.587 89.296 186.349C89.1349 186.103 89.0543 185.823 89.0543 185.508C89.0543 185.22 89.1208 184.961 89.254 184.73C89.3942 184.492 89.6184 184.302 89.9268 184.162C90.2421 184.015 90.6626 183.941 91.1882 183.941H93.0909V184.499H91.2092C90.6766 184.499 90.3052 184.593 90.095 184.782C89.8917 184.972 89.7901 185.206 89.7901 185.487C89.7901 185.802 89.9127 186.054 90.158 186.244C90.4033 186.433 90.7467 186.527 91.1882 186.527C91.6087 186.527 91.9696 186.433 92.2709 186.244C92.5793 186.047 92.8035 185.767 92.9437 185.403L93.1119 185.918C92.9717 186.282 92.7265 186.573 92.3761 186.79C92.0327 187.007 91.5982 187.116 91.0726 187.116ZM96.7281 187.063V181.997L96.9173 182.196H94.6362V181.545H99.5663V182.196H97.2852L97.4745 181.997V187.063H96.7281ZM100.645 187.063V181.545H101.392V183.983H104.871V181.545H105.618V187.063H104.871V184.625H101.392V187.063H100.645ZM110.01 187.116C109.477 187.116 108.997 186.997 108.569 186.759C108.149 186.513 107.816 186.18 107.571 185.76C107.326 185.333 107.203 184.845 107.203 184.299C107.203 183.745 107.326 183.258 107.571 182.838C107.816 182.417 108.149 182.088 108.569 181.85C108.99 181.611 109.47 181.492 110.01 181.492C110.556 181.492 111.04 181.611 111.46 181.85C111.888 182.088 112.221 182.417 112.459 182.838C112.704 183.258 112.827 183.745 112.827 184.299C112.827 184.845 112.704 185.333 112.459 185.76C112.221 186.18 111.888 186.513 111.46 186.759C111.033 186.997 110.549 187.116 110.01 187.116ZM110.01 186.454C110.409 186.454 110.763 186.366 111.071 186.191C111.38 186.009 111.621 185.756 111.797 185.434C111.979 185.105 112.07 184.726 112.07 184.299C112.07 183.864 111.979 183.486 111.797 183.164C111.621 182.841 111.38 182.592 111.071 182.417C110.763 182.235 110.413 182.144 110.02 182.144C109.628 182.144 109.277 182.235 108.969 182.417C108.661 182.592 108.415 182.841 108.233 183.164C108.051 183.486 107.96 183.864 107.96 184.299C107.96 184.726 108.051 185.105 108.233 185.434C108.415 185.756 108.661 186.009 108.969 186.191C109.277 186.366 109.624 186.454 110.01 186.454ZM114.422 187.063V181.545H115.168V185.928L118.858 181.545H119.52V187.063H118.774V182.669L115.095 187.063H114.422ZM116.924 180.746C116.461 180.746 116.086 180.63 115.799 180.399C115.519 180.161 115.372 179.821 115.358 179.379H115.894C115.901 179.66 115.999 179.88 116.188 180.041C116.377 180.203 116.622 180.283 116.924 180.283C117.225 180.283 117.47 180.203 117.66 180.041C117.856 179.88 117.957 179.66 117.964 179.379H118.501C118.494 179.821 118.346 180.161 118.059 180.399C117.772 180.63 117.393 180.746 116.924 180.746ZM124.41 187.063V181.545H129.372V187.063H128.626V181.997L128.815 182.196H124.968L125.157 181.997V187.063H124.41ZM134.342 187.116C133.866 187.116 133.435 187.007 133.049 186.79C132.664 186.566 132.356 186.247 132.124 185.834C131.9 185.413 131.788 184.902 131.788 184.299C131.788 183.696 131.9 183.188 132.124 182.775C132.349 182.354 132.653 182.035 133.039 181.818C133.424 181.601 133.859 181.492 134.342 181.492C134.868 181.492 135.338 181.611 135.751 181.85C136.172 182.081 136.501 182.41 136.739 182.838C136.977 183.258 137.097 183.745 137.097 184.299C137.097 184.859 136.977 185.35 136.739 185.771C136.501 186.191 136.172 186.52 135.751 186.759C135.338 186.997 134.868 187.116 134.342 187.116ZM131.494 189.103V181.545H132.208V183.206L132.135 184.309L132.24 185.424V189.103H131.494ZM134.29 186.454C134.682 186.454 135.033 186.366 135.341 186.191C135.649 186.009 135.895 185.756 136.077 185.434C136.259 185.105 136.35 184.726 136.35 184.299C136.35 183.871 136.259 183.496 136.077 183.174C135.895 182.852 135.649 182.599 135.341 182.417C135.033 182.235 134.682 182.144 134.29 182.144C133.897 182.144 133.544 182.235 133.228 182.417C132.92 182.599 132.675 182.852 132.492 183.174C132.317 183.496 132.23 183.871 132.23 184.299C132.23 184.726 132.317 185.105 132.492 185.434C132.675 185.756 132.92 186.009 133.228 186.191C133.544 186.366 133.897 186.454 134.29 186.454ZM140.971 187.116C140.438 187.116 139.958 186.997 139.531 186.759C139.11 186.513 138.777 186.18 138.532 185.76C138.287 185.333 138.164 184.845 138.164 184.299C138.164 183.745 138.287 183.258 138.532 182.838C138.777 182.417 139.11 182.088 139.531 181.85C139.951 181.611 140.431 181.492 140.971 181.492C141.517 181.492 142.001 181.611 142.421 181.85C142.849 182.088 143.182 182.417 143.42 182.838C143.665 183.258 143.788 183.745 143.788 184.299C143.788 184.845 143.665 185.333 143.42 185.76C143.182 186.18 142.849 186.513 142.421 186.759C141.994 186.997 141.51 187.116 140.971 187.116ZM140.971 186.454C141.37 186.454 141.724 186.366 142.032 186.191C142.341 186.009 142.583 185.756 142.758 185.434C142.94 185.105 143.031 184.726 143.031 184.299C143.031 183.864 142.94 183.486 142.758 183.164C142.583 182.841 142.341 182.592 142.032 182.417C141.724 182.235 141.374 182.144 140.981 182.144C140.589 182.144 140.238 182.235 139.93 182.417C139.622 182.592 139.376 182.841 139.194 183.164C139.012 183.486 138.921 183.864 138.921 184.299C138.921 184.726 139.012 185.105 139.194 185.434C139.376 185.756 139.622 186.009 139.93 186.191C140.238 186.366 140.585 186.454 140.971 186.454ZM147.864 187.127C147.415 187.127 147.016 187.053 146.666 186.906C146.322 186.759 146.028 186.534 145.783 186.233C145.537 185.932 145.352 185.56 145.225 185.119C145.099 184.67 145.036 184.152 145.036 183.563C145.036 183.037 145.085 182.578 145.183 182.186C145.281 181.786 145.418 181.443 145.593 181.156C145.769 180.868 145.972 180.627 146.203 180.43C146.441 180.227 146.697 180.066 146.97 179.947C147.251 179.821 147.538 179.726 147.832 179.663L150.313 179.085L150.439 179.779L148.106 180.304C147.959 180.339 147.78 180.388 147.57 180.451C147.366 180.515 147.156 180.609 146.939 180.735C146.729 180.861 146.532 181.037 146.35 181.261C146.168 181.485 146.021 181.776 145.909 182.133C145.804 182.484 145.751 182.922 145.751 183.447C145.751 183.559 145.754 183.651 145.761 183.721C145.769 183.784 145.776 183.854 145.783 183.931C145.797 184.001 145.807 184.106 145.814 184.246L145.488 183.973C145.565 183.545 145.723 183.174 145.961 182.859C146.199 182.536 146.497 182.288 146.855 182.112C147.219 181.93 147.622 181.839 148.064 181.839C148.575 181.839 149.031 181.951 149.43 182.175C149.83 182.393 150.141 182.697 150.366 183.09C150.597 183.482 150.713 183.938 150.713 184.457C150.713 184.968 150.594 185.427 150.355 185.834C150.124 186.24 149.795 186.559 149.367 186.79C148.94 187.014 148.439 187.127 147.864 187.127ZM147.948 186.506C148.34 186.506 148.687 186.419 148.989 186.244C149.29 186.061 149.525 185.816 149.693 185.508C149.868 185.199 149.956 184.852 149.956 184.467C149.956 184.089 149.868 183.752 149.693 183.458C149.525 183.164 149.29 182.932 148.989 182.764C148.687 182.589 148.337 182.501 147.937 182.501C147.545 182.501 147.198 182.585 146.897 182.754C146.595 182.915 146.357 183.143 146.182 183.437C146.014 183.731 145.93 184.071 145.93 184.457C145.93 184.842 146.014 185.189 146.182 185.497C146.357 185.806 146.595 186.051 146.897 186.233C147.205 186.415 147.556 186.506 147.948 186.506ZM152.312 187.063V181.545H153.059V183.983H156.538V181.545H157.285V187.063H156.538V184.625H153.059V187.063H152.312ZM161.677 187.116C161.144 187.116 160.664 186.997 160.236 186.759C159.816 186.513 159.483 186.18 159.238 185.76C158.992 185.333 158.87 184.845 158.87 184.299C158.87 183.745 158.992 183.258 159.238 182.838C159.483 182.417 159.816 182.088 160.236 181.85C160.657 181.611 161.137 181.492 161.677 181.492C162.223 181.492 162.707 181.611 163.127 181.85C163.555 182.088 163.888 182.417 164.126 182.838C164.371 183.258 164.494 183.745 164.494 184.299C164.494 184.845 164.371 185.333 164.126 185.76C163.888 186.18 163.555 186.513 163.127 186.759C162.7 186.997 162.216 187.116 161.677 187.116ZM161.677 186.454C162.076 186.454 162.43 186.366 162.738 186.191C163.047 186.009 163.288 185.756 163.464 185.434C163.646 185.105 163.737 184.726 163.737 184.299C163.737 183.864 163.646 183.486 163.464 183.164C163.288 182.841 163.047 182.592 162.738 182.417C162.43 182.235 162.079 182.144 161.687 182.144C161.295 182.144 160.944 182.235 160.636 182.417C160.327 182.592 160.082 182.841 159.9 183.164C159.718 183.486 159.627 183.864 159.627 184.299C159.627 184.726 159.718 185.105 159.9 185.434C160.082 185.756 160.327 186.009 160.636 186.191C160.944 186.366 161.291 186.454 161.677 186.454ZM166.089 187.063V181.545H166.835V185.928L170.525 181.545H171.187V187.063H170.441V182.669L166.762 187.063H166.089ZM168.591 180.746C168.128 180.746 167.753 180.63 167.466 180.399C167.186 180.161 167.038 179.821 167.024 179.379H167.561C167.568 179.66 167.666 179.88 167.855 180.041C168.044 180.203 168.289 180.283 168.591 180.283C168.892 180.283 169.137 180.203 169.327 180.041C169.523 179.88 169.624 179.66 169.631 179.379H170.167C170.16 179.821 170.013 180.161 169.726 180.399C169.439 180.63 169.06 180.746 168.591 180.746ZM78.8669 205.063V199.545H83.8286V205.063H83.0823V199.997L83.2715 200.196H79.4241L79.6133 199.997V205.063H78.8669ZM88.2208 205.116C87.6882 205.116 87.2082 204.997 86.7807 204.759C86.3602 204.513 86.0273 204.18 85.782 203.76C85.5368 203.333 85.4141 202.845 85.4141 202.299C85.4141 201.745 85.5368 201.258 85.782 200.838C86.0273 200.417 86.3602 200.088 86.7807 199.85C87.2012 199.611 87.6812 199.492 88.2208 199.492C88.7674 199.492 89.251 199.611 89.6715 199.85C90.099 200.088 90.4318 200.417 90.6701 200.838C90.9154 201.258 91.038 201.745 91.038 202.299C91.038 202.845 90.9154 203.333 90.6701 203.76C90.4318 204.18 90.099 204.513 89.6715 204.759C89.244 204.997 88.7604 205.116 88.2208 205.116ZM88.2208 204.454C88.6203 204.454 88.9742 204.366 89.2825 204.191C89.5909 204.009 89.8327 203.756 90.0079 203.434C90.1901 203.105 90.2812 202.726 90.2812 202.299C90.2812 201.864 90.1901 201.486 90.0079 201.164C89.8327 200.841 89.5909 200.592 89.2825 200.417C88.9742 200.235 88.6238 200.144 88.2313 200.144C87.8389 200.144 87.4885 200.235 87.1801 200.417C86.8718 200.592 86.6265 200.841 86.4443 201.164C86.2621 201.486 86.171 201.864 86.171 202.299C86.171 202.726 86.2621 203.105 86.4443 203.434C86.6265 203.756 86.8718 204.009 87.1801 204.191C87.4885 204.366 87.8354 204.454 88.2208 204.454ZM96.3867 204.706V200.196H93.7271L93.6641 201.426C93.65 201.798 93.6255 202.162 93.5905 202.52C93.5624 202.877 93.5099 203.206 93.4328 203.508C93.3627 203.802 93.2611 204.044 93.128 204.233C92.9948 204.415 92.8231 204.52 92.6129 204.548L91.8665 204.412C92.0838 204.419 92.2625 204.342 92.4026 204.18C92.5428 204.012 92.6514 203.785 92.7285 203.497C92.8056 203.21 92.8616 202.884 92.8967 202.52C92.9317 202.148 92.9598 201.77 92.9808 201.384L93.0544 199.545H97.133V204.706H96.3867ZM91.6352 206.399V204.412H97.995V206.399H97.2907V205.063H92.3396V206.399H91.6352ZM99.4495 205.063V199.545H104.411V205.063H103.665V199.997L103.854 200.196H100.007L100.196 199.997V205.063H99.4495ZM106.533 205.063V199.545H107.279V203.928L110.969 199.545H111.631V205.063H110.885V200.669L107.206 205.063H106.533ZM116.083 205.116C115.536 205.116 115.046 204.997 114.611 204.759C114.184 204.513 113.847 204.18 113.602 203.76C113.357 203.333 113.234 202.845 113.234 202.299C113.234 201.745 113.357 201.258 113.602 200.838C113.847 200.417 114.184 200.088 114.611 199.85C115.046 199.611 115.536 199.492 116.083 199.492C116.552 199.492 116.976 199.583 117.355 199.765C117.733 199.948 118.031 200.221 118.248 200.585L117.691 200.964C117.502 200.683 117.267 200.477 116.987 200.344C116.706 200.21 116.402 200.144 116.072 200.144C115.68 200.144 115.326 200.235 115.01 200.417C114.695 200.592 114.446 200.841 114.264 201.164C114.082 201.486 113.991 201.864 113.991 202.299C113.991 202.733 114.082 203.112 114.264 203.434C114.446 203.756 114.695 204.009 115.01 204.191C115.326 204.366 115.68 204.454 116.072 204.454C116.402 204.454 116.706 204.387 116.987 204.254C117.267 204.121 117.502 203.918 117.691 203.644L118.248 204.023C118.031 204.38 117.733 204.654 117.355 204.843C116.976 205.025 116.552 205.116 116.083 205.116ZM123.74 205.063L121.47 202.33L122.09 201.962L124.623 205.063H123.74ZM119.693 205.063V199.545H120.44V205.063H119.693ZM120.208 202.604V201.962H121.985V202.604H120.208ZM122.153 202.383L121.459 202.278L123.656 199.545H124.466L122.153 202.383ZM127.877 205.116C127.344 205.116 126.864 204.997 126.437 204.759C126.016 204.513 125.683 204.18 125.438 203.76C125.193 203.333 125.07 202.845 125.07 202.299C125.07 201.745 125.193 201.258 125.438 200.838C125.683 200.417 126.016 200.088 126.437 199.85C126.857 199.611 127.337 199.492 127.877 199.492C128.424 199.492 128.907 199.611 129.328 199.85C129.755 200.088 130.088 200.417 130.326 200.838C130.572 201.258 130.694 201.745 130.694 202.299C130.694 202.845 130.572 203.333 130.326 203.76C130.088 204.18 129.755 204.513 129.328 204.759C128.9 204.997 128.417 205.116 127.877 205.116ZM127.877 204.454C128.276 204.454 128.63 204.366 128.939 204.191C129.247 204.009 129.489 203.756 129.664 203.434C129.846 203.105 129.937 202.726 129.937 202.299C129.937 201.864 129.846 201.486 129.664 201.164C129.489 200.841 129.247 200.592 128.939 200.417C128.63 200.235 128.28 200.144 127.887 200.144C127.495 200.144 127.145 200.235 126.836 200.417C126.528 200.592 126.283 200.841 126.1 201.164C125.918 201.486 125.827 201.864 125.827 202.299C125.827 202.726 125.918 203.105 126.1 203.434C126.283 203.756 126.528 204.009 126.836 204.191C127.145 204.366 127.491 204.454 127.877 204.454ZM132.289 205.063V199.545H133.036V203.928L136.725 199.545H137.388V205.063H136.641V200.669L132.962 205.063H132.289ZM134.791 198.746C134.329 198.746 133.954 198.63 133.666 198.399C133.386 198.161 133.239 197.821 133.225 197.379H133.761C133.768 197.66 133.866 197.88 134.055 198.041C134.244 198.203 134.49 198.283 134.791 198.283C135.092 198.283 135.338 198.203 135.527 198.041C135.723 197.88 135.825 197.66 135.832 197.379H136.368C136.361 197.821 136.214 198.161 135.926 198.399C135.639 198.63 135.261 198.746 134.791 198.746ZM139.537 202.856L139.39 197.705H140.273L140.115 202.856H139.537ZM139.831 205.116C139.677 205.116 139.544 205.063 139.432 204.958C139.327 204.846 139.274 204.717 139.274 204.569C139.274 204.415 139.327 204.289 139.432 204.191C139.544 204.086 139.677 204.033 139.831 204.033C139.993 204.033 140.122 204.086 140.22 204.191C140.325 204.289 140.378 204.415 140.378 204.569C140.378 204.717 140.325 204.846 140.22 204.958C140.122 205.063 139.993 205.116 139.831 205.116Z" fill="white"/>
<g filter="url(#filter0_d_279_147647)">
<rect x="62.4805" y="219.408" width="94.04" height="38.36" rx="19.18" fill="white"/>
<path d="M81.0377 239.854C81.399 239.96 81.7011 239.992 81.944 239.948C82.1932 239.898 82.4144 239.724 82.6075 239.425L82.9252 238.948L83.0653 238.789L85.2331 234.547H86.7188L83.9343 239.724C83.6851 240.191 83.3892 240.549 83.0466 240.798C82.7102 241.047 82.3396 241.188 81.9347 241.219C81.5298 241.256 81.1093 241.184 80.6733 241.004L81.0377 239.854ZM83.0373 240.051L80.0846 234.547H81.7011L83.8689 238.939L83.0373 240.051ZM89.344 241.163C88.802 241.163 88.3193 241.054 87.8957 240.836C87.4721 240.611 87.1388 240.303 86.8958 239.911C86.6591 239.518 86.5408 239.073 86.5408 238.574C86.5408 238.07 86.6591 237.624 86.8958 237.238C87.1388 236.846 87.4721 236.54 87.8957 236.322C88.3193 236.098 88.802 235.986 89.344 235.986C89.8735 235.986 90.3344 236.098 90.7269 236.322C91.1193 236.54 91.409 236.855 91.5959 237.266L90.4653 237.874C90.3344 237.637 90.1694 237.462 89.97 237.35C89.7769 237.238 89.5651 237.182 89.3346 237.182C89.0855 237.182 88.8612 237.238 88.6619 237.35C88.4625 237.462 88.3037 237.621 88.1853 237.827C88.0732 238.032 88.0171 238.282 88.0171 238.574C88.0171 238.867 88.0732 239.116 88.1853 239.322C88.3037 239.527 88.4625 239.686 88.6619 239.798C88.8612 239.911 89.0855 239.967 89.3346 239.967C89.5651 239.967 89.7769 239.914 89.97 239.808C90.1694 239.696 90.3344 239.518 90.4653 239.275L91.5959 239.892C91.409 240.297 91.1193 240.611 90.7269 240.836C90.3344 241.054 89.8735 241.163 89.344 241.163ZM93.5471 241.088V236.92L93.8741 237.257H91.8465V236.061H96.696V237.257H94.6684L94.9954 236.92V241.088H93.5471ZM100.482 241.088V240.107L100.388 239.892V238.135C100.388 237.824 100.292 237.581 100.099 237.406C99.9118 237.232 99.6222 237.145 99.2297 237.145C98.9618 237.145 98.6971 237.188 98.4355 237.276C98.1801 237.357 97.962 237.469 97.7814 237.612L97.2581 236.593C97.5322 236.4 97.8624 236.251 98.2486 236.145C98.6348 236.039 99.0273 235.986 99.4259 235.986C100.192 235.986 100.787 236.167 101.211 236.528C101.634 236.889 101.846 237.453 101.846 238.219V241.088H100.482ZM98.9494 241.163C98.5569 241.163 98.2206 241.097 97.9402 240.966C97.6599 240.829 97.445 240.646 97.2955 240.415C97.146 240.185 97.0712 239.926 97.0712 239.64C97.0712 239.341 97.1429 239.079 97.2862 238.855C97.4357 238.63 97.6693 238.456 97.987 238.331C98.3047 238.201 98.7189 238.135 99.2297 238.135H100.566V238.985H99.3886C99.0459 238.985 98.8092 239.042 98.6784 239.154C98.5538 239.266 98.4915 239.406 98.4915 239.574C98.4915 239.761 98.5632 239.911 98.7064 240.023C98.8559 240.129 99.0584 240.182 99.3138 240.182C99.5567 240.182 99.7748 240.125 99.9679 240.013C100.161 239.895 100.301 239.724 100.388 239.499L100.613 240.172C100.507 240.496 100.314 240.742 100.033 240.91C99.753 241.079 99.3917 241.163 98.9494 241.163ZM103.112 241.088V236.061H104.561V238.023H106.747V236.061H108.205V241.088H106.747V239.21H104.561V241.088H103.112ZM111.955 241.163C111.419 241.163 110.943 241.051 110.525 240.826C110.114 240.602 109.787 240.297 109.544 239.911C109.307 239.518 109.189 239.073 109.189 238.574C109.189 238.07 109.307 237.624 109.544 237.238C109.787 236.846 110.114 236.54 110.525 236.322C110.943 236.098 111.419 235.986 111.955 235.986C112.484 235.986 112.958 236.098 113.375 236.322C113.793 236.54 114.12 236.843 114.356 237.229C114.593 237.615 114.711 238.064 114.711 238.574C114.711 239.073 114.593 239.518 114.356 239.911C114.12 240.297 113.793 240.602 113.375 240.826C112.958 241.051 112.484 241.163 111.955 241.163ZM111.955 239.967C112.198 239.967 112.416 239.911 112.609 239.798C112.802 239.686 112.955 239.527 113.067 239.322C113.179 239.11 113.235 238.861 113.235 238.574C113.235 238.282 113.179 238.032 113.067 237.827C112.955 237.621 112.802 237.462 112.609 237.35C112.416 237.238 112.198 237.182 111.955 237.182C111.712 237.182 111.494 237.238 111.301 237.35C111.108 237.462 110.952 237.621 110.834 237.827C110.721 238.032 110.665 238.282 110.665 238.574C110.665 238.861 110.721 239.11 110.834 239.322C110.952 239.527 111.108 239.686 111.301 239.798C111.494 239.911 111.712 239.967 111.955 239.967ZM115.714 241.088V236.061H118.284C118.913 236.061 119.405 236.176 119.76 236.407C120.115 236.631 120.292 236.948 120.292 237.36C120.292 237.771 120.124 238.095 119.788 238.331C119.458 238.562 119.019 238.677 118.47 238.677L118.62 238.341C119.23 238.341 119.685 238.453 119.984 238.677C120.289 238.901 120.442 239.228 120.442 239.658C120.442 240.101 120.274 240.449 119.937 240.705C119.601 240.96 119.087 241.088 118.396 241.088H115.714ZM117.05 240.097H118.274C118.542 240.097 118.741 240.054 118.872 239.967C119.009 239.873 119.078 239.733 119.078 239.546C119.078 239.353 119.015 239.213 118.891 239.126C118.766 239.032 118.57 238.985 118.302 238.985H117.05V240.097ZM117.05 238.126H118.153C118.408 238.126 118.598 238.079 118.723 237.986C118.853 237.892 118.919 237.758 118.919 237.584C118.919 237.403 118.853 237.269 118.723 237.182C118.598 237.095 118.408 237.051 118.153 237.051H117.05V238.126ZM121.527 241.088V236.061H122.975V239.051L125.423 236.061H126.759V241.088H125.311V238.098L122.872 241.088H121.527ZM129.235 241.088V236.92L129.562 237.257H127.534V236.061H132.384V237.257H130.356L130.683 236.92V241.088H129.235ZM135.88 237.668C136.54 237.674 137.042 237.824 137.384 238.116C137.733 238.403 137.908 238.811 137.908 239.341C137.908 239.895 137.711 240.328 137.319 240.639C136.927 240.945 136.381 241.097 135.684 241.097L133.161 241.088V236.061H134.609V237.668H135.88ZM135.553 240.06C135.833 240.066 136.048 240.007 136.198 239.883C136.347 239.758 136.422 239.571 136.422 239.322C136.422 239.073 136.347 238.895 136.198 238.789C136.048 238.677 135.833 238.618 135.553 238.612L134.609 238.602V240.06H135.553Z" fill="black"/>
</g>
<rect x="58.2725" y="272.076" width="102.456" height="37.776" rx="18.888" stroke="white" stroke-width="0.584"/>
<path d="M76.3134 293.464V286.923H82.2749V293.464H80.7705V287.811L81.1162 288.156H77.4721L77.8178 287.811V293.464H76.3134ZM86.1389 293.539C85.6031 293.539 85.1266 293.426 84.7092 293.202C84.2981 292.978 83.971 292.673 83.7281 292.287C83.4914 291.894 83.373 291.449 83.373 290.95C83.373 290.446 83.4914 290 83.7281 289.614C83.971 289.222 84.2981 288.916 84.7092 288.698C85.1266 288.474 85.6031 288.362 86.1389 288.362C86.6683 288.362 87.1418 288.474 87.5591 288.698C87.9765 288.916 88.3035 289.219 88.5403 289.605C88.777 289.991 88.8953 290.44 88.8953 290.95C88.8953 291.449 88.777 291.894 88.5403 292.287C88.3035 292.673 87.9765 292.978 87.5591 293.202C87.1418 293.426 86.6683 293.539 86.1389 293.539ZM86.1389 292.343C86.3818 292.343 86.5998 292.287 86.7929 292.174C86.986 292.062 87.1387 291.903 87.2508 291.698C87.3629 291.486 87.419 291.237 87.419 290.95C87.419 290.658 87.3629 290.408 87.2508 290.203C87.1387 289.997 86.986 289.838 86.7929 289.726C86.5998 289.614 86.3818 289.558 86.1389 289.558C85.8959 289.558 85.6779 289.614 85.4848 289.726C85.2917 289.838 85.1359 289.997 85.0176 290.203C84.9054 290.408 84.8494 290.658 84.8494 290.95C84.8494 291.237 84.9054 291.486 85.0176 291.698C85.1359 291.903 85.2917 292.062 85.4848 292.174C85.6779 292.287 85.8959 292.343 86.1389 292.343ZM89.8979 293.464V288.437H94.897V293.464H93.4393V289.306L93.7663 289.633H91.0192L91.3462 289.306V293.464H89.8979ZM99.2566 293.539C98.833 293.539 98.4623 293.445 98.1447 293.258C97.827 293.071 97.5778 292.788 97.3971 292.408C97.2227 292.022 97.1355 291.536 97.1355 290.95C97.1355 290.359 97.2196 289.873 97.3878 289.493C97.556 289.113 97.7989 288.829 98.1166 288.642C98.4343 288.455 98.8143 288.362 99.2566 288.362C99.73 288.362 100.154 288.471 100.527 288.689C100.907 288.901 101.206 289.2 101.424 289.586C101.649 289.972 101.761 290.427 101.761 290.95C101.761 291.48 101.649 291.938 101.424 292.324C101.206 292.71 100.907 293.009 100.527 293.221C100.154 293.433 99.73 293.539 99.2566 293.539ZM96.2852 295.277V288.437H97.6775V289.465L97.6494 290.96L97.7429 292.445V295.277H96.2852ZM99.0043 292.343C99.2472 292.343 99.4622 292.287 99.649 292.174C99.8421 292.062 99.9948 291.903 100.107 291.698C100.225 291.486 100.284 291.237 100.284 290.95C100.284 290.658 100.225 290.408 100.107 290.203C99.9948 289.997 99.8421 289.838 99.649 289.726C99.4622 289.614 99.2472 289.558 99.0043 289.558C98.7614 289.558 98.5433 289.614 98.3502 289.726C98.1571 289.838 98.0045 289.997 97.8924 290.203C97.7802 290.408 97.7242 290.658 97.7242 290.95C97.7242 291.237 97.7802 291.486 97.8924 291.698C98.0045 291.903 98.1571 292.062 98.3502 292.174C98.5433 292.287 98.7614 292.343 99.0043 292.343ZM105.137 293.539C104.601 293.539 104.125 293.426 103.707 293.202C103.296 292.978 102.969 292.673 102.726 292.287C102.49 291.894 102.371 291.449 102.371 290.95C102.371 290.446 102.49 290 102.726 289.614C102.969 289.222 103.296 288.916 103.707 288.698C104.125 288.474 104.601 288.362 105.137 288.362C105.667 288.362 106.14 288.474 106.557 288.698C106.975 288.916 107.302 289.219 107.539 289.605C107.775 289.991 107.894 290.44 107.894 290.95C107.894 291.449 107.775 291.894 107.539 292.287C107.302 292.673 106.975 292.978 106.557 293.202C106.14 293.426 105.667 293.539 105.137 293.539ZM105.137 292.343C105.38 292.343 105.598 292.287 105.791 292.174C105.984 292.062 106.137 291.903 106.249 291.698C106.361 291.486 106.417 291.237 106.417 290.95C106.417 290.658 106.361 290.408 106.249 290.203C106.137 289.997 105.984 289.838 105.791 289.726C105.598 289.614 105.38 289.558 105.137 289.558C104.894 289.558 104.676 289.614 104.483 289.726C104.29 289.838 104.134 289.997 104.016 290.203C103.904 290.408 103.848 290.658 103.848 290.95C103.848 291.237 103.904 291.486 104.016 291.698C104.134 291.903 104.29 292.062 104.483 292.174C104.676 292.287 104.894 292.343 105.137 292.343ZM111.391 293.576C110.98 293.576 110.606 293.517 110.27 293.398C109.933 293.274 109.641 293.084 109.391 292.828C109.148 292.567 108.958 292.234 108.821 291.829C108.691 291.424 108.625 290.941 108.625 290.38C108.625 289.982 108.659 289.617 108.728 289.287C108.796 288.957 108.899 288.658 109.036 288.39C109.173 288.116 109.348 287.876 109.56 287.671C109.778 287.459 110.03 287.284 110.316 287.147C110.609 287.004 110.939 286.895 111.307 286.82L113.699 286.344L113.895 287.596L111.783 288.016C111.659 288.041 111.516 288.075 111.354 288.119C111.198 288.156 111.039 288.216 110.877 288.297C110.721 288.378 110.575 288.493 110.438 288.642C110.307 288.786 110.201 288.976 110.12 289.212C110.039 289.443 109.999 289.729 109.999 290.072C109.999 290.178 110.002 290.259 110.008 290.315C110.021 290.371 110.03 290.43 110.036 290.492C110.049 290.555 110.055 290.651 110.055 290.782L109.588 290.324C109.725 290.032 109.899 289.782 110.111 289.577C110.329 289.371 110.578 289.215 110.858 289.11C111.145 288.997 111.463 288.941 111.811 288.941C112.285 288.941 112.699 289.038 113.054 289.231C113.416 289.418 113.696 289.683 113.895 290.025C114.095 290.368 114.194 290.757 114.194 291.193C114.194 291.667 114.076 292.084 113.839 292.445C113.602 292.8 113.272 293.078 112.849 293.277C112.431 293.476 111.945 293.576 111.391 293.576ZM111.466 292.445C111.709 292.445 111.924 292.392 112.11 292.287C112.297 292.174 112.441 292.028 112.54 291.847C112.646 291.66 112.699 291.452 112.699 291.221C112.699 290.997 112.646 290.798 112.54 290.623C112.441 290.449 112.297 290.312 112.11 290.212C111.924 290.112 111.706 290.063 111.456 290.063C111.213 290.063 110.995 290.112 110.802 290.212C110.609 290.306 110.46 290.436 110.354 290.605C110.248 290.773 110.195 290.969 110.195 291.193C110.195 291.424 110.248 291.636 110.354 291.829C110.466 292.016 110.615 292.165 110.802 292.277C110.995 292.389 111.217 292.445 111.466 292.445ZM117.538 293.539C117.002 293.539 116.526 293.426 116.108 293.202C115.697 292.978 115.37 292.673 115.127 292.287C114.891 291.894 114.772 291.449 114.772 290.95C114.772 290.446 114.891 290 115.127 289.614C115.37 289.222 115.697 288.916 116.108 288.698C116.526 288.474 117.002 288.362 117.538 288.362C118.067 288.362 118.541 288.474 118.958 288.698C119.376 288.916 119.703 289.219 119.939 289.605C120.176 289.991 120.294 290.44 120.294 290.95C120.294 291.449 120.176 291.894 119.939 292.287C119.703 292.673 119.376 292.978 118.958 293.202C118.541 293.426 118.067 293.539 117.538 293.539ZM117.538 292.343C117.781 292.343 117.999 292.287 118.192 292.174C118.385 292.062 118.538 291.903 118.65 291.698C118.762 291.486 118.818 291.237 118.818 290.95C118.818 290.658 118.762 290.408 118.65 290.203C118.538 289.997 118.385 289.838 118.192 289.726C117.999 289.614 117.781 289.558 117.538 289.558C117.295 289.558 117.077 289.614 116.884 289.726C116.691 289.838 116.535 289.997 116.417 290.203C116.305 290.408 116.249 290.658 116.249 290.95C116.249 291.237 116.305 291.486 116.417 291.698C116.535 291.903 116.691 292.062 116.884 292.174C117.077 292.287 117.295 292.343 117.538 292.343ZM121.297 293.464V288.437H123.867C124.496 288.437 124.988 288.552 125.343 288.783C125.698 289.007 125.876 289.324 125.876 289.736C125.876 290.147 125.707 290.471 125.371 290.707C125.041 290.938 124.602 291.053 124.054 291.053L124.203 290.717C124.813 290.717 125.268 290.829 125.567 291.053C125.872 291.277 126.025 291.604 126.025 292.034C126.025 292.477 125.857 292.825 125.521 293.081C125.184 293.336 124.67 293.464 123.979 293.464H121.297ZM122.633 292.473H123.857C124.125 292.473 124.324 292.43 124.455 292.343C124.592 292.249 124.661 292.109 124.661 291.922C124.661 291.729 124.599 291.589 124.474 291.502C124.349 291.408 124.153 291.361 123.885 291.361H122.633V292.473ZM122.633 290.502H123.736C123.991 290.502 124.181 290.455 124.306 290.362C124.437 290.268 124.502 290.134 124.502 289.96C124.502 289.779 124.437 289.645 124.306 289.558C124.181 289.471 123.991 289.427 123.736 289.427H122.633V290.502ZM130.118 293.464V292.483L130.025 292.268V290.511C130.025 290.2 129.928 289.957 129.735 289.782C129.548 289.608 129.259 289.521 128.866 289.521C128.598 289.521 128.334 289.564 128.072 289.652C127.817 289.732 127.599 289.845 127.418 289.988L126.895 288.969C127.169 288.776 127.499 288.627 127.885 288.521C128.271 288.415 128.664 288.362 129.063 288.362C129.829 288.362 130.424 288.543 130.847 288.904C131.271 289.265 131.483 289.829 131.483 290.595V293.464H130.118ZM128.586 293.539C128.194 293.539 127.857 293.473 127.577 293.342C127.297 293.205 127.082 293.022 126.932 292.791C126.783 292.561 126.708 292.302 126.708 292.016C126.708 291.717 126.78 291.455 126.923 291.231C127.072 291.006 127.306 290.832 127.624 290.707C127.941 290.577 128.356 290.511 128.866 290.511H130.203V291.361H129.025C128.683 291.361 128.446 291.418 128.315 291.53C128.19 291.642 128.128 291.782 128.128 291.95C128.128 292.137 128.2 292.287 128.343 292.399C128.493 292.505 128.695 292.557 128.95 292.557C129.193 292.557 129.411 292.501 129.605 292.389C129.798 292.271 129.938 292.1 130.025 291.875L130.249 292.548C130.143 292.872 129.95 293.118 129.67 293.286C129.39 293.455 129.028 293.539 128.586 293.539ZM133.823 293.464V289.296L134.151 289.633H132.123V288.437H136.972V289.633H134.945L135.272 289.296V293.464H133.823ZM140.469 290.044C141.129 290.05 141.63 290.2 141.973 290.492C142.322 290.779 142.496 291.187 142.496 291.717C142.496 292.271 142.3 292.704 141.907 293.015C141.515 293.321 140.97 293.473 140.272 293.473L137.749 293.464V288.437H139.198V290.044H140.469ZM140.141 292.436C140.422 292.442 140.637 292.383 140.786 292.258C140.936 292.134 141.01 291.947 141.01 291.698C141.01 291.449 140.936 291.271 140.786 291.165C140.637 291.053 140.422 290.994 140.141 290.988L139.198 290.978V292.436H140.141Z" fill="white"/>
<path d="M71.0038 451.532C60.5318 443.489 52.8421 432.368 49.0145 419.73C45.1869 407.093 45.4138 393.574 49.6632 381.072C53.9126 368.571 61.9711 357.714 72.707 350.027C83.443 342.339 96.317 338.208 109.521 338.213C122.726 338.217 135.597 342.358 146.327 350.052C157.058 357.747 165.109 368.609 169.349 381.114C173.59 393.619 173.808 407.138 169.971 419.773C166.135 432.407 158.437 443.523 147.96 451.559" stroke="url(#paint0_radial_279_147647)" stroke-opacity="0.3" stroke-width="37.4508"/>
<path d="M82.5703 436.476C75.2429 430.849 69.8625 423.068 67.1848 414.226C64.507 405.384 64.6664 395.925 67.6407 387.178C70.6149 378.431 76.2546 370.835 83.7674 365.458C91.2802 360.081 100.289 357.193 109.527 357.199C118.766 357.204 127.771 360.104 135.277 365.491C142.783 370.877 148.413 378.48 151.376 387.23C154.34 395.981 154.487 405.44 151.798 414.279C149.109 423.118 143.719 430.892 136.385 436.51" stroke="white" stroke-width="0.520149"/>
<path d="M105.982 345.651V345.377C105.982 345.155 106.071 344.922 106.248 344.678C106.426 344.445 106.639 344.22 106.889 344.004C107.1 343.826 107.419 343.579 107.846 343.263L107.946 343.188C108.362 342.861 108.645 342.567 108.795 342.306C108.95 342.045 109.028 341.779 109.028 341.507C109.028 341.13 108.931 340.86 108.737 340.7C108.548 340.533 108.271 340.45 107.904 340.45C107.577 340.45 107.316 340.539 107.122 340.716C106.933 340.894 106.839 341.138 106.839 341.449C106.839 341.576 106.856 341.709 106.889 341.848L106.273 341.965C106.218 341.765 106.19 341.571 106.19 341.382C106.19 340.921 106.348 340.553 106.664 340.275C106.981 339.992 107.413 339.851 107.963 339.851C108.556 339.851 109.006 339.989 109.311 340.267C109.622 340.544 109.777 340.944 109.777 341.465C109.777 342.203 109.358 342.888 108.52 343.521C108.015 343.909 107.644 344.212 107.405 344.428C107.167 344.644 107.011 344.844 106.939 345.027H109.819V345.651H105.982ZM110.697 342.838C110.697 340.863 111.416 339.876 112.853 339.876C114.284 339.876 115 340.866 115 342.847C115 344.822 114.281 345.809 112.844 345.809C111.413 345.809 110.697 344.819 110.697 342.838ZM114.218 342.838C114.218 342.062 114.109 341.479 113.893 341.091C113.677 340.702 113.327 340.508 112.844 340.508C112.362 340.508 112.012 340.705 111.796 341.099C111.585 341.487 111.479 342.07 111.479 342.847C111.479 343.623 111.585 344.206 111.796 344.594C112.012 344.977 112.362 345.169 112.844 345.169C113.327 345.169 113.677 344.974 113.893 344.586C114.109 344.192 114.218 343.61 114.218 342.838Z" fill="white"/>
<path d="M69.8538 357.095V351.943C70.0646 351.849 70.17 351.68 70.17 351.436H70.6194V357.095H69.8538ZM71.7511 355.697L72.4418 355.547C72.5195 356.279 72.919 356.645 73.6403 356.645C74.417 356.645 74.8054 356.182 74.8054 355.255C74.8054 354.379 74.4281 353.941 73.6736 353.941C73.1243 353.941 72.7331 354.168 72.5001 354.623L71.8343 354.59L72.0673 351.436H75.2715V352.043H72.6582L72.5167 353.99C72.8275 353.58 73.2796 353.375 73.8733 353.375C74.4226 353.375 74.8387 353.538 75.1217 353.866C75.4102 354.187 75.5544 354.656 75.5544 355.272C75.5544 355.905 75.3907 356.387 75.0634 356.72C74.7416 357.053 74.2672 357.22 73.6403 357.22C72.4918 357.22 71.8621 356.712 71.7511 355.697Z" fill="white"/>
<path d="M140.381 355.522L141.064 355.38C141.081 355.791 141.2 356.102 141.422 356.312C141.644 356.523 141.946 356.629 142.329 356.629C142.734 356.629 143.034 356.52 143.228 356.304C143.422 356.082 143.519 355.805 143.519 355.472C143.519 355.117 143.414 354.853 143.203 354.681C142.997 354.509 142.717 354.423 142.362 354.423H141.83V353.891H142.354C142.687 353.891 142.945 353.802 143.128 353.624C143.317 353.447 143.411 353.197 143.411 352.875C143.411 352.548 143.317 352.301 143.128 352.135C142.939 351.963 142.667 351.877 142.312 351.877C141.591 351.877 141.18 352.273 141.081 353.067L140.415 352.925C140.459 352.393 140.645 351.985 140.972 351.702C141.305 351.419 141.757 351.277 142.329 351.277C142.911 351.277 143.361 351.411 143.677 351.677C143.999 351.943 144.16 352.318 144.16 352.8C144.16 353.139 144.071 353.422 143.894 353.649C143.722 353.877 143.475 354.035 143.153 354.124C143.519 354.185 143.799 354.334 143.993 354.573C144.188 354.812 144.285 355.12 144.285 355.497C144.285 356.035 144.113 356.457 143.769 356.762C143.43 357.067 142.948 357.22 142.321 357.22C141.71 357.22 141.239 357.073 140.906 356.778C140.578 356.484 140.404 356.066 140.381 355.522ZM145.121 354.282C145.121 352.307 145.839 351.319 147.276 351.319C148.708 351.319 149.423 352.309 149.423 354.29C149.423 356.265 148.705 357.253 147.268 357.253C145.836 357.253 145.121 356.262 145.121 354.282ZM148.641 354.282C148.641 353.505 148.533 352.922 148.316 352.534C148.1 352.146 147.751 351.951 147.268 351.951C146.785 351.951 146.436 352.148 146.219 352.542C146.008 352.931 145.903 353.513 145.903 354.29C145.903 355.067 146.008 355.649 146.219 356.038C146.436 356.421 146.785 356.612 147.268 356.612C147.751 356.612 148.1 356.418 148.316 356.029C148.533 355.636 148.641 355.053 148.641 354.282Z" fill="white"/>
<g filter="url(#filter1_d_279_147647)">
<path d="M63.8751 460.814C51.4633 451.281 42.3493 438.099 37.8131 423.121C33.2769 408.143 33.5463 392.12 38.5836 377.302C43.621 362.485 53.173 349.618 65.8984 340.508C78.6237 331.397 93.883 326.502 109.533 326.509C125.183 326.516 140.438 331.426 153.155 340.547C165.872 349.669 175.413 362.545 180.437 377.367C185.46 392.189 185.715 408.212 181.166 423.186C176.616 438.16 167.49 451.333 155.069 460.855" stroke="url(#paint1_radial_279_147647)" stroke-width="14.044"/>
</g>
</g>
<defs>
<filter id="filter0_d_279_147647" x="53.7205" y="213.568" width="111.56" height="55.8804" filterUnits="userSpaceOnUse" color-interpolation-filters="sRGB">
<feFlood flood-opacity="0" result="BackgroundImageFix"/>
<feColorMatrix in="SourceAlpha" type="matrix" values="0 0 0 0 0 0 0 0 0 0 0 0 0 0 0 0 0 0 127 0" result="hardAlpha"/>
<feOffset dy="2.92"/>
<feGaussianBlur stdDeviation="4.38"/>
<feColorMatrix type="matrix" values="0 0 0 0 1 0 0 0 0 1 0 0 0 0 1 0 0 0 0.2 0"/>
<feBlend mode="normal" in2="BackgroundImageFix" result="effect1_dropShadow_279_147647"/>
<feBlend mode="normal" in="SourceGraphic" in2="effect1_dropShadow_279_147647" result="shape"/>
</filter>
<filter id="filter1_d_279_147647" x="10.8407" y="304.833" width="197.317" height="180.41" filterUnits="userSpaceOnUse" color-interpolation-filters="sRGB">
<feFlood flood-opacity="0" result="BackgroundImageFix"/>
<feColorMatrix in="SourceAlpha" type="matrix" values="0 0 0 0 0 0 0 0 0 0 0 0 0 0 0 0 0 0 127 0" result="hardAlpha"/>
<feOffset dy="2.0806"/>
<feGaussianBlur stdDeviation="8.36748"/>
<feComposite in2="hardAlpha" operator="out"/>
<feColorMatrix type="matrix" values="0 0 0 0 0.508889 0 0 0 0 0.738949 0 0 0 0 0.954167 0 0 0 0.27 0"/>
<feBlend mode="normal" in2="BackgroundImageFix" result="effect1_dropShadow_279_147647"/>
<feBlend mode="normal" in="SourceGraphic" in2="effect1_dropShadow_279_147647" result="shape"/>
</filter>
<radialGradient id="paint0_radial_279_147647" cx="0" cy="0" r="1" gradientUnits="userSpaceOnUse" gradientTransform="translate(5.46934 373.323) rotate(12.712) scale(264.743)">
<stop stop-color="#3D9FFB"/>
<stop offset="1" stop-color="#41F471"/>
</radialGradient>
<radialGradient id="paint1_radial_279_147647" cx="0" cy="0" r="1" gradientUnits="userSpaceOnUse" gradientTransform="translate(5.46934 373.323) rotate(12.712) scale(264.743)">
<stop stop-color="#DEEB7F"/>
<stop offset="1" stop-color="#94CD6A"/>
</radialGradient>
<clipPath id="clip0_279_147647">
<rect width="219" height="502" fill="white"/>
</clipPath>
<clipPath id="clip1_279_147647">
<rect width="14.016" height="14.016" fill="white" transform="translate(193.304 13.1719)"/>
</clipPath>
</defs>
</svg>
