<svg width="611" height="398" viewBox="0 0 611 398" fill="none" xmlns="http://www.w3.org/2000/svg">
<g clip-path="url(#clip0_102_4509)">
<path d="M320.6 172.8C287.577 171.287 272.545 136.998 276.2 113.4C335.865 60.1222 364.48 91.0098 369 118.6C372.277 138.6 354.431 174.35 320.6 172.8Z" fill="url(#paint0_linear_102_4509)"/>
<path d="M408.746 266.549C408.277 266.545 408.277 266.545 407.798 266.541C406.745 266.534 405.693 266.541 404.64 266.549C403.879 266.547 403.119 266.544 402.358 266.54C400.265 266.532 398.171 266.537 396.078 266.544C393.821 266.55 391.565 266.543 389.309 266.539C384.887 266.531 380.466 266.535 376.044 266.542C372.451 266.548 368.859 266.549 365.266 266.548C364.756 266.548 364.245 266.547 363.719 266.547C362.681 266.547 361.643 266.546 360.606 266.546C351.148 266.542 341.691 266.55 332.233 266.562C323.597 266.573 314.961 266.575 306.325 266.569C304.114 266.568 301.902 266.566 299.691 266.565C299.419 266.565 299.146 266.565 298.866 266.564C291.653 266.56 284.439 266.563 277.226 266.568C276.192 266.569 275.158 266.569 274.125 266.57C273.362 266.571 273.362 266.571 272.583 266.571C268.994 266.574 265.404 266.572 261.815 266.57C257.442 266.567 253.07 266.569 248.697 266.579C246.465 266.584 244.233 266.587 242 266.582C239.959 266.578 237.917 266.582 235.875 266.591C235.135 266.593 234.395 266.592 233.654 266.589C232.651 266.584 231.648 266.59 230.645 266.597C230.355 266.594 230.065 266.59 229.766 266.586C228.341 266.608 227.562 266.777 226.347 267.548C225.31 268.625 225.275 269.134 225.271 270.613C225.265 271.066 225.258 271.518 225.252 271.985C225.256 272.482 225.259 272.979 225.263 273.492C225.259 274.025 225.255 274.558 225.25 275.092C225.239 276.557 225.24 278.023 225.243 279.489C225.244 281.066 225.234 282.644 225.225 284.221C225.21 287.306 225.205 290.39 225.204 293.475C225.202 297.06 225.191 300.645 225.179 304.23C225.159 310.199 225.148 316.167 225.142 322.136C225.134 329.273 225.113 336.409 225.08 343.545C225.077 344.276 225.074 345.006 225.07 345.737C225.069 346.096 225.067 346.456 225.065 346.827C225.045 351.397 225.031 355.968 225.019 360.538C225.017 361.217 225.015 361.895 225.014 362.573C225.013 362.906 225.012 363.24 225.011 363.583C225.004 365.929 224.994 368.276 224.982 370.622C224.968 373.478 224.96 376.334 224.959 379.19C224.958 380.643 224.955 382.097 224.945 383.55C224.934 385.124 224.936 386.697 224.938 388.271C224.933 388.728 224.928 389.184 224.923 389.655C224.939 392.142 225.059 394.429 226.726 396.4C228.552 397.855 229.946 398.232 232.228 398.203C232.534 398.206 232.84 398.209 233.156 398.211C234.184 398.218 235.211 398.213 236.238 398.208C236.982 398.211 237.726 398.214 238.469 398.218C240.514 398.226 242.559 398.224 244.603 398.221C246.808 398.219 249.012 398.226 251.217 398.232C255.537 398.242 259.856 398.244 264.176 398.242C267.686 398.24 271.196 398.242 274.707 398.245C275.206 398.246 275.705 398.246 276.22 398.247C277.234 398.248 278.248 398.249 279.262 398.25C286.074 398.256 292.885 398.259 299.697 398.256C299.963 398.256 300.23 398.255 300.504 398.255C301.854 398.255 303.204 398.254 304.555 398.253C304.823 398.253 305.091 398.253 305.367 398.253C305.909 398.253 306.452 398.252 306.994 398.252C315.431 398.248 323.869 398.254 332.307 398.269C341.786 398.285 351.265 398.294 360.745 398.291C365.764 398.289 370.783 398.291 375.803 398.303C380.076 398.312 384.349 398.313 388.622 398.304C390.802 398.299 392.982 398.298 395.163 398.308C397.159 398.316 399.155 398.314 401.151 398.303C401.873 398.3 402.595 398.302 403.317 398.309C409.839 398.362 409.839 398.362 412.141 396.236C413.419 394.684 413.865 393.606 413.865 391.6C414.148 391.604 414.432 391.608 414.725 391.612C417.849 391.636 420.936 391.489 424.05 391.261C424.566 391.224 425.081 391.187 425.612 391.149C427.303 391.028 428.994 390.902 430.684 390.775C430.974 390.753 431.264 390.732 431.563 390.709C440.737 390.026 449.895 389.217 459.045 388.264C459.886 388.176 460.728 388.09 461.569 388.003C466.98 387.446 472.376 386.83 477.75 385.983C478.144 385.921 478.538 385.859 478.943 385.796C487.784 384.338 496.753 381.226 502.386 373.85C507.493 366.317 508.006 357.487 506.426 348.721C503.116 332.144 494.787 315.821 485.841 301.6C483.905 302.862 482.016 304.162 480.168 305.55C462.936 318.104 442.745 319.456 422.262 321.2C423.807 325.384 425.572 329.452 427.385 333.525C427.665 334.156 427.945 334.788 428.225 335.419C428.902 336.947 429.58 338.474 430.259 340C429.971 340.044 429.682 340.088 429.384 340.133C426.375 340.609 423.439 341.247 420.487 342C420.068 342.104 419.649 342.208 419.217 342.316C417.372 342.781 415.628 343.281 413.865 344C413.867 343.421 413.867 343.421 413.87 342.831C413.915 333.45 413.947 324.07 413.968 314.689C413.979 310.152 413.993 305.616 414.015 301.08C414.035 297.126 414.048 293.173 414.053 289.219C414.055 287.126 414.061 285.032 414.076 282.938C414.09 280.968 414.094 278.998 414.091 277.027C414.091 276.304 414.095 275.58 414.103 274.857C414.113 273.869 414.111 272.883 414.105 271.895C414.114 271.465 414.114 271.465 414.123 271.026C414.101 269.592 413.922 268.875 413.045 267.727C411.59 266.584 410.521 266.52 408.746 266.549Z" fill="#E6E5E5"/>
<g clip-path="url(#clip1_102_4509)">
<path d="M350.927 333.681C352.571 333.77 353.845 335.185 353.618 336.824C352.532 344.661 348.862 351.955 343.105 357.428C336.622 363.589 328.034 367.016 319.112 367C310.19 366.984 301.614 363.528 295.153 357.344C289.415 351.851 285.734 344.579 284.667 336.746C284.444 335.107 285.723 333.697 287.367 333.613C289.011 333.53 290.396 334.806 290.648 336.441C291.619 342.739 294.633 348.572 299.265 353.005C304.62 358.131 311.728 360.995 319.122 361.008C326.517 361.021 333.635 358.182 339.008 353.075C343.655 348.657 346.656 342.802 347.639 336.498C347.894 334.864 349.283 333.592 350.927 333.681Z" fill="white"/>
<path d="M287.876 326.869C286.177 326.591 285.011 324.975 285.439 323.3C287.223 316.313 291.121 310.022 296.631 305.32C302.936 299.94 310.941 296.991 319.212 297C327.484 297.009 335.482 299.977 341.775 305.372C347.274 310.086 351.158 316.385 352.926 323.377C353.351 325.053 352.18 326.666 350.481 326.94C348.781 327.215 347.198 326.046 346.742 324.378C345.23 318.855 342.102 313.887 337.729 310.138C332.563 305.709 325.996 303.273 319.205 303.265C312.414 303.257 305.842 305.679 300.666 310.096C296.285 313.834 293.145 318.796 291.621 324.315C291.161 325.982 289.575 327.148 287.876 326.869Z" fill="white"/>
<path d="M352.046 336.059C352.797 335.482 352.7 334.316 351.864 333.872L340.632 327.911C339.922 327.534 339.045 327.891 338.795 328.658L338.197 330.494C337.996 331.111 338.278 331.782 338.858 332.068L349.33 337.237C349.771 337.455 350.298 337.403 350.689 337.102L352.046 336.059Z" fill="white"/>
<path d="M286.07 336.232C285.178 335.718 285.207 334.415 286.121 333.943L297.706 327.953C298.416 327.586 299.284 327.946 299.531 328.709L300.107 330.488C300.307 331.104 300.025 331.774 299.447 332.06L288.965 337.237C288.578 337.428 288.123 337.413 287.749 337.198L286.07 336.232Z" fill="white"/>
<path d="M305.363 323.602C307.816 333.512 314.423 340.282 317.468 342.453L318.879 343.236C319.035 343.322 319.224 343.322 319.38 343.236L320.791 342.453C323.836 340.282 330.443 333.512 332.896 323.602C332.965 323.325 332.824 323.036 332.588 322.962L319.282 318.846C319.183 318.815 319.076 318.815 318.977 318.846L305.671 322.962C305.435 323.036 305.295 323.325 305.363 323.602Z" stroke="white" stroke-width="5.09877" stroke-linejoin="round"/>
<path d="M288.926 324.775C298.821 313.849 310.358 309.984 314.29 309.81M349.333 324.775C342.117 315.672 329.198 309.984 324.099 309.81" stroke="white" stroke-width="3.97531"/>
<path d="M288.926 336.169C311.006 357.012 327.772 356.969 349.333 336.169" stroke="white" stroke-width="4.23457"/>
<path d="M319.173 351.802V362.31" stroke="white" stroke-width="3.62963" stroke-linecap="round"/>
<path d="M319.173 302.037V310.201" stroke="white" stroke-width="4.06173" stroke-linecap="round"/>
</g>
<path d="M-6.10352e-05 151.2C-0.168152 152.509 -0.289703 153.555 0.453888 154.698C1.11456 155.421 1.80304 156.088 2.52411 156.75C2.90717 157.116 2.9072 157.116 3.298 157.49C5.09207 159.187 6.95428 160.788 8.89081 162.32C10.1258 163.303 11.3226 164.323 12.5208 165.35C14.9657 167.431 17.4735 169.423 20.0094 171.391C20.862 172.053 21.7133 172.717 22.5644 173.381C23.1819 173.862 23.7994 174.344 24.417 174.825C24.7221 175.063 25.0273 175.301 25.3417 175.546C26.7184 176.617 28.0975 177.684 29.4919 178.733C33.1485 181.485 36.1034 184.384 38.9653 187.95C40.1436 189.407 41.3783 190.814 42.611 192.225C44.3304 194.197 46.0096 196.19 47.6297 198.245C49.056 200.05 50.5241 201.821 51.9829 203.6C52.5829 204.333 53.1827 205.067 53.7823 205.8C60.98 214.6 60.98 214.6 61.8828 215.703C62.4731 216.425 63.0625 217.148 63.651 217.872C65.4579 220.091 67.2908 222.286 69.1436 224.466C70.295 225.824 71.4293 227.193 72.5512 228.575C74.1331 230.52 75.7595 232.422 77.3962 234.321C78.6291 235.754 79.8359 237.204 81.0234 238.675C82.5628 240.572 84.1833 242.38 85.8359 244.178C86.8627 245.299 87.8628 246.441 88.8599 247.589C89.9922 248.881 91.1469 250.153 92.2979 251.428C93.0461 252.262 93.785 253.103 94.519 253.95C96.2332 255.917 98.0027 257.833 99.7708 259.752C100.374 260.408 100.975 261.065 101.576 261.723C103.757 264.107 105.978 266.429 108.277 268.7C109.051 269.485 109.775 270.285 110.489 271.125C113.263 274.36 116.358 277.375 119.605 280.131C120.495 280.919 121.325 281.753 122.16 282.6C123.466 283.919 124.795 285.175 126.206 286.381C126.948 287.02 127.681 287.665 128.411 288.319C142.513 300.861 156.22 309.677 175.542 308.8C178.66 308.519 181.695 307.913 184.74 307.2C185.121 307.112 185.502 307.024 185.894 306.934C189.939 305.983 193.929 304.871 197.86 303.525C198.339 303.362 198.339 303.362 198.827 303.196C200.782 302.5 202.614 301.675 204.463 300.731C209.372 298.061 209.372 298.061 214.742 298.031C216.479 298.665 218.092 299.471 219.668 300.436C220.328 300.8 220.328 300.8 221.128 300.8C221.16 301.232 221.16 301.232 221.193 301.674C221.429 304.666 221.76 307.635 222.151 310.611C222.24 311.301 222.24 311.301 222.331 312.006C222.457 312.972 222.583 313.939 222.71 314.905C222.901 316.37 223.091 317.834 223.281 319.299C223.404 320.245 223.527 321.19 223.65 322.136C223.706 322.566 223.762 322.997 223.819 323.441C224.212 326.434 224.656 329.418 225.126 332.4C225.258 332.4 225.39 332.4 225.526 332.4C225.527 332.071 225.527 331.742 225.528 331.404C225.543 323.412 225.566 315.42 225.6 307.428C225.616 303.564 225.629 299.699 225.634 295.834C225.64 292.466 225.65 289.099 225.668 285.731C225.677 283.947 225.683 282.163 225.683 280.379C225.683 278.701 225.69 277.023 225.703 275.345C225.706 274.729 225.707 274.112 225.704 273.495C225.702 272.654 225.709 271.814 225.718 270.974C225.721 270.268 225.721 270.268 225.723 269.547C225.82 268.393 225.82 268.393 226.546 267.738C227.886 267.002 229.108 267.034 230.597 267.048C230.909 267.046 231.222 267.044 231.544 267.042C232.598 267.037 233.651 267.041 234.705 267.045C235.466 267.043 236.227 267.041 236.987 267.038C239.082 267.033 241.177 267.034 243.272 267.037C245.53 267.039 247.787 267.034 250.045 267.03C254.469 267.023 258.894 267.023 263.318 267.025C266.913 267.027 270.507 267.026 274.102 267.024C274.613 267.023 275.124 267.023 275.65 267.023C276.688 267.022 277.726 267.022 278.764 267.021C285.735 267.017 292.707 267.015 299.679 267.018C299.951 267.019 300.224 267.019 300.505 267.019C302.72 267.02 304.935 267.021 307.15 267.022C315.791 267.026 324.433 267.023 333.074 267.013C342.778 267.003 352.482 266.998 362.186 267.001C367.326 267.002 372.466 267.001 377.606 266.994C381.981 266.988 386.356 266.988 390.731 266.995C392.965 266.998 395.199 266.999 397.433 266.993C399.475 266.988 401.518 266.989 403.561 266.997C404.302 266.999 405.043 266.997 405.784 266.993C406.787 266.988 407.79 266.993 408.794 267C409.085 266.996 409.376 266.992 409.676 266.988C411.023 267.008 411.75 267.115 412.844 267.927C413.737 269.183 413.688 270.362 413.672 271.847C413.675 272.156 413.678 272.464 413.681 272.782C413.689 273.816 413.686 274.85 413.683 275.885C413.686 276.626 413.691 277.367 413.695 278.108C413.707 280.121 413.708 282.134 413.708 284.147C413.709 286.251 413.719 288.354 413.728 290.457C413.745 294.441 413.753 298.424 413.758 302.408C413.764 306.943 413.78 311.478 413.796 316.013C413.829 325.342 413.85 334.671 413.864 344C414.656 343.736 415.448 343.472 416.264 343.2C416.551 340.646 416.836 338.091 417.118 335.536C417.214 334.668 417.311 333.801 417.409 332.933C417.55 331.681 417.688 330.429 417.826 329.177C417.869 328.793 417.913 328.409 417.958 328.013C418.207 325.726 418.304 323.5 418.263 321.2C418.734 321.208 419.205 321.216 419.691 321.225C424.571 321.282 429.38 321.042 434.239 320.604C435.404 320.5 436.568 320.404 437.733 320.309C453.658 318.95 468.891 314.451 481.842 304.8C482.667 304.2 483.491 303.6 484.316 303C484.668 302.74 485.021 302.48 485.383 302.212C486.205 301.592 486.205 301.592 487.041 301.2C486.535 299.546 485.919 298.12 485.047 296.628C484.808 296.216 484.569 295.804 484.323 295.379C484.065 294.941 483.807 294.502 483.542 294.05C483.271 293.586 483.001 293.121 482.73 292.656C482.037 291.465 481.341 290.276 480.645 289.087C480.027 288.032 479.413 286.975 478.798 285.919C477.874 284.331 476.949 282.745 476.022 281.159C475.119 279.613 474.217 278.065 473.317 276.516C467.359 266.265 461.327 256.059 455.051 246C454.806 245.607 454.561 245.214 454.309 244.81C451.24 239.897 448.081 235.071 444.654 230.4C444.481 230.164 444.308 229.927 444.13 229.684C442.005 226.799 439.727 224.108 437.274 221.502C436.245 220.413 436.245 220.413 435.328 219.236C419.412 199.925 385.272 193.249 362.656 185.7C362.186 185.543 361.716 185.386 361.231 185.224C359.886 184.776 358.54 184.328 357.194 183.881C356.797 183.749 356.4 183.617 355.991 183.48C354.158 182.873 352.322 182.278 350.478 181.707C350.162 181.609 349.845 181.511 349.519 181.41C348.686 181.2 348.686 181.2 347.486 181.2C347.288 185.299 347.725 189.227 348.294 193.281C348.872 197.59 348.294 200.357 345.887 204C341.204 209.86 334.011 212.251 326.813 213.109C318.872 213.893 311.305 212.231 304.7 207.6C303.992 206.963 303.355 206.295 302.701 205.6C302.437 205.6 302.173 205.6 301.901 205.6C301.799 205.378 301.696 205.155 301.59 204.927C300.838 203.501 299.868 202.24 298.926 200.936C297.717 199.121 297.902 197.511 298.027 195.425C298.046 195.093 298.064 194.761 298.084 194.419C298.294 190.919 298.65 187.435 299.035 183.95C299.102 183.2 299.102 183.2 299.102 182C292.84 183.198 286.636 184.602 280.433 186.075C279.95 186.189 279.467 186.304 278.969 186.422C260.514 190.806 243.473 195.717 227.126 205.6C226.708 205.851 226.291 206.101 225.862 206.36C220.375 209.664 215.005 213.109 209.693 216.684C207.396 218.229 205.094 219.754 202.734 221.2C199.37 223.263 196.104 225.474 192.827 227.669C190.019 229.55 187.201 231.413 184.365 233.25C183.881 233.564 183.881 233.564 183.387 233.884C182.246 234.624 181.106 235.364 179.964 236.103C179.289 236.542 178.615 236.983 177.942 237.425C177.587 237.656 177.232 237.888 176.867 238.127C175.942 238.8 175.942 238.8 175.244 239.555C173.898 240.818 172.329 241.611 170.719 242.5C168.145 243.941 165.588 245.403 163.061 246.923C162.697 247.142 162.697 247.142 162.327 247.364C161.362 247.943 160.397 248.523 159.436 249.108C158.762 249.518 158.087 249.924 157.411 250.33C157.023 250.565 156.634 250.801 156.234 251.043C155.156 251.596 154.358 251.92 153.15 252C152.407 251.667 152.407 251.667 151.78 251.07C151.531 250.859 151.281 250.648 151.025 250.43C150.761 250.198 150.497 249.965 150.226 249.725C149.654 249.24 149.081 248.755 148.508 248.272C148.216 248.025 147.925 247.778 147.624 247.523C146.296 246.422 144.916 245.398 143.528 244.375C141.152 242.614 138.828 240.799 136.526 238.942C134.769 237.526 132.994 236.14 131.202 234.768C129.356 233.354 127.519 231.929 125.684 230.5C125.379 230.263 125.075 230.026 124.761 229.781C124.138 229.296 123.515 228.811 122.892 228.326C121.382 227.15 119.872 225.975 118.361 224.8C117.761 224.333 117.162 223.867 116.562 223.4C105.765 215 94.9689 206.6 84.1724 198.2C83.8753 197.969 83.5783 197.738 83.2722 197.5C82.674 197.034 82.0759 196.569 81.4777 196.103C79.9529 194.917 78.4285 193.731 76.9044 192.544C73.4043 189.818 69.8983 187.1 66.3782 184.4C66.8735 182.838 67.4437 181.376 68.1526 179.9C69.9277 176.002 71.5037 171.693 70.0395 167.414C68.7617 165.095 66.8683 164.101 64.3929 163.367C62.5746 162.994 60.7036 162.892 58.9806 163.625C57.5541 165.468 57.9514 168.12 58.006 170.345C58.0403 171.221 58.0403 171.221 57.5811 172C48.5552 173.775 37.4393 166.443 29.5815 162.77C4.82742 151.2 4.82742 151.2 -6.10352e-05 151.2Z" fill="#23418F"/>
<path d="M7.62939e-05 151.2C-0.16803 152.509 -0.289566 153.555 0.454041 154.698C1.11469 155.421 1.80318 156.088 2.52426 156.75C2.77963 156.994 3.035 157.239 3.29813 157.49C5.09221 159.187 6.95441 160.788 8.89091 162.32C10.1259 163.303 11.3227 164.323 12.521 165.35C14.9658 167.431 17.4737 169.423 20.0096 171.391C20.8622 172.053 21.7134 172.717 22.5646 173.381C23.1821 173.862 23.7995 174.344 24.4171 174.825C24.7223 175.063 25.0275 175.301 25.3419 175.546C26.7185 176.617 28.0976 177.684 29.492 178.733C33.1486 181.485 36.1035 184.384 38.9655 187.95C40.1438 189.407 41.3784 190.814 42.6111 192.225C44.3306 194.197 46.0097 196.19 47.6298 198.245C49.0561 200.05 50.5242 201.821 51.9831 203.6C52.583 204.333 53.1828 205.067 53.7825 205.8C60.9801 214.6 60.9801 214.6 61.8829 215.703C62.4733 216.425 63.0627 217.148 63.6511 217.872C65.4581 220.091 67.2909 222.286 69.1438 224.466C70.2952 225.824 71.4295 227.193 72.5513 228.575C74.1332 230.52 75.7596 232.422 77.3963 234.321C78.6292 235.754 79.836 237.204 81.0236 238.675C82.5629 240.572 84.1834 242.38 85.836 244.178C86.8628 245.299 87.8629 246.441 88.8601 247.589C89.9923 248.881 91.147 250.153 92.298 251.428C93.0462 252.262 93.7851 253.103 94.5191 253.95C96.2334 255.917 98.0029 257.833 99.7709 259.752C100.374 260.408 100.975 261.065 101.576 261.723C103.757 264.107 105.978 266.429 108.277 268.7C109.051 269.485 109.775 270.285 110.489 271.125C113.263 274.36 116.358 277.374 119.605 280.131C120.495 280.919 121.325 281.753 122.16 282.6C123.466 283.919 124.795 285.175 126.206 286.381C126.949 287.02 127.681 287.665 128.411 288.319C142.513 300.861 156.221 309.677 175.543 308.8C178.66 308.519 181.695 307.913 184.74 307.2C185.121 307.112 185.502 307.024 185.894 306.934C195.105 304.769 203.668 301.363 212.331 297.6C212.331 297.336 212.331 297.072 212.331 296.8C211.982 296.611 211.634 296.421 211.275 296.227C202.434 291.35 194.943 284.568 189.538 276C189.388 275.762 189.238 275.525 189.083 275.28C183.337 266.012 180.824 255.165 178.086 244.714C177.995 244.372 177.904 244.03 177.811 243.678C177.654 243.081 177.502 242.483 177.355 241.883C177.156 241.122 177.156 241.122 176.742 240C175.543 239.6 175.543 239.6 174.494 240.09C174.076 240.341 173.657 240.593 173.226 240.852C172.996 240.988 172.766 241.125 172.529 241.265C172.033 241.561 171.538 241.858 171.043 242.157C170.267 242.627 169.487 243.091 168.707 243.554C166.628 244.788 164.556 246.032 162.486 247.28C161.168 248.074 159.845 248.862 158.523 249.65C158.124 249.894 157.726 250.137 157.315 250.388C156.946 250.608 156.577 250.827 156.197 251.053C155.878 251.246 155.558 251.44 155.228 251.639C154.182 252.069 153.784 252.024 152.75 251.6C151.903 250.996 151.104 250.382 150.301 249.725C149.798 249.322 149.295 248.918 148.792 248.516C148.526 248.301 148.259 248.087 147.985 247.866C146.553 246.721 145.102 245.599 143.653 244.475C143.039 243.997 142.424 243.52 141.81 243.042C141.503 242.804 141.196 242.565 140.88 242.319C139.371 241.147 137.863 239.973 136.355 238.8C135.756 238.333 135.156 237.867 134.556 237.4C134.259 237.169 133.962 236.938 133.656 236.7C107.115 216.05 107.115 216.05 80.5737 195.4C80.2764 195.169 79.979 194.937 79.6726 194.699C79.0774 194.236 78.4821 193.773 77.8869 193.31C76.3173 192.089 74.7481 190.867 73.1792 189.645C72.6891 189.264 72.6891 189.264 72.1889 188.874C71.563 188.387 70.9372 187.899 70.3114 187.412C69.8877 187.082 69.8877 187.082 69.4555 186.745C69.2081 186.553 68.9608 186.36 68.7059 186.161C67.9353 185.567 67.158 184.982 66.3784 184.4C66.8452 182.829 67.4565 181.379 68.1528 179.9C69.9278 176.002 71.5038 171.693 70.0397 167.414C68.7618 165.095 66.8684 164.101 64.3931 163.367C62.5747 162.994 60.7037 162.892 58.9808 163.625C57.5542 165.468 57.9516 168.12 58.0061 170.345C58.0405 171.221 58.0405 171.221 57.5812 172C48.5553 173.775 37.4394 166.443 29.5817 162.77C4.82756 151.2 4.82756 151.2 7.62939e-05 151.2Z" fill="#FECBAC"/>
<path d="M485.841 301.6C483.905 302.862 482.016 304.162 480.168 305.55C462.936 318.104 442.745 319.456 422.262 321.2C423.807 325.385 425.572 329.452 427.385 333.525C427.665 334.157 427.945 334.788 428.225 335.42C428.902 336.947 429.58 338.474 430.259 340C429.971 340.044 429.682 340.088 429.384 340.133C426.375 340.61 423.439 341.248 420.487 342C420.068 342.104 419.649 342.208 419.217 342.316C417.372 342.781 415.628 343.281 413.865 344C413.864 344.235 413.863 344.471 413.862 344.713C413.838 350.438 413.808 356.164 413.77 361.889C413.752 364.658 413.737 367.427 413.726 370.196C413.716 372.867 413.7 375.539 413.679 378.21C413.673 379.23 413.668 380.25 413.666 381.27C413.662 382.697 413.651 384.123 413.638 385.55C413.638 385.973 413.639 386.396 413.639 386.832C413.639 389.63 413.639 389.63 412.265 392C410.838 392.476 409.547 392.456 408.062 392.452C407.752 392.452 407.442 392.453 407.122 392.454C406.075 392.456 405.027 392.455 403.979 392.454C403.224 392.454 402.469 392.455 401.713 392.456C399.631 392.459 397.549 392.459 395.467 392.458C393.223 392.458 390.98 392.46 388.737 392.462C384.34 392.466 379.943 392.467 375.547 392.467C371.974 392.467 368.402 392.468 364.829 392.469C356.358 392.472 347.886 392.475 339.414 392.474C339.143 392.474 338.872 392.474 338.593 392.474C337.219 392.474 335.845 392.474 334.471 392.474C334.199 392.474 333.926 392.474 333.645 392.474C333.093 392.474 332.541 392.474 331.989 392.474C323.401 392.474 314.814 392.477 306.226 392.482C296.583 392.489 286.941 392.492 277.298 392.492C272.19 392.492 267.082 392.493 261.975 392.497C257.627 392.501 253.279 392.501 248.931 392.499C246.711 392.497 244.491 392.497 242.271 392.501C240.24 392.504 238.21 392.503 236.18 392.5C235.444 392.499 234.707 392.5 233.971 392.502C232.973 392.505 231.976 392.503 230.979 392.5C230.69 392.502 230.401 392.504 230.103 392.506C228.655 392.495 227.533 392.445 226.326 391.6C226.194 391.336 226.062 391.072 225.926 390.8C225.662 390.8 225.398 390.8 225.126 390.8C225.234 393.219 225.494 394.895 227.126 396.8C228.766 398.044 230.184 398.172 232.179 398.154C232.637 398.158 232.637 398.158 233.105 398.161C234.134 398.166 235.162 398.163 236.19 398.161C236.934 398.163 237.677 398.166 238.42 398.169C240.466 398.176 242.511 398.176 244.557 398.175C246.762 398.174 248.967 398.181 251.172 398.187C255.492 398.197 259.813 398.2 264.134 398.201C267.646 398.201 271.157 398.204 274.669 398.207C283.001 398.216 291.332 398.224 299.664 398.223C299.931 398.223 300.197 398.223 300.472 398.223C301.822 398.223 303.173 398.223 304.524 398.223C304.792 398.223 305.06 398.223 305.337 398.223C305.879 398.222 306.422 398.222 306.964 398.222C315.404 398.222 323.844 398.231 332.285 398.247C341.766 398.266 351.247 398.276 360.729 398.275C365.749 398.274 370.77 398.278 375.791 398.291C380.065 398.301 384.339 398.304 388.614 398.296C390.795 398.292 392.976 398.292 395.158 398.302C397.154 398.312 399.151 398.31 401.148 398.3C401.87 398.298 402.593 398.3 403.315 398.307C409.84 398.363 409.84 398.363 412.141 396.237C413.419 394.685 413.865 393.606 413.865 391.6C414.148 391.604 414.432 391.608 414.725 391.612C417.849 391.636 420.936 391.489 424.05 391.261C424.566 391.224 425.081 391.188 425.612 391.15C427.303 391.028 428.994 390.902 430.684 390.775C430.974 390.754 431.264 390.732 431.563 390.71C440.737 390.026 449.895 389.217 459.045 388.264C459.886 388.176 460.728 388.09 461.569 388.004C466.98 387.446 472.376 386.831 477.75 385.983C478.144 385.921 478.538 385.859 478.943 385.796C487.784 384.338 496.753 381.226 502.386 373.85C507.493 366.317 508.006 357.487 506.426 348.721C503.116 332.144 494.787 315.821 485.841 301.6Z" fill="#FEC19D"/>
<path d="M320.295 29.5999C319.788 29.6118 319.28 29.6237 318.757 29.6359C303.242 30.1563 287.345 35.1837 276.113 46.2126C275.483 46.826 274.841 47.4247 274.198 48.0234C262.864 58.7285 258.298 74.8158 257.516 89.9999C257.495 91.2013 257.501 92.3982 257.516 93.5999C257.273 93.7098 257.03 93.8196 256.78 93.9328C254.963 94.9153 253.64 96.8592 252.92 98.7734C252.071 102.233 252.908 105.693 253.635 109.096C254.222 111.852 254.688 114.615 255.117 117.4C255.649 120.841 256.26 124.253 256.972 127.661C257.37 129.588 257.676 131.497 257.916 133.45C258.457 137.325 259.409 140.032 262.519 142.547C265.043 144.204 267.585 144.664 270.557 144.23C273.356 143.556 275.577 142.134 277.172 139.692C280.03 134.842 278.624 128.807 277.306 123.596C277.237 123.332 277.168 123.068 277.097 122.795C276.69 121.203 276.463 119.631 276.26 118C276.208 117.592 276.208 117.592 276.155 117.177C276.072 116.518 275.99 115.859 275.91 115.2C276.329 114.92 276.748 114.641 277.18 114.353C279.156 113.035 281.131 111.718 283.107 110.4C283.886 110.321 283.886 110.321 284.732 110.325C286.836 110.141 288.012 109.163 289.658 107.914C294.645 104.512 302.059 104.435 307.817 105.473C310.434 106.29 313.531 107.644 315.22 109.898C315.897 110.4 315.897 110.4 317.109 110.278C317.354 110.231 317.599 110.183 317.852 110.135C319.519 109.868 321.211 109.943 322.894 109.95C323.259 109.948 323.623 109.947 323.999 109.945C325.605 109.948 327.063 109.995 328.65 110.281C329.892 110.4 329.892 110.4 330.784 109.897C331.042 109.65 331.3 109.404 331.567 109.15C336.137 105.222 341.465 104.868 347.212 105.102C350.085 105.364 352.695 106.482 355.304 107.661C356.436 108.053 357.363 108.067 358.558 108.075C361.382 108.262 362.918 109.495 365.081 111.2C365.998 111.77 366.93 112.284 367.88 112.8C367.316 111.037 366.737 109.291 366.021 107.583C364.057 102.895 362.853 98.1823 361.882 93.1999C361.787 92.7225 361.693 92.245 361.596 91.7531C360.942 88.0019 360.834 84.198 360.682 80.3999C359.503 80.9806 358.348 81.5967 357.196 82.2296C346.382 88.0903 334.743 91.8054 322.345 91.6749C321.807 91.6708 321.27 91.6668 320.732 91.6627C319.253 91.6479 317.775 91.6255 316.297 91.5999C315.978 91.5965 315.659 91.593 315.33 91.5894C303.397 91.416 290.332 87.2862 280.121 81.1249C279.509 80.7999 279.509 80.7999 278.709 80.7999C278.721 81.3362 278.721 81.3362 278.734 81.8833C278.941 92.0996 278.108 101.675 275.51 111.6C275.378 111.6 275.246 111.6 275.11 111.6C275.062 111.274 275.014 110.947 274.965 110.611C274.779 109.376 274.586 108.141 274.388 106.908C274.264 106.121 274.148 105.333 274.032 104.545C273.38 100.53 272.408 96.4165 269.112 93.7499C267.277 92.559 265.716 91.9999 263.514 91.9999C265.923 77.4402 272.183 63.4808 284.465 54.6046C289.758 50.8949 295.305 48.2318 301.501 46.3999C301.963 46.252 302.425 46.104 302.901 45.9515C319.194 41.0728 339.448 43.2969 354.404 51.0874C357.121 52.6068 359.522 54.3769 361.882 56.3999C362.375 56.806 362.375 56.806 362.878 57.2203C372.048 65.0356 377.199 77.1012 378.487 88.914C378.58 90.0779 378.652 91.2328 378.676 92.3999C378.198 92.6062 377.719 92.8124 377.227 93.0249C374.397 94.4479 372.918 96.6504 371.878 99.5999C371.582 100.846 371.384 102.1 371.191 103.366C371.133 103.722 371.076 104.079 371.017 104.446C370.834 105.58 370.656 106.715 370.479 107.85C370.244 109.339 370.006 110.827 369.767 112.316C369.709 112.673 369.652 113.03 369.593 113.398C369.196 115.819 368.712 118.195 368.115 120.575C367.824 121.84 367.693 123.092 367.578 124.383C367.478 125.218 367.298 125.989 367.08 126.8C366.624 128.528 366.404 130.219 366.28 132C366.234 132.572 366.234 132.572 366.186 133.155C366.049 136.139 366.491 138.364 368.28 140.8C370.412 142.993 373.095 144.305 376.157 144.451C379.503 144.297 382.116 143.14 384.424 140.7C386.584 137.907 386.828 134.704 387.239 131.292C387.47 129.508 387.828 127.759 388.198 126C389.053 121.909 389.705 117.79 390.337 113.66C390.786 110.775 391.326 107.946 392.029 105.111C392.67 102.177 392.389 99.5099 391.072 96.7999C389.711 94.7086 388.116 93.4578 385.874 92.3999C385.478 92.3999 385.082 92.3999 384.674 92.3999C384.688 91.9637 384.701 91.5275 384.715 91.0781C384.695 76.175 377.868 60.2471 368.679 48.7999C368.4 48.4385 368.12 48.077 367.831 47.7046C367.134 46.8656 366.437 46.1774 365.605 45.4749C364.749 44.747 363.903 44.0204 363.084 43.2499C351.574 32.4744 335.653 29.0783 320.295 29.5999Z" fill="#FDFDFD"/>
<path d="M281.783 56.3501C272.852 64.1918 266.952 74.4839 264.164 86.0251C264.063 86.4392 264.063 86.4392 263.96 86.8617C263.568 88.6011 263.454 90.2205 263.514 92.0001C263.77 92.0635 264.026 92.1269 264.29 92.1923C267.069 92.9421 269.319 93.6489 270.925 96.1579C272.618 99.3865 273.303 102.433 273.81 106.025C273.964 107.055 274.12 108.085 274.279 109.114C274.343 109.563 274.408 110.012 274.474 110.475C274.71 111.6 274.71 111.6 275.51 112.8C281.075 91.0951 281.075 91.0951 278.709 80.8001C278.997 80.9598 278.997 80.9598 279.292 81.1228C283.913 83.6628 288.53 85.8483 293.504 87.6001C293.757 87.6922 294.011 87.7843 294.272 87.8792C300.873 90.2558 308.327 91.8878 315.346 91.986C316.087 91.997 316.829 92.0151 317.57 92.036C324.284 92.2174 330.552 91.9595 337.09 90.4001C337.578 90.2909 337.578 90.2909 338.077 90.1796C345.737 88.4619 354.51 85.4053 360.682 80.4001C360.663 80.842 360.645 81.2838 360.626 81.7391C360.319 92.5496 363.3 102.938 367.866 112.659C368.406 113.887 368.761 115.099 369.079 116.4C369.211 116.4 369.343 116.4 369.479 116.4C369.553 115.912 369.628 115.424 369.704 114.921C369.984 113.094 370.274 111.268 370.565 109.442C370.69 108.655 370.812 107.867 370.931 107.08C371.793 99.8685 371.793 99.8685 375.902 94.2001C376.921 93.5057 377.965 92.9345 379.076 92.4001C378.451 79.6094 373.377 66.5344 363.976 57.5829C342.527 38.8229 303.752 37.69 281.783 56.3501Z" fill="#30235A"/>
<path d="M345.887 166C345.484 166.208 345.082 166.416 344.667 166.63C332.906 172.526 319.758 173.197 307.252 169.168C305.502 168.576 303.823 167.886 302.181 167.041C301.501 166.8 301.501 166.8 300.302 167.2C298.773 182.343 298.773 182.343 298.081 189.606C298.004 190.408 297.926 191.211 297.848 192.013C297.219 198.674 297.219 198.674 298.577 201.025C298.876 201.558 298.876 201.558 299.182 202.102C303.038 207.983 309.521 211.676 316.296 213.2C324.777 214.636 334.347 213.44 341.488 208.425C342.163 207.894 342.83 207.353 343.488 206.8C343.88 206.481 343.88 206.481 344.281 206.156C346.692 204.001 348.888 200.873 349.2 197.603C349.1 196.252 348.898 194.938 348.686 193.6C348.544 192.293 348.429 190.984 348.311 189.675C348.241 188.948 348.171 188.221 348.1 187.494C347.875 185.122 347.679 182.749 347.486 180.375C347.233 177.281 346.964 174.189 346.661 171.1C346.614 170.603 346.614 170.603 346.565 170.097C346.425 168.697 346.251 167.358 345.887 166Z" fill="#FEBE9A"/>
<path d="M360.682 80.3999C359.503 80.9805 358.348 81.5967 357.196 82.2296C346.382 88.0903 334.743 91.8054 322.345 91.6749C321.807 91.6708 321.27 91.6667 320.732 91.6627C319.253 91.6479 317.775 91.6255 316.297 91.5999C315.978 91.5964 315.659 91.5929 315.33 91.5894C303.397 91.416 290.332 87.2861 280.121 81.1249C279.509 80.7999 279.509 80.7999 278.709 80.7999C278.717 81.1574 278.726 81.5149 278.734 81.8833C278.931 91.6228 278.413 100.841 275.705 110.275C275.205 112.069 275.029 113.345 275.51 115.2C277.495 114.159 279.322 113.058 281.108 111.7C282.761 110.506 283.802 110.237 285.797 110.17C287.352 109.879 288.421 108.853 289.658 107.914C294.645 104.512 302.059 104.435 307.816 105.473C310.434 106.29 313.531 107.644 315.22 109.898C315.897 110.4 315.897 110.4 317.109 110.278C317.354 110.231 317.599 110.183 317.852 110.135C319.519 109.868 321.211 109.943 322.894 109.95C323.441 109.948 323.441 109.948 323.999 109.945C325.605 109.948 327.063 109.995 328.65 110.281C329.892 110.4 329.892 110.4 330.784 109.897C331.042 109.65 331.3 109.404 331.567 109.15C336.137 105.222 341.465 104.868 347.212 105.102C350.085 105.364 352.695 106.482 355.304 107.661C356.436 108.053 357.363 108.067 358.558 108.075C361.382 108.262 362.918 109.495 365.081 111.2C365.998 111.77 366.93 112.284 367.88 112.8C367.316 111.037 366.737 109.291 366.021 107.583C364.057 102.895 362.853 98.1823 361.882 93.1999C361.787 92.7224 361.693 92.245 361.596 91.753C360.942 88.0019 360.834 84.198 360.682 80.3999Z" fill="#FBDBC5"/>
<path d="M332.641 107.85C331.626 108.524 330.753 109.138 329.892 110C329.243 109.92 328.595 109.834 327.951 109.721C326.275 109.485 324.583 109.543 322.894 109.55C322.348 109.548 322.348 109.548 321.79 109.545C320.179 109.548 318.718 109.596 317.126 109.881C315.914 110.124 315.914 110.124 315.092 109.497C314.761 109.127 314.761 109.127 314.422 108.75C310.649 105.057 305.875 104.698 300.9 104.7C296.135 104.755 291.372 105.658 287.681 108.9C286.607 109.671 286.357 109.656 285.097 109.68C282.648 109.911 281.02 111.199 279.084 112.625C278.738 112.871 278.391 113.117 278.035 113.371C277.189 113.974 276.349 114.586 275.51 115.2C275.774 117.048 276.038 118.896 276.31 120.8C278.146 120.065 279.115 119.406 280.608 118.175C282.729 116.536 284.041 115.956 286.706 116C286.644 116.73 286.644 116.73 286.581 117.475C286.608 121.653 288.567 125.074 291.427 127.991C294.71 131.018 297.752 131.796 302.114 131.689C306.91 131.381 310.551 129.913 313.897 126.4C315.939 123.843 317.415 120.473 317.671 117.2C317.775 115.933 317.775 115.933 318.821 115.25C320.752 114.441 322.588 114.093 324.694 114.4C325.756 114.999 326.632 115.539 327.493 116.4C327.593 117.04 327.682 117.682 327.768 118.325C328.455 122.212 330.228 126.045 333.491 128.4C338.166 131.146 342.718 132.365 348.149 131.414C351.575 130.394 354.361 128.435 356.196 125.356C358.15 121.521 358.015 117.803 357.883 113.6C360.733 114.085 362.419 115.233 364.631 117.05C365.228 117.532 365.827 118.012 366.427 118.491C366.817 118.81 366.817 118.81 367.216 119.135C367.88 119.6 367.88 119.6 368.679 119.6C368.99 118.475 369.176 117.416 369.229 116.25C369.249 115.958 369.268 115.666 369.289 115.366C368.853 113.356 367.312 112.093 365.674 110.992C365.179 110.682 364.681 110.377 364.181 110.075C362.543 109.149 362.543 109.149 361.082 108C360.407 107.967 359.733 107.944 359.058 107.925C356.234 107.725 353.867 106.802 351.273 105.75C345.194 103.339 338.068 104.499 332.641 107.85Z" fill="#181716"/>
<path d="M413.865 390C413.625 390.322 413.386 390.643 413.14 390.975C412.341 392.089 412.341 392.089 411.066 392.4C410.061 392.438 409.067 392.454 408.062 392.451C407.752 392.452 407.442 392.453 407.122 392.454C406.075 392.455 405.027 392.454 403.979 392.453C403.224 392.454 402.469 392.455 401.713 392.456C399.631 392.459 397.549 392.459 395.467 392.458C393.223 392.458 390.98 392.46 388.737 392.462C384.34 392.466 379.943 392.467 375.547 392.467C371.974 392.467 368.402 392.468 364.829 392.469C356.358 392.472 347.886 392.475 339.414 392.474C339.143 392.474 338.872 392.474 338.593 392.474C337.219 392.474 335.845 392.474 334.471 392.474C334.199 392.474 333.926 392.474 333.645 392.474C333.093 392.474 332.541 392.474 331.989 392.474C323.401 392.474 314.814 392.477 306.226 392.482C296.583 392.488 286.941 392.492 277.298 392.492C272.19 392.491 267.082 392.493 261.975 392.497C257.627 392.5 253.279 392.501 248.93 392.499C246.71 392.497 244.491 392.497 242.271 392.501C240.24 392.504 238.21 392.503 236.18 392.5C235.444 392.499 234.707 392.5 233.971 392.502C232.973 392.505 231.976 392.503 230.979 392.5C230.69 392.502 230.401 392.504 230.103 392.506C228.655 392.495 227.533 392.445 226.326 391.6C226.194 391.336 226.062 391.072 225.926 390.8C225.662 390.8 225.398 390.8 225.126 390.8C225.234 393.219 225.494 394.895 227.126 396.8C228.766 398.044 230.184 398.172 232.179 398.154C232.484 398.156 232.79 398.159 233.105 398.161C234.134 398.166 235.162 398.163 236.19 398.16C236.934 398.163 237.677 398.165 238.42 398.169C240.466 398.176 242.511 398.176 244.557 398.174C246.762 398.174 248.967 398.181 251.172 398.187C255.492 398.197 259.813 398.2 264.134 398.2C267.646 398.201 271.157 398.203 274.669 398.207C283.001 398.216 291.332 398.224 299.664 398.223C299.931 398.223 300.197 398.223 300.472 398.223C301.822 398.223 303.173 398.223 304.524 398.223C304.792 398.222 305.06 398.222 305.337 398.222C305.879 398.222 306.422 398.222 306.964 398.222C315.404 398.222 323.844 398.231 332.285 398.247C341.766 398.265 351.247 398.276 360.729 398.275C365.749 398.274 370.77 398.278 375.791 398.29C380.065 398.301 384.339 398.304 388.614 398.296C390.795 398.292 392.976 398.292 395.158 398.302C397.154 398.312 399.151 398.31 401.148 398.3C401.87 398.298 402.593 398.3 403.315 398.307C409.842 398.363 409.842 398.363 412.141 396.227C413.855 394.177 413.997 392.567 413.865 390Z" fill="#B4B4B4"/>
<path d="M347.709 185.6C348.086 188.5 348.26 191 348.26 194.196C348.75 198.072 347.848 200.763 345.71 204C341.027 209.86 333.835 212.252 326.637 213.109C318.696 213.893 311.129 212.231 304.523 207.6C303.815 206.963 303.178 206.295 302.524 205.6C302.324 205.4 302.324 205.4 302.124 205.2C301.924 205 302.124 205.2 301.724 204.8C300.525 203.4 299.692 202.24 298.749 200.936C297.508 199.073 297.741 197.389 297.876 195.25C297.895 194.912 297.915 194.574 297.935 194.225C298.097 191.481 298.194 188.74 298.425 186C295.268 188.256 293.207 191.954 292.306 195.728C291.512 200.508 292.321 204.834 295.002 208.875C300.715 216.427 309.096 220.177 318.321 221.459C327.821 222.415 338.28 220.612 345.981 214.683C349.971 211.418 353.111 207.501 354.407 202.425C354.44 202.021 354.473 201.617 354.507 201.2C354.532 200.919 354.558 200.637 354.584 200.347C354.835 195.294 352.732 190.68 349.498 186.883C348.259 185.6 348.259 185.6 347.709 185.6Z" fill="#0D0A2C"/>
<path d="M263.514 90.8C263.316 91.394 263.316 91.394 263.114 92C262.454 92 261.794 92 261.115 92C260.613 93.5048 260.848 94.3547 261.132 95.9147C261.182 96.1906 261.231 96.4665 261.282 96.7508C261.448 97.6708 261.618 98.5901 261.788 99.5094C261.906 100.159 262.023 100.808 262.14 101.458C262.455 103.197 262.773 104.935 263.092 106.673C263.419 108.461 263.743 110.249 264.067 112.037C264.454 114.169 264.84 116.301 265.229 118.433C266.317 124.407 267.381 130.386 268.434 136.367C268.612 137.379 268.791 138.391 268.97 139.403C269.02 139.69 269.07 139.976 269.122 140.271C269.344 141.527 269.578 142.769 269.912 144C272.601 143.832 274.674 142.939 276.528 140.93C278.949 137.717 279.096 134.246 278.6 130.348C278.217 127.805 277.745 125.283 277.1 122.792C276.7 121.226 276.443 119.649 276.21 118.05C275.979 116.566 275.744 115.083 275.51 113.6C275.45 113.217 275.45 113.217 275.389 112.825C275.113 111.059 274.828 109.294 274.534 107.531C274.436 106.935 274.341 106.338 274.249 105.741C273.569 101.358 272.737 96.691 269.112 93.75C267.277 92.5592 265.716 92 263.514 92C263.514 91.604 263.514 91.208 263.514 90.8Z" fill="#E7E6E7"/>
<path d="M383.075 92.0001C379.821 91.7634 377.681 92.6817 374.977 94.4501C371.442 98.1472 371.15 103.087 370.429 107.925C370.202 109.403 369.971 110.881 369.738 112.358C369.684 112.711 369.629 113.065 369.572 113.429C369.19 115.842 368.713 118.203 368.117 120.573C367.825 121.839 367.694 123.091 367.578 124.383C367.478 125.218 367.298 125.989 367.08 126.8C366.624 128.528 366.404 130.219 366.28 132C366.249 132.381 366.218 132.762 366.186 133.155C366.049 136.134 366.487 138.371 368.28 140.8C369.978 142.482 371.618 143.268 373.878 144C378.802 116.767 378.802 116.767 381.139 103.711C381.313 102.738 381.487 101.765 381.662 100.792C381.903 99.4498 382.143 98.1078 382.383 96.7657C382.454 96.3713 382.525 95.9768 382.598 95.5704C382.693 95.0357 382.693 95.0357 382.79 94.4901C382.845 94.1808 382.901 93.8715 382.958 93.5529C383.075 92.8001 383.075 92.8001 383.075 92.0001Z" fill="#E7E7E7"/>
<path d="M335.015 109.3C333.041 110.798 331.817 112.849 331.092 115.2C330.656 118.659 330.891 121.707 332.985 124.537C335.554 127.605 338.199 129.274 342.252 129.731C345.993 129.927 348.997 129.003 351.861 126.53C354.65 123.488 355.646 120.121 355.591 116.069C355.395 113.758 354.799 111.777 353.192 110.061C348.119 105.939 340.56 106.131 335.015 109.3Z" fill="#EEE4D9"/>
<path d="M292.504 109.45C290.455 111.201 289.653 113.08 289.355 115.736C289.214 119.801 289.983 122.745 292.529 125.925C295.016 128.514 297.747 129.69 301.326 129.825C305.048 129.662 308.459 128.274 311.098 125.6C313.441 122.327 314.316 119.632 313.897 115.6C312.896 112.185 310.547 109.649 307.463 107.936C302.937 106.123 296.559 106.756 292.504 109.45Z" fill="#EFE4D9"/>
<path d="M345.887 166C345.484 166.208 345.082 166.416 344.667 166.63C332.906 172.526 319.758 173.197 307.252 169.168C305.502 168.576 303.823 167.886 302.181 167.041C301.501 166.8 301.501 166.8 300.302 167.2C300.181 168.371 300.099 169.258 300.302 170.4C301.133 171.282 301.726 171.779 302.726 172.4C302.978 172.567 303.23 172.733 303.49 172.905C304.284 173.42 305.089 173.913 305.9 174.4C306.272 174.626 306.272 174.626 306.651 174.857C313.754 179.111 321.481 181.168 329.665 179.189C335.176 177.709 339.81 174.643 344.287 171.2C344.678 170.971 345.068 170.742 345.47 170.506C346.287 169.6 346.287 169.6 346.321 168.7C346.221 167.785 346.081 166.899 345.887 166Z" fill="#E6B395"/>
<path d="M253.517 107.2C252.294 107.779 251.638 108.164 251.016 109.386C250.6 111.358 250.936 113.01 251.297 114.975C251.401 115.574 251.401 115.574 251.507 116.185C251.655 117.027 251.805 117.869 251.958 118.71C252.191 119.994 252.414 121.28 252.635 122.566C252.78 123.385 252.926 124.205 253.072 125.025C253.138 125.408 253.204 125.79 253.273 126.184C253.638 128.161 254.03 129.872 255.116 131.6C256.316 132.4 256.316 132.4 257.916 132.4C257.676 129.604 257.287 126.861 256.791 124.1C256.721 123.707 256.652 123.313 256.58 122.908C256.013 119.706 255.431 116.506 254.839 113.308C254.562 111.799 254.295 110.296 254.096 108.775C253.917 107.6 253.917 107.6 253.517 107.2Z" fill="#8FC0FF"/>
<path d="M391.872 107.2C391.608 107.332 391.344 107.464 391.072 107.6C390.823 108.478 390.823 108.478 390.613 109.65C390.533 110.085 390.454 110.52 390.372 110.969C390.289 111.441 390.207 111.913 390.122 112.4C390.036 112.881 389.949 113.361 389.86 113.856C389.183 117.658 388.561 121.469 387.976 125.286C387.885 125.874 387.885 125.874 387.792 126.475C387.74 126.819 387.687 127.163 387.634 127.517C387.483 128.465 387.483 128.465 387.073 129.6C387.057 130.533 387.056 131.467 387.073 132.4C388.565 132.198 389.327 131.985 390.272 130.8C390.567 129.892 390.567 129.892 390.771 128.819C390.849 128.418 390.927 128.018 391.008 127.605C391.087 127.174 391.166 126.744 391.247 126.3C391.373 125.636 391.373 125.636 391.502 124.959C391.676 124.035 391.848 123.11 392.017 122.185C392.262 120.853 392.515 119.522 392.77 118.191C392.921 117.377 393.071 116.564 393.221 115.75C393.293 115.374 393.365 114.998 393.439 114.61C393.807 112.543 393.97 110.852 393.471 108.8C392.646 107.825 392.646 107.825 391.872 107.2Z" fill="#8FC0FF"/>
<path d="M349.486 170C348.686 170.4 348.686 170.4 348.686 170.4L349.486 170Z" fill="#7F7F7F"/>
<path d="M411.865 164C411.065 164.4 411.065 164.4 411.065 164.4L411.865 164Z" fill="white"/>
<path d="M396.27 34.8C395.47 35.2 395.47 35.2 395.47 35.2L396.27 34.8Z" fill="#7F7F7F"/>
<path d="M268.312 13.2C267.512 13.6 267.512 13.6 267.512 13.6L268.312 13.2Z" fill="white"/>
</g>
<defs>
<linearGradient id="paint0_linear_102_4509" x1="333" y1="73.1997" x2="333" y2="171.6" gradientUnits="userSpaceOnUse">
<stop stop-color="#FFEFE0"/>
<stop offset="1" stop-color="#FFBE99"/>
</linearGradient>
<clipPath id="clip0_102_4509">
<rect width="611" height="498" fill="white" transform="matrix(-1 0 0 1 611 -100)"/>
</clipPath>
<clipPath id="clip1_102_4509">
<rect width="70" height="70" fill="white" transform="translate(284 297)"/>
</clipPath>
</defs>
</svg>
